{"glyphs":{":":{"x_min":0,"x_max":237,"ha":237,"o":"m 173 337 l 170 330 l 157 319 l 136 319 l 126 303 l 112 301 l 110 306 l 105 308 l 107 316 l 94 327 q 81 350 81 377 l 89 398 q 113 394 147 385 q 162 363 173 337 z m 157 55 l 155 16 l 149 13 q 129 14 110 3 l 81 24 l 70 42 l 76 71 l 83 79 l 86 92 l 105 95 q 110 90 126 83 q 137 78 141 74 l 144 74 l 141 63 z"},"$":{"x_min":0,"x_max":435,"ha":435,"o":"m 380 148 l 377 145 l 377 134 l 369 134 l 366 116 l 356 113 l 364 105 q 352 81 351 74 l 335 53 l 332 53 l 314 34 q 285 27 266 18 l 253 21 l 253 16 l 248 16 q 237 -41 237 -82 l 237 -83 q 241 -111 243 -129 l 235 -127 l 232 -129 l 214 -116 q 214 -105 214 -98 q 214 -66 211 0 q 211 2 214 9 l 214 11 l 214 11 l 214 11 q 208 14 201 14 q 198 14 195 13 q 191 -6 191 -15 q 191 -18 192 -21 l 185 -24 l 185 -40 l 187 -42 q 187 -52 187 -56 q 187 -76 192 -108 l 182 -111 l 174 -103 l 161 -100 l 158 -92 l 158 24 l 140 21 l 137 29 l 95 34 l 98 42 l 90 42 l 90 53 q 80 58 74 66 l 66 84 l 69 95 l 66 98 l 66 108 q 66 110 66 110 q 68 119 69 119 l 69 119 l 69 119 l 69 119 l 69 119 l 66 121 q 69 130 69 140 q 69 144 69 148 l 82 158 l 79 161 l 90 177 l 98 179 l 100 182 l 113 182 q 116 153 116 149 q 116 146 113 129 l 119 113 l 129 105 l 132 98 l 142 90 l 156 87 l 161 95 l 161 153 q 161 169 158 203 q 156 237 156 250 q 156 263 161 293 l 145 303 l 132 303 l 108 322 l 100 319 l 97 325 q 70 375 65 389 q 58 408 55 430 q 63 449 63 467 l 69 472 l 69 493 l 74 498 l 79 511 l 84 514 l 82 517 l 76 511 l 69 511 l 69 519 l 95 551 q 109 555 116 562 l 119 567 l 124 564 l 132 583 l 142 588 q 147 587 150 587 q 161 587 174 593 l 174 627 l 171 672 l 171 678 l 171 680 l 163 683 l 161 714 l 163 720 q 184 720 195 712 l 208 696 l 206 693 l 208 675 l 206 675 q 205 663 203 646 l 203 646 l 203 646 q 205 633 206 620 l 200 606 l 200 598 l 224 598 l 229 596 q 235 646 235 688 q 235 699 235 714 l 243 712 l 243 717 l 250 707 l 256 709 l 277 680 q 267 667 264 635 l 266 627 l 261 609 l 269 604 q 272 592 272 584 q 272 582 272 580 l 277 583 l 303 567 l 303 564 l 319 559 q 341 538 353 533 q 362 513 362 501 q 362 498 361 493 l 359 490 l 361 482 l 353 482 l 351 453 l 337 453 l 335 448 l 322 451 l 327 464 l 322 480 l 311 482 q 294 510 279 522 l 272 522 l 269 514 l 264 511 q 263 500 261 485 l 261 485 q 261 480 263 466 q 266 449 266 438 l 266 435 l 258 422 l 258 398 l 245 395 l 253 374 l 253 364 l 258 356 q 255 338 253 332 q 259 322 261 311 l 295 293 l 293 298 l 298 301 l 308 295 l 314 285 l 332 272 q 363 229 369 185 l 374 182 z m 229 446 l 227 464 l 220 466 q 220 489 227 527 l 211 540 l 211 535 l 200 522 q 207 500 207 489 q 207 488 206 485 l 198 477 q 198 405 203 327 l 216 319 q 220 327 220 346 q 220 352 219 362 q 219 372 219 382 q 219 399 221 409 l 227 411 q 229 420 229 428 q 229 437 227 443 z m 177 522 l 171 530 l 161 533 l 158 525 l 153 525 l 150 517 l 137 514 l 132 504 l 124 504 l 119 488 q 121 468 121 449 q 121 429 119 409 q 131 386 145 377 q 147 370 156 353 l 156 348 l 161 351 q 161 373 164 400 q 167 433 167 433 q 167 435 163 451 l 171 477 l 169 496 l 171 496 z m 316 132 q 308 142 298 145 l 303 148 l 298 169 l 287 182 l 285 195 l 282 198 q 279 208 264 237 l 261 237 l 250 245 l 253 235 q 249 226 248 153 l 248 95 q 248 85 250 66 l 256 71 l 258 69 q 283 69 290 74 l 301 92 l 295 108 l 303 121 l 311 124 z m 216 266 l 198 272 q 198 264 197 254 q 193 216 193 198 q 193 195 195 195 l 195 195 l 195 195 l 195 195 l 195 137 q 195 131 196 116 q 198 102 198 95 q 198 89 195 82 l 209 76 q 214 110 214 120 q 214 130 213 146 q 211 172 211 198 q 211 244 216 266 z"},"?":{"x_min":0,"x_max":502,"ha":502,"o":"m 447 487 l 445 481 l 439 462 l 434 442 l 432 435 l 426 427 l 424 411 l 418 408 l 416 398 l 395 385 l 387 358 l 374 345 l 366 342 l 355 324 l 353 313 l 345 313 q 331 289 305 279 l 289 282 l 255 263 l 250 247 q 250 240 262 220 q 274 198 276 189 l 273 184 q 274 175 274 170 q 274 152 263 139 l 242 145 l 234 142 l 218 124 l 210 126 q 200 167 200 237 q 200 253 205 282 l 223 313 l 234 319 l 242 329 l 252 332 l 255 337 l 266 345 l 276 340 l 289 342 q 292 353 292 357 l 292 357 l 292 358 l 302 366 q 302 369 302 370 q 302 375 300 382 q 317 399 337 446 q 356 493 355 516 l 358 516 l 366 519 l 366 530 l 363 537 l 371 540 l 363 551 l 366 559 l 364 560 l 357 563 q 348 567 345 569 l 342 566 l 342 572 l 331 564 l 329 590 l 321 585 l 305 609 q 266 634 242 643 l 223 640 l 213 643 l 205 635 l 197 635 l 197 632 l 189 638 l 176 635 l 165 638 l 160 630 l 163 624 l 160 622 l 155 611 l 155 606 l 139 606 l 136 593 l 131 593 q 130 581 118 564 l 118 535 l 113 527 l 113 524 q 113 521 115 507 q 115 501 116 494 q 117 472 126 458 l 128 456 l 128 445 l 139 429 q 154 416 176 414 l 186 421 q 202 449 202 496 q 202 508 200 522 l 197 524 l 184 519 l 171 498 l 165 498 l 163 514 l 160 516 l 179 540 l 200 545 l 252 522 l 284 487 l 284 466 l 287 458 l 276 443 l 268 440 l 266 435 l 263 435 q 261 430 242 419 l 237 419 l 205 403 l 205 398 l 189 392 q 143 398 102 435 l 84 482 l 81 485 q 54 540 54 564 q 54 572 55 577 q 71 604 116 640 q 138 658 153 664 q 175 672 209 672 q 264 672 318 652 q 342 644 355 632 l 358 632 q 381 621 416 598 l 421 582 q 428 579 438 554 q 446 533 447 522 l 442 514 l 447 503 z m 273 18 l 268 2 l 271 -3 l 266 -3 l 266 -14 l 231 -11 l 189 15 q 194 39 194 56 q 194 66 192 76 l 200 79 l 205 84 q 239 71 268 55 l 266 44 l 271 39 z"},"<":{"x_min":0,"x_max":451,"ha":451,"o":"m 427 106 l 423 106 l 423 100 l 404 106 l 390 106 q 376 116 340 124 q 290 135 284 143 q 259 160 247 169 q 232 174 213 183 q 196 196 159 218 l 153 229 q 125 252 107 258 l 87 258 l 31 301 q 41 307 62 308 q 74 310 81 312 q 89 314 113 326 q 168 354 219 363 l 213 371 l 227 371 l 223 378 l 251 387 l 251 394 q 262 402 289 409 q 312 415 317 417 q 319 417 325 421 q 348 434 409 453 l 427 440 l 418 438 l 409 434 l 409 425 q 377 399 293 367 l 293 361 l 283 358 l 283 346 q 272 341 261 335 l 241 335 l 247 332 l 237 327 l 233 317 l 182 300 l 167 300 l 143 289 l 171 277 q 181 263 261 227 l 257 218 q 263 212 283 188 l 307 183 l 311 188 q 345 145 409 125 z"},"'":{"x_min":0,"x_max":170,"ha":170,"o":"m 120 528 l 115 423 l 100 405 q 98 392 95 377 q 93 365 93 358 q 93 352 94 336 q 95 333 96 315 l 87 315 l 78 303 q 71 325 69 366 l 66 373 q 66 379 66 382 q 66 402 54 426 q 54 428 54 428 q 54 437 53 445 q 49 489 49 504 q 49 506 50 506 l 50 506 l 50 506 l 50 506 l 50 506 q 57 511 57 522 q 59 541 63 565 l 66 565 l 68 577 l 78 575 l 78 549 l 92 543 l 99 546 l 108 538 l 118 535 q 119 534 120 529 z"},"=":{"x_min":0,"x_max":472,"ha":472,"o":"m 423 331 l 412 323 l 399 326 l 389 318 l 386 318 l 378 307 l 362 305 l 349 310 l 346 315 l 338 315 l 331 318 l 320 315 q 300 318 294 323 q 284 317 271 317 q 268 317 262 318 l 251 312 l 246 299 l 238 299 l 233 302 l 220 299 l 207 305 l 196 302 l 186 294 l 130 289 l 109 297 l 104 302 l 99 299 l 96 291 l 85 291 l 85 294 l 75 299 q 64 328 54 334 l 51 347 l 56 341 l 56 352 l 62 352 l 67 347 l 70 349 l 80 344 l 80 352 l 125 341 q 148 347 236 347 q 265 347 291 363 l 362 365 l 378 384 l 389 378 l 391 384 l 394 373 l 404 373 l 402 368 l 415 365 l 415 355 l 423 341 z m 432 201 l 425 176 l 420 182 l 420 173 l 414 173 l 409 178 l 406 176 l 396 182 l 384 182 l 352 188 q 306 181 271 181 q 262 181 254 181 q 242 182 240 182 q 191 182 182 178 l 114 180 l 99 175 l 86 169 l 86 176 l 82 174 l 72 176 l 74 179 l 61 184 l 61 194 l 46 199 l 55 218 l 67 226 l 79 221 l 90 229 l 93 229 l 103 232 l 117 225 l 128 231 l 134 228 l 142 228 l 148 225 l 160 228 q 169 225 184 218 q 188 219 195 227 q 199 230 204 230 l 229 225 l 234 238 l 242 238 l 247 234 l 260 236 l 273 230 l 284 230 l 294 239 l 345 232 l 371 230 l 376 225 l 381 228 l 384 236 l 395 234 l 395 231 l 420 224 q 424 210 432 201 z"},"a":{"x_min":0,"x_max":435,"ha":435,"o":"m 454 133 l 449 115 q 404 60 379 45 l 376 37 l 357 37 l 350 34 l 336 37 l 334 42 l 326 42 q 295 93 281 134 l 257 105 l 236 95 l 231 84 l 218 82 l 215 76 l 205 71 l 194 47 l 173 40 l 173 18 l 152 21 l 110 61 q 100 83 96 119 l 107 166 q 96 151 70 140 l 70 134 l 62 134 l 62 129 l 57 127 l 54 116 l 44 111 l 38 111 q 15 104 9 97 l -26 92 l -30 108 q 22 128 107 190 q 122 201 145 229 q 167 258 181 269 q 190 273 207 282 q 230 299 254 315 q 282 335 305 343 l 310 340 l 315 343 l 334 314 l 336 303 l 326 274 l 321 277 l 318 274 l 305 272 l 302 266 l 292 266 l 289 261 l 281 261 l 276 266 l 268 266 l 273 253 l 252 245 q 239 235 236 227 l 228 227 l 220 211 q 204 195 197 192 l 194 187 l 194 182 l 173 132 l 165 127 l 165 121 q 143 86 144 69 l 149 66 q 193 85 218 105 l 218 111 q 241 125 249 145 q 260 148 271 170 q 280 187 289 203 q 286 218 297 245 l 302 240 l 307 243 l 313 237 l 315 232 l 321 232 l 323 227 l 328 227 q 339 199 339 166 l 339 129 q 339 124 337 115 q 334 104 334 100 q 334 100 334 69 q 337 57 339 55 l 363 63 l 365 69 l 397 92 l 398 92 q 415 105 442 134 l 446 136 z"},"L":{"x_min":0,"x_max":704,"ha":704,"o":"m 689 84 l 671 54 l 660 53 l 662 47 l 654 32 l 633 26 l 625 29 l 599 3 l 588 8 l 583 3 l 551 18 l 544 29 q 529 32 494 74 q 459 116 441 119 q 431 135 404 166 q 393 176 377 181 q 357 188 351 192 l 343 187 l 346 182 l 338 179 l 335 148 l 330 145 l 322 127 l 304 113 q 304 112 305 108 q 306 104 306 103 q 306 97 304 87 l 290 69 l 283 42 l 275 37 l 272 29 l 251 11 l 246 11 l 246 5 l 243 5 l 198 -16 l 180 -11 l 177 -16 l 161 -21 l 145 -8 q 127 -7 93 0 l 53 45 q 38 76 43 111 l 48 113 l 48 124 l 40 127 q 45 139 58 163 q 66 177 87 206 l 101 216 l 122 221 l 130 229 l 127 232 l 156 240 l 153 243 l 185 245 l 196 253 q 223 256 225 256 q 227 256 251 253 l 259 243 l 290 245 l 288 264 l 330 369 q 286 378 219 398 q 218 397 172 409 q 157 428 138 443 q 129 464 119 506 q 128 532 132 567 q 155 613 185 630 l 201 635 l 214 633 l 227 625 l 240 630 q 280 616 298 598 l 306 585 l 327 569 l 325 564 q 339 531 335 514 l 327 517 l 304 464 l 298 464 l 290 453 l 277 446 l 267 446 q 238 458 230 467 l 225 464 l 222 477 l 211 482 l 214 504 l 219 504 l 222 519 l 240 533 q 249 532 267 538 l 275 522 l 272 517 l 256 519 l 246 506 l 246 493 l 243 485 l 254 469 l 267 469 q 280 475 298 496 l 312 533 q 310 535 306 551 l 296 564 l 280 569 l 264 583 l 261 577 l 256 588 l 246 588 l 238 580 l 235 585 q 226 590 219 588 l 217 585 l 206 585 l 201 580 l 201 575 l 177 564 q 147 536 151 482 l 164 461 l 190 448 l 217 419 l 235 414 l 238 411 q 250 411 264 406 l 267 409 l 290 409 l 304 403 q 328 410 335 409 q 341 438 362 475 l 356 496 l 364 517 l 367 517 l 367 527 q 368 529 391 585 q 397 602 433 641 q 435 644 438 649 l 449 646 l 475 664 q 523 667 525 667 q 532 667 538 664 l 557 667 l 559 662 l 580 659 l 594 633 l 586 583 q 565 558 554 514 l 541 498 l 530 493 q 505 471 501 451 q 472 440 454 419 l 446 419 l 446 406 l 428 409 l 417 403 l 412 395 l 388 393 l 391 377 l 380 364 l 383 353 l 377 351 q 377 351 377 316 q 377 288 370 274 l 367 272 l 359 258 l 351 256 l 351 243 l 359 227 l 377 219 l 380 211 q 408 200 447 176 l 462 156 q 503 142 515 124 l 520 127 q 556 94 562 76 l 602 53 l 631 61 q 642 69 654 90 l 644 119 l 631 132 l 615 132 l 607 119 l 604 100 l 612 95 l 615 87 l 604 84 l 591 105 l 591 132 l 615 150 l 625 145 l 633 148 l 644 142 l 644 134 l 649 132 l 654 134 l 660 127 l 667 134 l 683 116 q 683 93 689 84 z m 562 609 l 559 617 l 562 620 l 554 622 l 557 627 l 544 646 q 533 641 512 643 q 498 631 486 630 l 483 625 l 470 617 l 464 593 l 457 591 l 451 580 l 457 567 l 449 562 l 441 569 l 435 559 l 438 556 l 438 535 l 435 533 l 433 522 l 414 493 l 414 477 l 412 477 l 409 448 l 401 432 l 420 427 l 433 443 l 454 446 l 464 456 l 472 475 l 486 482 l 491 496 l 504 506 l 517 496 l 530 506 l 525 522 q 527 534 543 563 q 559 592 562 609 z m 283 214 l 269 214 l 272 224 q 261 223 240 227 l 240 235 l 235 229 l 214 229 l 206 224 q 193 226 182 221 l 180 216 q 158 202 148 192 l 140 195 l 138 190 l 140 187 l 130 182 l 130 166 l 138 166 l 135 161 l 111 148 l 109 134 l 101 137 q 104 107 119 61 l 132 53 l 132 37 l 145 40 l 174 34 l 193 37 q 219 52 246 79 l 254 140 q 261 148 264 160 q 266 171 269 182 q 274 191 283 214 z"},"3":{"x_min":0,"x_max":409,"ha":409,"o":"m 374 153 l 363 119 l 355 127 q 346 112 332 95 q 333 90 333 88 q 333 79 329 69 l 316 50 l 295 37 l 289 37 l 282 32 l 276 32 q 249 20 210 -3 q 202 -5 195 -5 q 189 -5 184 -3 l 189 -8 l 168 -8 q 157 -5 152 -3 q 133 -5 123 -5 q 93 -5 44 37 l 34 58 l 28 61 l 26 71 l 15 79 l 15 95 q 22 124 26 134 q 40 153 50 158 l 50 161 l 57 163 l 65 171 l 97 185 q 132 186 171 169 l 176 161 l 168 156 l 176 156 l 179 140 l 181 148 l 197 148 l 197 142 l 202 142 l 197 113 l 200 103 l 187 100 l 158 121 l 160 127 l 152 127 l 144 134 l 144 129 l 137 142 q 112 140 84 134 l 81 127 l 68 127 l 57 103 l 57 74 q 72 33 123 11 l 155 13 l 176 26 l 179 21 l 189 24 l 184 29 q 203 38 224 58 l 229 42 q 248 67 255 100 l 260 98 l 279 111 l 284 127 l 276 161 l 274 161 l 276 192 l 284 187 l 287 174 l 289 174 l 289 185 l 295 174 l 297 203 l 292 216 l 295 219 l 284 243 l 274 245 l 274 235 q 250 255 200 285 l 192 279 q 176 286 161 286 q 159 286 152 285 l 142 272 l 126 269 l 115 279 l 113 293 q 107 297 97 314 l 105 314 l 108 316 l 144 316 l 171 327 l 187 327 l 231 366 l 229 359 l 242 364 l 242 372 l 247 372 l 245 382 l 247 380 q 247 405 258 424 l 255 430 l 258 432 l 250 443 l 245 469 l 231 490 l 221 493 q 206 512 192 522 l 187 517 l 166 525 l 163 519 l 134 501 l 115 514 l 113 506 l 105 504 l 97 488 l 94 490 q 94 490 94 489 q 94 489 93 486 q 92 483 92 481 q 92 472 94 459 l 105 443 l 126 451 q 145 464 150 475 l 152 485 l 160 488 l 176 480 l 192 453 l 187 432 l 181 427 l 171 427 l 158 422 l 139 422 l 137 424 l 118 422 l 108 430 l 84 438 l 63 469 l 63 480 l 65 485 l 63 496 l 68 501 l 65 511 l 68 522 l 76 525 l 89 540 q 140 562 160 562 l 184 554 l 184 562 l 218 559 l 226 562 l 231 554 l 253 540 l 258 540 q 282 527 287 514 l 292 511 l 300 498 l 297 496 l 313 488 l 313 467 l 308 456 l 316 446 l 316 385 l 305 395 q 304 391 304 383 q 304 375 305 364 l 300 359 l 295 337 l 300 330 l 289 314 l 276 308 l 218 308 q 244 302 258 293 l 268 293 l 287 272 l 305 264 l 332 235 l 345 203 l 355 198 q 368 176 374 153 z"},";":{"x_min":0,"x_max":237,"ha":237,"o":"m 165 337 l 160 314 q 157 314 155 314 q 146 314 131 308 l 128 316 l 118 314 l 118 308 l 94 322 q 73 348 70 377 l 73 382 l 75 393 l 91 406 l 110 401 l 110 406 l 123 403 l 131 393 l 136 393 l 157 361 l 157 351 z m 173 29 q 169 16 162 8 l 157 11 q 153 -4 144 -24 l 144 -40 l 131 -53 l 123 -50 l 118 -50 l 112 -47 l 112 -42 l 107 -42 l 104 -32 l 110 -32 l 112 -24 l 123 -16 q 132 16 133 27 l 133 28 l 133 29 l 136 37 l 123 42 l 120 29 l 99 26 l 89 34 l 75 58 l 78 90 q 85 95 89 105 l 112 108 q 119 104 131 95 l 144 92 l 154 82 l 157 82 l 160 69 l 170 61 z"},"J":{"x_min":0,"x_max":440,"ha":440,"o":"m 407 127 q 401 100 399 93 q 388 78 353 70 q 324 64 301 66 l 296 -6 l 288 -14 q 278 -46 278 -63 q 278 -70 280 -74 l 272 -77 l 267 -101 q 274 -115 276 -141 q 277 -173 280 -183 l 278 -190 l 283 -193 q 283 -206 267 -229 q 251 -251 251 -264 l 235 -285 l 230 -285 q 225 -316 206 -346 l 201 -343 l 191 -354 l 172 -357 q 164 -364 130 -380 l 122 -380 l 117 -391 l 109 -391 l 109 -399 l 80 -401 q 53 -390 9 -386 l -33 -357 q -41 -342 -76 -305 q -105 -274 -110 -248 q -113 -197 -113 -196 q -113 -172 -94 -132 q -76 -93 -57 -77 q -28 -53 69 -38 q 69 -38 117 -38 q 145 -38 163 -54 l 174 -74 q 170 -102 188 -138 q 179 -167 175 -209 l 167 -217 l 164 -230 q 158 -237 149 -253 q 140 -270 133 -277 l 77 -299 q 51 -298 13 -269 q -24 -239 -31 -214 q -29 -185 -26 -171 q -21 -146 -10 -132 l 46 -114 l 48 -106 l 67 -103 l 75 -93 l 104 -103 l 122 -119 l 130 -138 l 119 -159 l 122 -180 l 117 -201 l 109 -212 l 109 -219 l 75 -238 l 48 -230 q 32 -216 27 -196 q 32 -167 46 -154 l 51 -154 l 46 -196 l 56 -214 l 67 -217 l 77 -212 l 101 -177 l 106 -154 q 91 -144 83 -130 l 61 -127 l 32 -135 l 30 -140 l 25 -143 l 22 -156 l 19 -154 q 5 -184 3 -227 q 13 -241 35 -262 q 64 -273 90 -270 l 117 -256 q 139 -224 151 -209 l 162 -169 q 153 -135 156 -106 l 146 -93 q 101 -77 43 -77 q 34 -77 19 -82 l 9 -77 l -18 -90 q -33 -102 -48 -130 q -62 -158 -62 -177 q -62 -199 -60 -241 q -53 -253 -44 -273 l -35 -281 l -39 -293 l -36 -299 l -10 -320 l -4 -322 l -7 -333 l 6 -343 l 11 -341 q 48 -362 105 -356 q 120 -344 122 -338 l 130 -338 q 152 -316 172 -309 q 182 -285 204 -254 l 217 -246 q 224 -232 222 -225 l 220 -225 l 230 -196 l 228 -169 l 225 -164 l 230 -156 q 235 -136 235 -96 q 235 -85 230 -45 l 241 -16 q 237 0 233 9 l 235 74 q 200 88 170 116 l 170 124 q 158 128 139 148 q 111 177 104 197 q 93 225 85 238 q 86 245 83 257 q 79 271 79 276 q 84 290 98 337 q 119 360 125 376 l 135 376 l 146 405 l 146 413 q 167 441 180 463 l 193 471 q 204 485 217 511 l 212 524 q 215 534 227 543 q 236 550 246 558 q 254 569 270 590 l 270 603 l 286 635 q 296 638 309 653 l 317 653 l 325 661 l 330 659 l 344 669 l 349 677 l 349 685 l 354 688 l 365 685 l 373 695 l 378 693 l 375 674 l 383 672 q 378 661 376 644 q 375 622 373 616 q 371 606 364 586 q 356 566 354 556 q 354 539 346 503 l 346 482 l 341 482 q 344 444 333 427 l 325 419 l 315 382 l 320 369 l 330 376 l 325 358 q 328 337 328 334 q 328 331 325 313 l 322 313 q 324 301 317 287 l 325 282 l 309 268 l 307 268 l 301 249 l 307 244 q 304 239 304 198 q 304 189 306 173 q 309 154 309 148 q 309 148 309 101 q 306 89 304 87 q 332 85 359 103 q 385 130 396 164 l 407 156 z m 278 376 l 272 379 q 278 418 278 421 q 278 427 276 437 q 275 448 275 453 q 275 453 275 537 q 262 521 254 500 l 249 500 l 246 477 q 237 461 220 429 q 214 413 201 382 l 199 382 l 191 350 q 167 330 155 296 l 152 295 q 149 284 149 253 q 149 248 147 242 l 144 242 l 142 219 l 149 193 l 141 185 q 144 177 170 148 q 193 122 201 115 q 219 99 241 93 l 246 143 l 238 148 l 235 182 q 249 209 244 234 l 249 234 q 256 254 259 284 q 264 294 270 316 q 274 337 278 376 z"},"V":{"x_min":0,"x_max":788,"ha":788,"o":"m 806 625 q 803 596 793 561 l 777 538 l 761 532 l 748 519 l 735 517 q 712 524 698 540 l 690 554 q 690 594 698 606 l 722 619 l 745 617 l 764 606 l 766 593 l 758 575 l 737 572 l 740 606 l 732 612 q 723 609 708 583 l 711 556 l 724 538 l 735 535 q 751 560 772 577 q 774 598 774 605 q 774 613 772 635 l 753 662 l 729 664 l 687 633 q 682 618 666 597 q 646 571 642 561 q 634 545 627 515 q 617 476 610 464 q 581 405 575 385 q 566 354 566 322 l 550 295 q 550 289 550 287 q 550 250 538 191 q 534 170 529 163 l 529 140 l 526 132 l 526 100 q 526 94 529 82 q 532 70 532 63 q 532 56 529 50 q 535 35 535 20 q 535 15 534 8 l 508 0 l 500 5 l 492 5 l 474 26 l 463 32 l 450 32 l 453 39 l 445 39 l 445 53 l 439 50 l 439 42 l 429 45 l 432 50 l 426 53 l 429 71 q 427 84 426 88 q 416 143 416 155 l 421 161 l 410 179 l 416 177 l 421 195 l 426 200 l 424 219 l 395 227 l 384 293 l 374 298 q 375 306 375 312 q 375 325 371 332 l 379 332 l 371 364 l 368 364 l 366 385 l 355 406 l 368 435 l 363 469 l 355 472 l 345 459 l 342 461 l 337 506 l 326 527 l 326 543 l 318 548 q 311 599 287 633 l 279 638 l 284 643 l 281 646 l 250 656 l 247 670 q 228 688 202 696 l 189 696 l 189 701 l 165 701 l 165 701 l 166 701 l 166 701 l 167 701 l 166 701 l 166 701 l 130 695 l 118 693 l 113 683 q 105 676 96 667 q 86 658 78 651 l 73 633 l 65 633 l 65 617 l 60 619 l 60 593 l 62 583 l 62 583 l 62 583 l 73 580 l 73 572 l 81 561 l 76 559 l 78 548 q 102 529 131 519 l 165 519 l 178 540 l 178 546 l 184 538 l 189 540 l 194 564 l 205 577 q 210 594 210 604 q 210 605 210 609 l 205 609 l 205 630 l 197 641 l 197 648 l 184 648 l 168 656 l 165 664 l 149 662 l 147 656 l 123 646 l 110 609 l 113 604 l 139 593 l 147 596 q 160 615 160 635 l 173 627 l 181 612 q 170 598 171 580 l 160 572 l 147 572 l 142 561 l 123 564 l 97 583 l 99 585 l 84 604 l 86 635 q 97 658 126 672 l 181 677 l 205 670 q 225 650 229 641 l 236 638 q 234 610 234 582 l 234 575 l 226 556 l 221 551 l 210 527 l 184 506 l 168 501 l 157 503 l 147 498 q 129 496 121 496 q 115 496 105 498 l 105 503 l 86 506 l 55 530 l 60 535 l 49 543 l 41 556 l 31 556 l 15 583 l 23 625 l 33 630 q 35 632 37 634 q 52 662 52 677 q 52 678 52 680 l 84 709 l 99 709 q 125 725 202 725 q 251 712 257 710 q 279 699 284 696 q 314 675 328 666 l 337 659 l 342 643 q 354 637 374 615 q 394 591 397 580 l 395 572 q 401 515 416 498 l 416 490 l 439 443 l 439 435 l 445 432 l 445 424 l 450 411 l 447 406 l 447 398 l 450 401 l 458 401 l 463 374 l 458 372 l 453 374 l 453 361 q 456 351 458 345 l 453 343 l 458 319 l 453 314 l 458 295 l 450 290 q 444 282 442 271 l 461 248 l 466 248 l 471 232 l 479 224 l 479 219 q 497 203 497 161 l 503 153 q 505 167 514 203 q 525 248 525 277 q 525 288 526 293 q 533 310 536 324 q 547 371 559 417 q 562 423 569 443 q 569 451 573 490 l 574 498 l 600 530 q 601 553 645 607 q 689 660 714 672 l 753 677 l 780 667 l 793 654 z"},"\"":{"x_min":0,"x_max":264,"ha":264,"o":"m 213 505 l 213 490 l 206 480 q 206 466 206 458 q 206 409 193 396 q 191 369 191 358 q 191 354 192 348 q 185 331 182 319 l 170 308 q 170 315 169 349 l 166 359 l 158 380 l 151 402 l 148 412 l 152 423 q 151 433 150 436 q 144 466 144 474 q 144 475 145 475 l 145 475 l 145 475 q 145 475 145 475 q 147 537 148 551 l 158 554 l 167 562 l 174 559 l 185 549 l 185 558 l 201 558 l 203 546 l 209 537 l 203 525 l 203 507 q 204 507 206 508 q 208 509 209 510 q 213 508 213 505 q 213 505 213 505 z m 120 528 l 115 423 l 100 405 q 98 392 95 377 q 93 365 93 358 q 93 352 94 336 q 95 333 96 315 l 87 315 l 78 303 q 71 325 69 366 l 66 373 q 66 379 66 382 q 66 402 54 426 q 54 428 54 428 q 54 437 53 445 q 49 489 49 504 q 49 506 50 506 l 50 506 l 50 506 l 50 506 l 50 506 q 57 511 57 522 q 59 541 63 565 l 66 565 l 68 577 l 78 575 l 78 549 l 92 543 l 99 546 l 108 538 l 118 535 q 119 534 120 529 z"},"7":{"x_min":0,"x_max":407,"ha":407,"o":"m 431 525 l 423 522 q 417 514 415 504 l 391 488 q 365 452 362 438 l 365 430 q 349 419 336 385 q 321 370 312 369 q 308 358 302 335 q 269 294 264 268 l 237 238 l 234 220 l 229 217 q 229 208 219 188 q 212 173 211 167 l 203 159 l 200 141 l 184 130 l 179 117 l 174 112 q 176 106 176 83 l 179 77 l 166 67 l 163 56 l 155 54 l 153 64 l 145 27 l 150 17 q 140 6 139 -10 q 134 -11 125 -18 l 112 -11 l 107 -3 l 96 -3 l 91 5 l 91 -3 l 67 -5 l 54 3 l 33 -8 l 38 26 q 45 37 64 58 q 90 83 101 108 l 101 134 l 112 148 l 112 156 q 146 178 154 211 l 159 211 l 167 227 l 159 237 q 166 247 194 287 q 252 371 262 377 l 267 388 l 278 393 l 288 417 l 310 432 q 321 459 341 475 l 341 482 l 344 482 q 351 497 365 519 l 339 514 l 336 506 l 320 506 l 315 504 l 283 504 l 283 511 l 296 519 l 295 519 l 294 519 q 289 519 275 517 l 265 519 l 252 517 l 252 511 l 238 509 l 230 504 l 217 509 l 209 506 l 209 501 l 199 504 l 178 490 l 172 498 l 154 493 q 144 497 135 497 q 133 497 128 496 l 125 490 l 117 485 l 112 485 l 107 482 q 101 483 97 483 q 90 483 83 480 l 62 504 l 51 538 l 54 567 q 61 550 88 538 l 122 540 l 130 535 q 157 539 185 539 l 219 538 q 245 538 316 548 q 319 549 335 552 q 345 555 352 555 q 354 555 357 554 l 370 548 l 373 559 l 383 554 l 386 559 l 412 551 l 428 533 z"},"S":{"x_min":0,"x_max":533,"ha":533,"o":"m 488 100 l 480 92 l 472 90 l 472 87 q 464 78 449 49 q 432 14 430 5 l 419 5 l 390 -21 l 382 -21 l 366 -29 l 356 -40 l 343 -40 l 335 -47 l 324 -50 l 308 -37 l 301 -40 l 306 -50 l 264 -47 l 266 -42 l 253 -34 l 232 -37 q 226 -29 188 -3 q 158 17 148 34 l 137 74 l 148 137 l 182 185 q 186 188 203 197 q 228 211 239 214 q 253 218 274 219 l 290 214 q 300 199 324 192 l 353 161 l 361 134 q 359 128 359 98 l 353 90 l 351 76 l 345 76 l 340 66 l 343 63 l 335 58 q 325 44 311 24 l 293 13 l 237 24 l 237 32 l 229 34 l 224 58 q 235 82 256 111 l 261 108 l 279 129 l 290 113 l 282 113 l 272 103 q 269 83 269 72 q 269 70 269 66 l 279 55 l 287 55 l 295 61 l 298 55 l 308 69 l 301 82 l 306 82 l 311 95 l 316 98 l 314 116 l 308 121 l 308 156 l 272 179 l 269 180 q 256 183 242 181 l 233 180 l 229 179 q 200 169 177 129 l 177 125 q 177 110 179 92 l 174 87 l 179 53 l 200 24 q 217 15 250 -5 l 266 -8 l 272 -13 l 282 -16 l 293 -11 l 303 0 l 322 -3 l 327 3 l 356 8 l 380 40 l 385 37 l 395 40 l 398 53 l 390 63 l 406 58 l 406 66 l 398 74 q 415 101 417 137 q 409 172 409 193 q 409 197 409 203 l 398 221 l 398 243 l 393 250 l 395 264 q 386 277 385 287 l 366 295 q 355 310 348 337 q 312 370 285 419 q 272 395 261 388 l 256 377 l 248 369 q 243 350 224 332 l 219 316 l 214 314 l 211 306 l 203 303 l 200 306 l 198 298 l 203 295 l 192 285 l 190 277 l 182 272 l 166 248 l 148 235 l 148 219 q 125 191 92 142 l 87 140 q 78 121 71 113 l 71 100 l 58 90 l 48 64 l 32 50 l 34 42 l 26 32 l 24 32 q 18 23 2 -16 q -12 -55 -13 -66 l -32 -90 l -32 -61 l -40 -47 l -42 -32 q -27 -16 -18 11 q -5 47 0 56 q 7 71 22 92 q 25 96 28 100 q 36 109 43 120 q 50 129 53 134 q 67 165 100 221 q 146 253 171 322 l 190 335 q 196 352 261 464 l 248 498 l 248 522 l 235 538 l 245 562 l 237 567 q 243 581 245 598 l 256 598 l 250 625 q 256 641 285 667 l 306 675 l 314 685 l 316 680 l 380 688 q 382 688 383 688 q 394 685 395 685 l 395 685 l 395 685 l 395 685 l 395 685 q 418 660 422 638 q 412 609 411 593 l 406 585 l 411 572 l 406 575 q 386 554 377 533 l 374 533 l 332 477 q 342 461 366 438 l 361 432 l 369 432 l 369 435 l 374 435 q 375 421 388 404 q 401 385 401 385 l 409 393 l 411 380 l 419 380 l 422 374 l 419 369 l 424 372 l 422 366 l 430 361 l 427 356 q 465 326 472 298 q 472 294 472 292 q 472 280 477 266 l 472 264 l 490 214 l 488 190 l 482 187 l 480 166 l 493 140 l 493 121 q 493 116 488 100 z m 385 659 l 377 667 l 337 654 l 316 625 l 314 630 q 301 615 295 583 l 295 576 l 287 576 l 287 551 l 301 525 l 308 522 l 308 509 l 316 514 l 324 535 q 345 556 377 604 l 382 606 z"},"}":{"x_min":0,"x_max":405,"ha":405,"o":"m 284 277 l 261 244 l 263 215 l 269 201 l 275 203 q 275 193 253 172 q 237 156 236 153 q 228 137 204 102 q 197 93 190 70 q 184 46 176 38 q 174 36 174 33 q 174 29 177 22 q 181 10 181 5 q 181 3 179 1 q 159 -18 134 -43 q 124 -57 100 -61 q 79 -66 72 -72 l 27 -70 l 16 -54 l 49 -40 l 80 -33 l 84 -10 q 84 -9 85 -8 q 95 3 121 25 l 121 35 l 130 65 l 133 67 l 127 74 l 153 120 l 157 113 l 162 122 q 162 150 176 171 l 172 200 l 193 216 q 192 219 198 227 q 209 239 209 242 l 225 262 q 270 301 299 309 q 299 309 299 310 q 300 310 300 310 l 300 310 q 299 312 283 314 q 282 314 279 315 l 274 316 q 257 321 256 327 l 216 336 l 186 361 l 176 368 l 173 386 l 165 400 l 165 430 l 168 430 q 165 460 165 477 q 165 480 165 485 l 162 490 q 163 493 163 498 q 163 516 147 543 q 131 570 132 582 q 128 588 128 600 q 128 610 130 622 q 131 635 131 642 q 131 659 123 667 q 116 674 103 681 q 87 689 79 702 l 51 706 l 36 704 l 13 704 l 22 729 l 54 737 q 66 731 108 712 q 166 687 178 657 q 183 646 185 629 q 187 608 192 596 l 215 575 l 202 555 l 239 507 q 253 487 253 460 q 253 453 252 439 q 250 425 250 416 q 250 397 257 378 q 256 365 289 350 q 322 334 321 333 l 325 330 q 352 312 352 309 l 351 297 q 351 296 353 296 l 353 296 l 326 289 q 312 286 310 286 q 284 281 284 277 z"},"Z":{"x_min":0,"x_max":610,"ha":610,"o":"m 560 108 q 559 82 547 40 q 534 29 531 16 q 518 8 510 -5 q 501 -7 481 -21 l 468 -13 l 434 -13 l 413 -26 l 381 -24 q 355 -15 313 11 l 297 8 l 286 16 l 263 16 l 247 26 l 231 26 q 214 23 212 21 q 186 38 149 40 l 136 37 l 133 29 l 120 29 l 123 18 l 118 11 l 97 -2 l 76 -5 l 63 0 l 42 27 l 37 50 l 72 111 l 77 108 l 93 122 l 101 145 l 98 151 l 95 151 l 92 166 l 126 208 l 131 208 q 145 226 223 341 q 233 354 245 374 l 253 377 l 261 388 l 266 385 l 269 403 q 276 409 282 435 l 305 459 l 311 461 l 332 488 l 360 504 l 357 538 q 382 555 384 564 q 377 567 371 567 q 360 567 326 562 l 328 569 l 315 569 q 301 565 299 564 q 281 569 242 596 q 207 619 178 620 l 165 630 l 160 627 l 133 638 q 125 634 117 634 q 115 634 112 635 l 107 630 l 94 630 q 85 628 75 612 l 73 601 l 70 601 q 68 591 60 580 q 63 560 81 546 l 115 564 l 123 575 l 118 583 q 113 582 91 567 l 83 567 l 81 580 l 99 614 l 131 625 l 144 622 l 144 612 l 152 609 l 160 598 l 160 593 l 157 588 l 162 569 l 157 546 l 139 527 l 112 519 l 94 525 l 75 517 l 54 519 q 50 534 36 554 q 21 573 20 577 l 41 656 l 57 675 l 89 691 l 118 672 q 214 662 281 625 l 289 612 l 297 609 l 299 604 q 327 604 342 612 l 342 617 q 358 616 379 614 l 379 614 q 397 614 427 624 q 457 635 471 635 l 476 641 q 485 637 512 601 l 507 578 l 491 557 l 481 565 l 473 565 l 475 538 l 467 533 q 457 511 457 511 l 444 500 l 444 497 l 426 492 q 411 471 385 440 l 366 434 q 342 399 307 338 l 307 333 l 283 320 l 281 306 l 260 295 l 255 279 l 244 277 q 228 232 215 224 l 215 214 q 184 185 168 153 l 170 137 l 165 137 l 165 132 l 160 129 q 161 125 161 122 q 161 110 157 100 l 165 87 l 154 71 q 210 76 237 76 q 240 76 247 76 q 266 60 292 53 l 297 66 q 334 55 354 55 q 357 55 363 55 l 365 45 q 416 25 437 26 l 442 29 l 439 37 l 447 47 l 463 47 l 468 40 l 492 66 l 510 124 l 468 166 l 444 174 l 429 169 l 434 163 l 413 153 l 413 150 l 392 140 l 389 113 l 394 105 l 463 116 l 458 100 l 413 74 l 392 76 l 373 105 l 373 116 l 371 116 l 373 163 q 394 205 437 211 l 487 203 l 495 195 l 508 192 q 513 176 533 150 q 554 122 560 108 z"},"x":{"x_min":0,"x_max":385,"ha":385,"o":"m 399 116 q 371 88 360 86 q 347 70 316 53 l 287 48 q 263 55 231 80 q 199 105 189 127 l 184 127 l 184 140 l 173 145 l 168 137 l 173 137 l 163 111 l 155 113 l 139 95 l 128 90 l 126 82 l 131 74 l 126 69 l 123 61 l 121 61 q 109 31 86 18 q 84 7 70 -11 l 65 -13 q 65 -28 52 -61 l 52 -66 l 41 -74 l 41 -92 l 26 -84 l 28 -82 l -1 -37 l -1 -26 l -3 -24 l 5 -21 q 9 -12 23 0 l 23 5 l 28 13 l 36 13 l 36 16 l 52 34 l 55 45 l 65 55 l 70 79 l 92 92 q 103 107 118 132 l 131 140 q 143 168 157 182 q 142 212 115 274 q 111 291 97 322 l 97 330 l 86 348 l 76 353 l 39 356 l 26 351 l 23 345 l 18 343 l 18 337 l 7 335 l 2 324 l 7 319 l 2 314 l -17 319 l -30 332 l 7 364 q 31 375 73 382 q 103 372 163 353 l 179 340 l 176 337 l 189 330 q 199 301 208 293 l 205 279 l 213 266 q 221 270 263 348 l 268 351 l 268 359 l 271 359 l 279 369 l 279 374 l 300 398 l 316 395 l 318 401 q 328 389 337 385 q 356 358 355 345 l 337 345 l 318 335 l 310 316 l 300 308 l 300 301 l 295 301 q 293 297 260 261 q 253 250 231 229 l 231 214 q 234 202 234 203 l 223 187 q 227 170 226 161 q 235 131 255 103 l 255 92 l 260 82 q 270 73 284 69 l 297 69 q 313 76 326 80 q 339 89 346 99 q 354 100 366 106 l 367 112 l 373 115 l 374 119 l 383 128 l 388 129 z"},")":{"x_min":0,"x_max":450,"ha":450,"o":"m 296 262 q 294 250 282 230 l 273 233 l 273 227 q 268 208 253 157 q 251 154 245 143 q 229 113 229 109 q 223 92 213 53 q 203 39 186 16 q 186 14 183 6 q 173 -14 165 -37 l 160 -37 l 140 -60 l 147 -66 l 138 -69 l 138 -75 l 126 -75 l 126 -66 l 117 -69 l 117 -60 l 101 -46 l 117 1 l 126 12 l 126 18 l 129 21 l 190 175 l 181 184 l 181 198 l 181 198 l 185 208 l 186 211 q 186 213 190 225 q 205 269 205 310 q 205 312 204 317 l 208 323 q 207 341 207 349 q 207 385 216 409 l 222 393 l 228 427 l 220 436 l 211 427 l 213 425 l 204 421 l 193 450 l 193 471 q 179 498 179 521 q 179 524 179 531 l 188 523 q 178 560 147 624 q 120 680 117 688 q 79 710 57 751 l 74 744 l 77 746 l 85 746 q 112 733 164 681 q 212 631 227 604 l 229 592 q 248 571 267 524 q 286 478 287 450 l 291 445 q 291 442 292 439 q 292 437 294 401 q 296 381 296 370 q 296 365 296 358 l 291 358 l 291 311 l 282 311 l 279 317 l 279 297 q 284 278 287 273 z"},"&":{"x_min":0,"x_max":873,"ha":873,"o":"m 858 98 q 855 82 845 58 l 837 53 l 835 40 l 827 37 l 827 32 q 809 18 779 5 q 768 4 754 2 q 733 0 721 0 q 707 0 670 14 q 640 26 637 26 l 632 42 l 616 42 l 592 61 l 590 53 l 529 111 l 529 113 l 508 124 l 505 140 l 492 148 l 487 145 l 489 137 q 454 166 442 187 q 423 191 385 237 q 358 268 342 274 q 326 300 315 308 l 313 322 l 286 353 l 289 330 l 260 361 l 242 356 l 239 351 l 228 345 l 223 351 q 216 336 194 322 l 194 311 l 197 308 l 170 290 l 157 272 l 157 261 l 149 264 l 136 256 l 136 243 l 147 216 l 141 216 l 141 198 l 133 195 l 134 191 q 136 181 136 177 l 144 163 l 160 153 l 162 127 l 160 127 l 157 124 l 173 87 l 184 76 l 184 74 l 170 76 l 181 66 l 184 66 l 236 29 q 245 28 263 24 q 291 25 326 34 l 336 45 l 360 42 q 362 54 384 76 l 376 113 l 371 116 q 355 168 355 200 q 335 221 288 221 q 281 221 265 219 q 268 195 268 171 l 268 170 q 266 155 265 145 l 284 116 l 294 111 q 306 124 310 150 l 286 174 l 302 195 l 331 179 l 331 166 l 336 153 l 336 129 l 313 105 l 310 95 l 292 98 l 281 90 l 223 119 l 202 150 l 194 182 l 202 219 l 205 221 l 202 229 l 207 232 l 213 229 l 218 240 l 213 243 l 223 243 l 234 250 l 263 253 l 265 256 l 273 256 l 278 253 l 281 256 l 321 253 l 334 237 l 368 224 q 376 204 376 192 q 376 190 376 187 q 389 163 389 150 l 397 142 q 399 134 405 127 l 405 84 q 397 76 394 61 l 389 58 l 394 50 q 392 34 376 11 q 358 11 339 0 q 329 1 322 1 q 297 1 271 -8 q 218 -10 149 42 l 149 47 l 144 58 l 128 53 q 83 85 73 108 l 75 113 l 70 124 l 73 134 q 60 158 60 193 q 60 237 78 261 l 89 269 q 90 276 99 285 l 104 285 l 97 290 l 155 337 l 160 335 l 202 372 l 202 366 l 210 366 l 231 377 l 228 393 l 231 398 l 215 419 q 214 438 186 485 q 181 518 181 527 q 181 536 186 551 l 194 548 q 194 559 202 575 q 209 591 210 598 l 273 630 l 305 630 l 307 617 q 333 604 376 572 l 384 556 l 381 546 l 387 543 l 384 535 l 389 530 l 376 519 l 376 498 q 376 495 379 477 l 365 459 l 358 464 q 334 439 310 409 l 321 409 l 315 398 l 315 395 q 326 389 339 377 l 347 374 q 358 367 389 319 l 387 308 l 392 308 l 400 287 l 405 285 q 405 285 405 285 l 407 282 l 407 281 l 408 280 q 410 277 440 251 q 475 223 485 215 q 514 197 539 190 l 563 156 l 584 145 l 587 137 l 595 137 l 597 127 l 608 124 l 605 113 l 645 98 l 661 66 l 684 55 l 700 34 q 710 34 721 29 l 721 37 l 729 29 l 758 21 l 795 40 l 814 74 l 816 87 l 811 108 l 793 127 l 745 116 l 737 124 l 750 142 l 795 161 l 829 137 l 840 116 l 848 113 l 851 103 z m 358 522 l 326 569 q 311 562 289 562 l 286 554 l 268 546 l 255 522 l 255 509 l 249 498 l 255 488 l 252 480 l 257 459 l 281 440 l 289 438 l 289 435 l 297 438 l 302 435 l 305 446 l 310 446 q 333 473 334 496 l 342 509 l 347 504 l 355 504 z"},"_":{"x_min":0,"x_max":500,"ha":500,"o":"m 232 -173 l 235 -181 q 238 -180 239 -180 q 246 -180 255 -186 l 264 -181 l 271 -188 l 303 -166 l 320 -178 q 337 -177 354 -166 l 359 -170 l 365 -173 l 375 -170 l 376 -173 l 382 -170 l 394 -175 l 404 -170 l 417 -175 l 426 -173 l 431 -178 l 442 -178 l 442 -173 l 449 -175 q 459 -167 461 -160 l 484 -170 l 493 -170 l 498 -167 l 502 -173 l 505 -139 l 491 -128 q 486 -129 484 -129 q 475 -129 458 -125 q 444 -123 435 -123 q 429 -123 417 -126 q 403 -131 387 -131 q 377 -131 376 -131 q 357 -129 355 -130 l 343 -135 l 320 -133 l 310 -139 l 301 -137 l 288 -139 q 283 -139 256 -134 l 253 -137 q 245 -137 231 -134 q 217 -131 208 -131 q 202 -131 189 -135 q 176 -140 160 -140 q 152 -140 128 -139 q 62 -147 59 -146 q 46 -146 29 -142 l 26 -145 l -3 -160 l 8 -189 q 11 -188 12 -188 q 19 -188 28 -194 l 37 -189 l 44 -197 l 76 -174 l 93 -187 q 110 -186 127 -174 l 132 -179 l 138 -181 l 148 -179 l 149 -181 l 155 -179 l 167 -184 l 177 -179 l 190 -184 l 199 -181 l 204 -187 l 215 -187 l 215 -181 l 222 -184 q 228 -179 232 -173 z"},"v":{"x_min":0,"x_max":418,"ha":418,"o":"m 468 377 l 452 380 l 455 388 l 447 393 l 441 388 l 439 390 l 439 393 l 426 390 l 420 385 q 403 380 386 382 l 383 377 l 373 369 l 360 366 q 358 364 329 326 q 309 301 302 282 l 302 272 l 289 264 l 291 232 q 254 105 231 69 l 231 55 l 233 53 l 223 13 q 214 9 204 -3 l 194 -3 l 191 -8 l 186 -8 l 180 -11 l 175 -11 l 173 -16 l 175 -24 l 162 -24 l 162 -29 l 154 -29 l 154 -18 q 154 -17 156 -10 q 157 -4 157 -3 l 154 8 l 149 8 l 146 16 l 149 58 q 130 94 133 119 q 125 126 123 147 q 122 162 120 177 q 117 184 112 198 q 86 283 78 330 l 46 366 l 33 369 l 28 366 l 25 361 l 20 359 l 14 361 l 12 359 l 6 359 q -2 354 -9 343 l -20 345 l -20 340 l -28 332 q -31 342 -30 345 l -28 348 l -23 348 l -28 356 l -20 361 l -20 366 q -16 375 7 384 q 27 393 38 393 q 60 393 96 385 q 114 374 130 348 l 130 343 l 141 327 l 141 314 l 149 303 l 146 298 l 154 285 l 154 261 q 162 250 162 224 l 178 200 l 175 187 l 178 174 l 175 171 q 173 151 173 113 l 186 82 q 201 110 204 134 l 202 148 q 207 158 208 177 q 209 195 212 203 l 220 214 q 221 228 228 243 l 231 243 l 233 253 l 246 256 l 246 264 l 252 264 q 253 273 257 290 l 249 298 l 260 311 l 260 322 l 273 340 l 281 340 l 281 335 l 291 337 l 312 372 l 306 381 l 320 393 l 331 395 l 352 409 l 352 406 l 360 411 q 371 409 407 422 q 432 420 460 409 l 463 403 l 455 403 l 465 395 q 469 384 468 377 z"},"O":{"x_min":0,"x_max":560,"ha":560,"o":"m 530 509 l 520 482 q 527 427 525 406 l 528 398 l 525 393 l 520 393 l 512 366 l 496 345 l 488 274 l 494 272 q 496 252 496 240 q 496 235 494 226 q 491 215 491 211 l 483 211 l 483 200 l 470 200 q 471 198 471 196 q 471 194 449 124 l 454 119 l 449 111 l 438 108 l 428 92 l 417 90 l 409 74 l 407 45 l 396 42 l 391 45 l 385 24 l 380 24 l 375 29 l 380 40 q 367 30 359 8 l 335 -13 q 335 -13 259 -13 q 229 -13 178 8 q 130 27 103 47 l 66 95 l 72 103 l 69 119 l 56 132 l 48 134 q 42 146 36 177 q 30 207 30 219 q 30 253 40 335 q 40 337 44 351 q 48 364 48 366 q 48 415 37 432 q 48 452 64 498 q 70 484 82 477 l 85 482 l 82 504 l 72 509 l 74 519 l 80 525 l 80 519 l 90 538 l 95 540 l 95 548 l 98 556 l 103 559 q 125 594 124 604 l 132 617 l 148 620 l 161 630 l 172 659 l 193 662 l 211 672 l 214 678 l 217 675 l 222 678 l 248 664 l 251 656 l 256 651 l 272 656 l 272 659 l 338 691 q 355 691 394 684 q 429 677 449 678 q 478 658 491 634 q 501 616 512 575 q 512 568 515 554 q 521 540 530 509 z m 491 451 q 480 474 478 511 q 476 549 472 556 l 475 585 q 458 605 457 625 l 441 641 l 388 662 l 364 662 q 345 649 335 649 l 314 630 l 306 630 l 293 622 l 288 606 l 277 596 l 280 588 q 271 569 262 562 q 254 543 256 511 q 257 475 254 461 l 256 453 l 251 430 l 246 427 q 250 399 269 380 l 285 374 q 310 387 328 422 q 346 457 343 485 l 327 496 l 317 488 l 320 480 q 318 467 312 456 l 322 443 l 312 427 l 304 427 q 285 437 280 446 l 275 461 l 280 501 l 291 511 l 301 533 l 306 538 l 309 533 l 312 535 l 354 533 l 372 517 q 367 503 366 480 q 363 451 362 443 q 361 438 355 422 q 351 410 351 401 l 322 366 l 314 364 l 309 356 q 276 356 254 372 q 231 392 209 435 q 208 441 199 480 q 193 507 193 525 q 193 550 217 604 l 217 609 l 240 641 l 225 630 l 222 622 l 217 622 l 198 593 l 188 598 l 175 596 q 158 559 159 535 l 146 511 l 143 482 l 146 472 l 140 456 l 148 432 l 169 417 l 169 406 q 169 403 166 395 q 163 386 164 382 l 153 366 l 143 364 l 140 372 l 135 372 l 132 377 l 130 377 l 130 374 l 119 377 l 135 335 q 130 324 127 302 q 124 279 119 269 l 117 285 l 106 279 l 103 256 l 114 240 l 111 229 l 114 219 l 111 214 l 114 200 l 109 187 l 114 158 l 119 153 l 127 132 l 124 132 l 132 121 l 135 103 q 165 67 180 40 l 180 34 q 198 19 259 0 l 298 3 q 328 17 362 58 l 356 66 q 374 91 375 103 l 391 95 q 416 123 425 166 l 436 177 l 449 208 q 448 220 454 237 l 443 240 l 454 261 l 454 269 q 459 305 465 341 q 474 389 488 409 z"},"(":{"x_min":0,"x_max":450,"ha":450,"o":"m 400 732 l 391 712 l 377 706 l 360 683 l 354 680 l 353 679 q 345 668 342 663 l 333 660 l 308 631 l 305 631 l 296 601 l 293 599 l 299 592 l 273 546 l 269 553 l 264 544 q 265 515 250 495 l 258 454 l 255 436 q 262 417 261 408 l 269 404 l 269 381 q 269 377 266 370 q 264 363 264 358 q 264 356 264 353 l 258 346 l 264 341 l 261 312 l 250 298 l 253 280 l 261 266 l 261 236 l 258 236 q 262 206 262 190 q 262 187 261 181 l 264 176 q 264 171 264 168 q 264 151 278 121 q 296 84 296 74 q 313 46 333 16 q 350 0 383 -42 l 383 -46 l 388 -48 l 395 -60 l 386 -69 l 372 -71 q 270 -14 247 40 q 243 53 239 80 q 237 102 232 112 l 227 117 l 218 117 l 221 89 q 188 145 145 268 l 145 271 l 146 287 l 147 311 l 147 320 l 148 328 q 149 364 149 368 q 149 376 140 413 l 151 416 l 163 451 l 157 465 l 151 463 q 153 493 162 511 q 188 561 252 630 q 262 638 273 649 q 284 668 290 677 q 310 706 354 738 l 395 738 z"},"C":{"x_min":0,"x_max":608,"ha":608,"o":"m 573 506 l 567 504 l 565 482 l 559 475 l 559 472 q 547 454 541 424 l 536 422 l 536 411 l 530 409 l 525 401 q 474 362 435 364 l 409 372 q 384 401 370 446 l 375 480 q 386 496 388 504 l 401 514 l 446 522 l 449 517 l 457 519 q 474 504 478 493 l 480 496 l 483 488 l 501 480 l 488 456 l 470 456 l 464 459 l 467 469 l 464 480 l 449 477 l 435 480 q 421 476 414 469 l 409 469 l 396 448 l 399 443 l 404 414 l 420 398 q 435 393 443 393 q 484 393 501 406 l 515 424 l 520 424 l 520 432 l 525 435 l 536 461 l 536 485 q 529 502 521 520 q 512 538 499 551 l 499 556 l 493 556 l 491 580 l 478 593 q 467 600 454 601 l 451 609 l 443 609 l 435 617 l 380 630 l 364 627 l 362 622 l 348 609 q 329 613 277 591 l 272 593 l 264 585 l 254 585 l 254 580 q 234 560 225 556 q 215 548 199 529 q 182 511 172 485 l 167 482 l 167 467 l 159 453 l 159 443 q 146 411 124 401 q 121 395 114 382 q 113 370 109 345 q 113 332 115 294 q 118 262 127 243 l 127 237 l 132 235 q 140 212 140 190 l 145 185 l 148 163 l 156 150 l 169 142 l 174 127 l 188 111 l 190 98 l 196 95 l 209 76 q 252 71 283 34 q 310 30 356 18 l 359 26 l 375 32 l 396 26 l 393 16 q 403 17 419 25 q 435 33 443 34 l 446 40 l 457 42 q 466 48 472 69 l 491 74 l 493 82 l 504 90 q 506 94 512 100 q 517 107 517 129 l 522 134 l 530 134 l 536 163 l 525 190 l 517 195 l 507 195 l 483 214 l 475 216 l 478 221 q 440 223 401 211 l 404 208 q 401 206 380 174 l 375 171 q 380 133 380 134 l 393 124 l 414 124 l 433 137 l 438 163 l 446 171 l 459 171 l 462 145 l 457 145 l 454 121 l 441 113 q 436 102 422 92 l 409 92 q 390 97 385 100 l 370 121 l 359 161 l 370 206 l 380 211 q 388 227 425 245 l 486 245 l 525 227 l 525 224 q 546 218 554 219 l 562 211 l 562 206 l 570 192 l 562 187 l 567 182 l 567 153 q 567 127 536 79 l 530 76 l 530 71 l 483 42 l 480 42 l 480 34 q 458 20 412 -3 l 399 -3 l 396 -5 l 362 -5 q 347 -2 343 0 l 327 -3 l 322 3 q 303 -1 292 0 q 269 13 254 13 l 248 18 q 235 21 218 30 q 197 42 190 45 l 182 61 q 165 66 145 90 q 129 110 114 129 q 106 134 93 145 q 55 181 56 206 l 53 206 l 47 233 l 51 248 q 50 263 48 293 q 45 303 40 322 l 35 324 l 40 385 l 56 419 l 53 427 l 61 451 l 87 472 q 92 496 101 507 q 114 526 116 530 l 135 535 q 148 550 167 580 q 187 595 227 620 q 238 623 254 627 q 268 633 296 646 l 304 646 q 318 667 370 667 q 363 667 415 659 q 429 645 454 643 l 470 627 q 479 627 491 617 l 491 609 l 504 601 l 509 572 l 520 575 l 530 567 l 538 567 l 549 556 q 551 547 559 533 q 567 517 573 514 z"},"W":{"x_min":0,"x_max":884,"ha":884,"o":"m 896 456 l 893 435 l 890 435 l 893 421 q 880 396 880 385 l 861 371 l 859 353 l 848 342 l 845 345 l 830 337 q 812 344 774 382 l 774 416 l 777 419 l 782 440 l 806 461 l 830 466 l 838 461 l 835 453 l 827 448 l 827 437 l 824 437 l 814 421 l 809 377 l 824 369 l 845 374 q 852 380 858 398 q 869 429 869 450 q 869 479 848 511 l 830 527 l 816 532 l 793 501 l 787 498 l 782 487 l 772 479 q 767 460 751 445 l 748 435 q 729 419 722 392 q 724 385 724 384 q 724 371 693 290 q 690 281 685 261 l 687 258 q 683 188 679 182 q 676 176 674 171 q 674 146 666 97 l 669 89 l 664 73 l 669 71 l 666 18 l 669 13 l 669 -11 l 664 -14 l 658 -11 l 648 -14 l 635 -3 l 629 -3 l 616 5 l 616 13 l 600 13 l 590 26 l 584 29 l 584 39 l 582 42 q 579 69 579 89 l 574 102 l 582 105 l 582 124 l 569 145 q 570 152 570 157 q 570 172 565 195 q 558 229 558 237 l 558 279 l 558 287 q 554 296 550 313 q 543 355 537 395 q 530 327 519 297 q 518 295 511 274 q 506 260 497 234 q 498 229 495 213 l 494 211 q 470 162 456 81 q 455 78 445 29 l 450 29 l 447 13 l 450 13 l 450 -3 l 434 -16 l 421 -6 l 410 -6 l 395 2 q 381 20 371 29 l 363 31 l 360 50 l 358 52 l 363 76 l 358 84 l 366 89 l 366 100 l 355 124 l 360 129 q 345 202 345 219 q 345 227 347 232 l 342 234 q 341 242 339 274 l 339 274 q 339 277 342 292 l 326 363 l 331 366 q 331 386 326 398 l 334 403 l 331 414 l 334 416 l 339 416 l 334 432 l 337 435 l 321 487 l 329 516 l 321 548 l 305 561 q 296 603 297 619 q 281 644 279 659 l 281 659 l 271 693 l 250 717 q 208 735 165 735 q 155 732 139 727 l 139 722 l 118 706 q 114 690 99 671 q 84 652 83 648 q 67 617 57 563 q 55 553 55 548 q 68 502 81 482 l 81 477 l 123 466 l 136 469 l 165 490 l 176 490 q 197 503 210 532 l 215 559 l 221 566 q 216 594 202 619 l 178 638 l 142 638 l 134 630 l 126 630 l 110 609 q 103 580 94 566 l 97 545 l 110 530 l 128 527 l 139 530 l 149 548 q 148 550 148 552 q 148 561 153 577 q 155 584 155 592 q 155 594 155 598 l 147 601 l 144 606 l 139 606 l 139 611 q 168 605 186 588 q 184 566 184 558 q 184 556 185 553 q 185 552 185 551 q 186 548 186 548 l 184 535 q 167 524 152 501 q 141 500 129 498 l 128 498 l 128 498 q 129 498 129 498 q 129 498 130 498 l 130 499 l 130 499 q 130 499 130 499 q 126 501 110 502 q 107 502 102 503 q 87 513 76 530 l 73 530 l 65 543 q 67 582 89 611 l 91 622 q 116 660 180 660 q 181 660 192 659 q 214 636 235 611 q 237 610 252 545 l 229 477 l 200 448 l 189 450 q 167 435 155 432 l 144 432 l 139 429 l 99 429 l 91 435 l 81 437 q 76 440 68 448 l 60 450 l 57 445 l 31 479 q 25 497 25 508 q 25 510 26 514 l 20 522 l 15 543 l 31 619 l 36 619 l 41 630 l 47 632 l 47 643 q 64 684 110 735 l 197 756 l 234 751 l 244 743 l 271 735 l 273 730 l 284 727 l 287 719 l 297 711 l 300 711 l 300 704 l 302 704 l 318 680 l 321 680 q 338 661 347 640 l 358 632 l 363 619 l 360 614 l 368 609 q 371 535 384 511 l 392 501 l 405 450 l 400 429 q 400 417 408 388 q 416 359 416 337 q 416 331 413 324 l 416 319 l 416 314 q 413 298 413 294 q 413 288 415 272 q 416 261 416 255 l 416 250 l 416 247 l 410 247 l 403 226 q 404 212 417 185 q 428 162 429 158 l 424 150 l 424 131 q 424 130 424 129 l 425 128 q 426 126 426 124 q 440 148 474 254 l 476 263 l 474 321 q 479 332 492 377 q 519 469 519 493 q 519 526 497 590 q 497 596 497 599 q 497 631 513 656 l 532 664 l 542 664 l 548 669 l 555 667 l 553 656 l 561 651 l 563 630 l 574 614 l 571 595 q 553 574 553 545 l 555 540 l 561 540 l 558 506 l 566 490 l 566 458 l 563 458 l 563 435 q 563 431 566 411 l 569 406 l 577 414 q 579 385 590 369 l 587 363 l 595 319 l 592 311 l 606 287 q 605 283 605 281 q 605 269 611 253 q 605 231 605 210 q 605 204 606 195 l 616 192 q 616 160 635 97 q 635 101 639 121 q 645 154 650 167 q 653 174 653 176 l 669 356 l 674 353 l 671 385 l 687 414 l 695 419 q 701 471 722 498 q 740 523 778 544 q 784 547 793 551 l 809 551 q 835 551 864 530 q 871 504 885 493 z m 548 590 l 537 627 l 534 624 l 534 632 l 524 624 l 524 590 l 537 561 z"},"A":{"x_min":0,"x_max":881,"ha":881,"o":"m 841 84 l 835 84 l 838 61 l 833 42 l 830 42 l 822 16 l 812 13 l 809 5 q 784 -8 740 -8 q 733 -8 719 -8 q 661 9 627 79 q 625 106 619 121 l 611 121 q 592 166 585 203 l 590 208 l 588 227 l 580 229 l 580 253 l 569 250 l 569 258 q 547 267 525 267 q 520 267 511 266 l 493 256 l 466 261 l 445 274 l 419 264 l 398 272 l 387 266 l 386 262 l 382 248 l 376 228 l 374 221 q 364 204 350 171 l 356 156 l 340 116 l 329 105 l 327 87 q 318 77 311 55 l 284 26 l 255 21 l 250 13 l 242 11 l 234 5 l 221 5 l 195 -8 l 192 0 l 174 -5 l 155 0 l 153 5 l 145 3 l 110 13 q 104 21 85 27 q 67 33 63 37 q 60 40 36 57 l 31 61 l 10 111 l 10 145 q 23 170 29 206 l 34 206 l 34 211 l 42 211 l 60 245 l 84 256 l 87 269 q 93 266 100 266 q 106 266 117 268 q 129 269 137 269 q 163 269 182 258 l 205 232 l 211 248 l 224 256 l 232 279 l 247 285 l 255 295 q 274 304 279 311 l 303 311 l 308 314 l 345 301 l 369 306 q 371 322 385 354 q 398 385 398 405 q 398 405 398 414 q 404 421 423 462 q 441 500 443 511 l 469 546 l 477 583 l 474 598 q 479 611 479 618 q 479 620 479 622 q 485 628 498 662 q 554 662 588 667 q 593 662 603 662 q 608 662 617 664 l 619 659 l 632 659 l 632 654 l 630 651 l 630 646 q 621 637 609 635 l 603 627 l 595 598 l 609 569 l 609 540 q 609 528 601 509 l 617 488 l 617 480 l 619 482 l 624 438 l 619 427 l 640 388 l 630 369 q 630 347 635 337 l 630 314 l 643 285 l 648 290 l 667 285 l 725 295 q 733 299 754 315 q 775 333 777 340 l 783 337 l 777 314 l 780 303 l 785 298 l 785 293 l 772 282 l 775 272 l 769 266 l 743 256 l 725 256 q 711 246 701 245 q 697 252 682 258 l 656 258 l 651 256 l 646 250 l 653 240 q 657 226 661 200 l 675 177 l 672 163 q 691 126 698 87 l 711 71 l 717 69 l 719 45 q 727 37 748 18 l 767 13 l 788 21 l 801 34 q 807 48 807 75 q 807 83 806 100 l 798 108 l 793 108 q 781 95 777 79 l 764 74 l 767 53 l 775 47 l 780 55 l 785 50 l 785 42 l 783 40 l 767 40 q 757 42 743 47 q 740 67 740 79 q 740 83 740 87 l 735 87 l 735 98 q 740 116 743 121 l 748 121 l 751 129 l 772 142 l 796 145 l 814 137 l 814 119 l 825 116 l 841 90 z m 572 345 l 569 348 q 545 409 545 467 l 551 467 l 551 485 l 556 490 l 556 511 q 548 515 540 525 l 537 569 l 540 575 l 516 620 l 514 588 l 511 585 l 501 535 q 480 513 464 469 l 456 464 q 437 419 435 385 l 427 372 q 427 370 427 368 q 427 349 408 316 l 408 308 l 421 301 l 432 301 l 443 306 l 450 298 q 480 296 498 290 l 516 293 l 535 285 q 545 288 554 288 q 558 288 561 287 l 561 314 l 566 319 q 567 323 567 325 q 569 345 572 345 l 572 345 l 572 345 l 572 345 z m 356 272 l 354 272 q 343 272 333 274 q 319 277 311 277 q 305 277 294 274 q 288 273 282 272 l 271 261 q 269 249 247 227 q 247 222 244 210 q 240 200 240 192 l 232 179 l 224 119 l 213 103 l 192 98 l 176 87 q 107 101 102 156 l 105 182 q 122 196 126 206 l 129 206 l 131 214 l 139 216 l 147 206 l 142 192 l 150 177 l 145 177 l 145 163 l 134 158 l 131 150 l 145 124 l 150 124 l 153 116 l 182 119 l 197 150 l 187 200 q 178 201 163 216 l 166 227 l 134 232 q 99 222 90 209 q 80 198 68 192 l 68 187 l 60 171 q 60 135 55 113 l 68 87 l 79 82 l 87 61 l 137 29 q 152 26 154 26 q 158 26 184 29 q 211 60 245 71 l 232 71 l 234 82 l 245 79 q 264 91 266 100 l 261 103 q 279 131 305 163 l 300 174 l 311 179 z"},"f":{"x_min":0,"x_max":410,"ha":410,"o":"m 505 646 l 492 638 q 484 611 487 593 l 469 575 l 466 562 l 461 564 l 432 540 l 426 543 l 426 535 l 418 530 l 400 527 q 339 556 326 580 l 321 609 q 328 638 345 672 l 363 691 l 395 699 l 413 683 q 421 667 421 635 q 418 625 416 620 l 418 612 l 411 606 l 400 606 l 395 612 l 395 635 l 400 643 l 400 656 q 400 657 398 663 q 397 669 397 670 q 379 670 363 659 q 356 643 353 617 l 358 598 l 355 588 l 374 564 l 403 559 q 436 582 450 627 l 453 620 l 458 620 l 469 667 l 463 678 l 455 675 q 458 711 458 712 q 458 714 455 741 l 440 757 q 419 770 382 767 l 382 770 l 371 775 l 368 765 l 360 762 l 355 765 l 350 751 l 345 757 l 339 741 l 337 746 l 329 743 l 326 736 l 331 736 q 316 712 302 672 q 300 663 297 646 q 296 642 292 634 q 288 626 287 622 q 287 614 284 598 q 276 579 268 540 q 271 533 273 517 l 279 514 q 281 506 281 501 q 281 484 274 455 q 267 421 266 409 q 267 388 263 345 l 258 337 l 263 335 l 266 324 l 260 314 q 274 302 300 308 l 302 301 l 374 303 l 403 316 l 400 322 l 416 332 l 421 340 l 411 351 l 397 337 l 389 353 l 392 366 l 403 364 l 413 369 q 422 358 437 351 l 434 324 l 421 314 l 421 308 l 408 298 l 395 295 l 389 290 l 389 282 l 384 282 l 379 272 l 316 264 l 316 272 l 308 279 l 308 282 l 273 282 l 263 264 q 266 237 266 237 q 262 217 260 211 l 263 198 q 257 187 250 148 l 242 137 l 244 129 l 239 121 l 242 105 l 255 103 l 258 95 l 258 74 l 250 63 q 244 33 234 16 l 237 8 l 234 -8 l 237 -13 l 218 -74 l 213 -71 q 208 -91 210 -124 l 208 -124 l 194 -161 l 186 -158 l 181 -182 l 184 -190 l 184 -206 l 189 -216 q 185 -268 176 -282 l 168 -287 l 171 -290 l 165 -295 l 157 -311 l 150 -314 l 147 -322 l 128 -335 l 123 -345 q 98 -362 52 -377 l 47 -377 l 39 -382 q 24 -377 18 -377 q 16 -377 -38 -380 l -51 -366 l -75 -356 l -109 -324 q -118 -307 -123 -284 q -126 -264 -130 -243 q -122 -192 -111 -169 l -98 -161 l -96 -153 l -90 -150 l -90 -145 l -77 -134 l -72 -134 q -62 -125 -43 -121 q -23 -130 -9 -127 l 10 -134 l 15 -142 l 39 -153 l 60 -177 l 57 -198 l 63 -203 l 63 -214 l 68 -221 l 63 -229 l 65 -237 l 63 -243 l 65 -245 l 65 -256 q 55 -276 55 -285 l 39 -301 l 20 -303 l 18 -301 l 5 -301 l -9 -311 l -30 -306 l -51 -279 q -51 -276 -54 -264 q -56 -253 -56 -248 q -56 -247 -53 -214 l -46 -203 l -38 -200 l -35 -214 l -40 -235 q -32 -250 -24 -279 l -19 -272 l -9 -285 l -1 -274 l 12 -266 l 23 -248 l 26 -232 q 22 -216 12 -206 l 10 -211 l 10 -177 l -1 -166 l -14 -169 l -32 -156 l -59 -156 q -63 -168 -80 -185 q -89 -207 -85 -235 l -88 -240 l -82 -250 q -85 -263 -69 -311 l -35 -356 l -22 -364 l 12 -366 l 18 -361 l 26 -361 l 28 -356 l 34 -359 q 48 -354 63 -356 l 63 -359 q 70 -354 76 -345 l 92 -337 l 89 -327 l 107 -319 l 121 -295 l 126 -293 l 136 -264 l 142 -258 l 139 -253 l 144 -250 l 147 -261 l 150 -261 q 152 -254 152 -240 q 152 -239 151 -236 q 150 -233 150 -232 l 142 -227 l 134 -235 l 131 -224 q 139 -184 139 -161 q 139 -152 138 -135 q 136 -117 136 -108 q 136 -89 148 -55 q 160 -21 160 -3 q 160 4 155 32 l 163 61 l 165 58 l 171 74 l 168 82 l 171 84 l 176 79 l 181 82 l 197 111 l 192 113 l 179 113 q 186 175 184 198 q 197 220 197 235 l 192 258 l 186 256 l 186 277 l 176 277 l 176 285 l 165 287 l 157 293 l 155 285 q 154 285 149 286 q 145 287 144 287 l 89 285 l 73 277 l 68 277 l 68 274 l 60 272 q 50 260 49 253 l 41 253 l 39 229 l 44 221 l 41 216 l 49 203 l 55 203 l 63 200 l 60 187 l 52 187 l 47 182 l 44 185 l 39 182 l 10 198 l 2 216 l 10 227 l 18 261 q 51 293 78 304 q 102 314 150 319 l 150 322 l 186 324 q 184 352 184 366 q 184 366 194 406 l 200 398 l 205 406 l 202 419 q 208 440 211 473 q 213 500 215 527 q 221 543 231 577 q 232 598 247 643 l 247 651 q 252 657 258 678 q 270 685 280 710 q 292 741 302 754 q 322 780 360 794 l 366 780 l 382 786 l 392 786 l 397 794 l 408 796 q 432 790 442 780 l 447 772 l 469 757 l 466 754 l 474 746 l 476 736 l 495 709 z"},"Q":{"x_min":0,"x_max":660,"ha":660,"o":"m 685 -90 q 670 -129 672 -137 l 666 -142 l 661 -153 l 648 -166 l 648 -174 q 613 -185 595 -182 l 593 -185 l 590 -182 l 579 -187 q 568 -179 550 -179 q 531 -166 492 -142 l 477 -119 l 477 -111 q 459 -104 445 -90 l 442 -82 l 448 -69 l 437 -50 l 448 -50 l 445 -24 l 427 -29 l 424 -26 l 419 -34 q 415 -21 403 0 l 390 -5 l 376 -3 l 371 -8 l 371 -13 q 331 -14 282 9 q 242 32 202 55 q 197 59 187 66 l 171 69 l 168 71 l 168 74 l 158 76 q 117 112 68 219 q 37 208 -1 163 l -6 150 l -14 148 l -8 116 l 10 103 l 23 105 l 28 108 l 26 119 l 36 119 q 40 126 44 142 l 31 158 l 34 171 l 47 163 l 55 163 l 57 158 l 57 140 l 63 127 l 71 127 q 66 110 57 98 q 46 93 34 69 l 15 61 l 7 63 q -12 78 -27 108 l -24 124 l -30 134 q -26 153 -27 163 l -22 166 l -24 177 l -14 190 l -1 192 q 16 208 16 227 q 16 229 15 232 l 47 253 l 57 250 l 63 256 q 62 283 55 314 l 60 314 l 71 327 q 63 347 63 359 l 55 353 l 55 377 q 55 382 58 396 q 61 409 60 417 l 81 467 l 86 469 l 86 509 l 113 575 l 142 606 l 144 612 q 151 623 172 641 q 193 658 200 670 l 231 688 l 242 685 l 250 691 l 255 685 l 271 683 l 276 691 l 289 701 l 300 699 l 303 701 l 340 696 l 345 693 l 358 699 q 367 691 395 688 l 408 691 q 450 682 508 641 q 508 621 527 588 l 535 585 l 540 598 q 556 570 569 556 q 568 531 577 516 q 583 504 590 493 l 606 440 l 590 440 l 601 411 l 601 403 l 595 393 l 598 380 l 582 395 l 577 393 q 577 379 583 353 q 590 327 590 316 q 590 270 585 256 l 582 256 l 577 227 q 567 216 566 203 l 556 208 q 545 185 550 142 l 529 108 q 521 104 511 92 l 511 90 l 506 87 l 490 50 q 472 38 469 29 l 469 21 l 463 21 q 478 -7 482 -29 q 496 -40 514 -63 l 516 -74 l 521 -76 l 524 -87 l 527 -87 l 543 -129 q 555 -133 572 -150 l 598 -150 l 627 -132 l 643 -111 q 625 -113 614 -113 q 594 -113 579 -103 q 568 -82 553 -74 l 553 -55 l 595 -8 l 606 -3 l 608 -8 l 616 -8 l 635 3 q 638 -5 637 -8 l 645 -11 l 645 -18 l 664 -21 q 663 -42 677 -63 l 677 -84 z m 537 388 q 533 414 527 419 l 527 424 l 519 417 l 514 488 q 495 531 477 573 q 460 608 424 651 l 405 649 l 382 656 l 382 654 l 324 670 l 316 651 l 308 646 l 292 656 l 271 643 l 268 627 l 266 625 l 260 630 l 250 620 l 231 620 q 228 604 218 593 l 216 575 l 197 572 q 188 556 173 522 q 171 503 158 467 q 160 447 155 427 l 142 427 l 139 424 l 137 411 l 142 411 l 142 401 q 148 393 152 353 l 134 359 l 126 356 l 134 335 l 144 327 l 147 327 q 151 303 150 290 l 155 285 l 179 279 l 189 282 l 192 287 l 224 290 l 231 282 q 272 271 274 272 q 290 254 292 240 l 297 240 l 297 243 l 303 243 q 312 230 332 221 l 332 229 l 334 232 l 345 224 l 350 235 l 353 237 q 373 211 379 192 l 395 187 l 398 182 l 403 182 l 413 177 l 411 137 l 424 113 l 429 113 l 437 100 l 445 95 l 448 90 l 440 84 l 456 63 l 463 61 q 472 74 487 98 q 490 113 498 142 q 508 172 517 202 q 527 235 527 264 q 527 265 521 340 l 535 364 l 532 380 z m 653 -82 q 653 -73 651 -55 l 645 -53 l 637 -58 l 635 -55 l 614 -53 l 598 -71 l 601 -87 l 608 -98 l 624 -100 l 640 -92 l 648 -103 q 653 -88 653 -82 z m 398 29 l 392 53 l 398 63 l 398 76 l 390 92 l 374 95 l 363 111 l 371 129 l 369 142 l 363 134 q 354 141 324 185 l 292 200 l 289 206 q 260 216 239 240 l 221 243 l 218 240 l 195 240 l 195 245 l 171 240 l 171 237 l 152 237 l 166 182 l 163 179 l 158 182 l 155 171 l 160 158 l 173 158 q 177 156 218 95 l 218 79 l 234 82 q 240 69 253 58 l 242 53 q 267 32 311 18 l 342 18 q 339 18 398 29 z"},"w":{"x_min":0,"x_max":659,"ha":659,"o":"m 664 232 q 629 211 580 211 q 576 211 566 213 q 555 216 551 216 l 546 208 q 548 196 548 190 q 548 113 527 76 l 525 76 l 527 71 q 494 43 485 26 q 468 18 432 18 q 432 18 390 32 l 361 58 q 358 72 340 92 q 321 116 316 127 l 311 156 l 303 145 l 298 119 l 287 103 l 287 90 l 274 76 l 274 71 l 266 66 l 251 45 q 218 32 211 32 l 200 37 q 191 49 171 58 q 144 86 131 125 q 125 145 116 203 l 111 203 q 111 195 100 181 q 90 168 90 163 l 79 158 l 79 156 q 70 147 63 137 l 58 137 l 58 132 l 55 129 l 50 129 q 44 120 24 109 q 4 99 -7 98 l -7 117 q 2 119 11 127 l 24 129 l 26 134 l 48 148 l 45 156 l 53 166 l 58 166 l 66 179 l 66 198 l 74 203 l 82 219 l 87 221 l 84 229 q 94 236 95 243 l 106 253 q 108 281 121 295 l 121 311 l 129 330 l 129 340 l 137 343 l 145 351 q 162 354 190 356 l 200 343 l 206 324 l 195 319 l 198 311 l 190 293 l 182 293 l 179 287 l 185 285 l 187 261 l 185 261 l 190 237 l 187 237 l 193 229 l 190 224 q 190 221 187 203 l 193 198 l 177 169 l 174 140 l 185 113 l 187 111 l 195 92 l 195 84 l 206 71 l 203 63 l 214 53 l 229 58 q 232 62 245 69 l 248 74 l 251 74 l 256 87 l 256 95 l 272 119 l 272 121 l 269 124 l 277 137 l 277 142 l 282 148 l 280 150 l 282 153 l 285 150 q 291 174 306 219 l 306 240 q 306 247 303 253 l 309 253 l 306 261 l 311 261 l 309 269 l 322 277 q 336 281 359 279 l 367 269 l 364 266 l 367 261 l 361 243 q 371 215 372 198 l 369 192 l 377 177 l 377 153 l 382 145 l 388 116 l 393 111 l 390 98 l 411 69 l 438 61 l 467 63 l 475 69 q 481 79 489 104 q 496 129 496 140 q 496 161 491 199 q 485 239 485 258 q 471 288 459 298 l 456 308 l 464 314 l 464 316 l 488 324 l 506 322 l 504 319 l 514 316 l 514 308 q 521 303 525 293 l 543 282 l 548 266 q 575 260 591 248 q 617 248 664 240 z"},"-":{"x_min":0,"x_max":446,"ha":446,"o":"m 391 276 l 388 242 l 383 247 l 377 244 l 367 244 l 340 255 q 337 246 325 239 l 317 242 l 317 236 l 304 236 l 298 242 l 288 239 l 272 244 l 261 239 l 246 244 l 240 242 l 238 244 l 227 242 l 219 244 l 214 249 q 193 237 174 236 l 153 249 l 116 226 l 108 234 l 97 229 q 86 234 78 234 q 77 234 73 234 l 61 263 l 95 278 l 98 281 q 129 276 137 276 q 138 276 215 285 q 243 284 252 284 q 273 284 292 289 q 302 292 310 292 q 319 292 342 288 q 355 286 367 286 q 371 286 375 286 z"},"E":{"x_min":0,"x_max":489,"ha":489,"o":"m 447 105 l 429 79 l 423 53 l 405 29 l 394 32 q 385 27 381 16 l 350 -5 l 334 8 l 323 -3 l 310 -8 l 300 -8 l 281 -21 l 249 -12 l 242 -18 q 213 -10 205 -11 q 166 20 128 32 l 120 40 l 104 42 q 89 57 62 87 q 55 105 36 137 l 39 150 l 36 161 l 39 174 q 32 188 32 209 q 32 216 33 221 l 39 232 l 36 237 q 44 260 70 284 l 78 311 q 111 333 126 351 q 147 362 160 364 l 162 372 l 181 377 q 136 422 123 448 l 115 453 q 113 469 102 480 q 99 507 99 509 q 99 512 102 527 l 110 535 l 104 562 l 118 575 l 120 593 q 138 606 147 630 l 155 633 l 170 646 l 189 648 q 222 667 225 668 q 243 676 266 676 q 328 676 347 667 q 401 634 413 601 l 405 580 q 413 532 413 538 q 413 535 410 517 l 413 506 l 405 477 q 376 442 307 419 l 273 432 l 263 446 q 237 458 226 475 q 208 514 207 530 q 212 566 239 593 l 271 609 l 286 609 q 318 609 339 593 l 334 591 l 339 583 l 331 569 l 347 546 l 347 527 l 336 514 l 334 504 l 310 485 l 305 488 l 297 509 l 321 527 q 323 539 323 546 q 323 547 322 551 q 321 555 321 556 q 306 562 302 569 l 300 567 l 292 572 l 276 569 q 264 561 242 527 l 239 511 q 244 486 264 468 q 285 450 310 448 l 342 456 q 363 472 381 498 l 384 498 q 392 550 392 543 q 392 544 389 583 q 387 588 321 632 q 303 635 302 635 q 305 635 228 625 q 187 590 176 559 q 174 550 170 533 q 166 524 160 504 q 162 468 173 443 l 178 440 l 176 424 l 181 422 q 194 398 218 385 l 226 385 l 231 382 l 244 380 l 260 369 l 257 380 l 263 380 l 271 369 l 271 361 l 278 356 l 278 327 l 271 316 q 262 312 255 314 q 241 325 228 327 l 207 319 l 191 322 l 181 308 l 152 290 l 136 248 l 112 221 l 104 200 l 107 190 q 99 166 102 140 q 112 118 115 98 l 123 90 l 131 71 q 187 16 236 8 l 247 11 l 265 3 l 276 8 l 289 8 l 329 26 l 334 45 l 363 58 l 373 71 l 376 90 l 379 90 q 397 121 397 171 q 397 175 394 184 q 391 192 392 198 l 384 208 l 365 206 q 339 191 336 182 l 329 179 l 321 166 l 321 158 l 326 156 l 323 153 l 331 140 l 347 142 l 352 153 l 352 163 l 355 163 l 360 179 l 379 185 l 384 179 l 373 145 l 355 127 l 331 124 l 315 142 l 307 145 q 302 163 289 174 l 294 200 q 302 213 320 224 q 346 239 350 243 l 379 243 q 380 243 386 242 q 393 240 394 240 l 410 227 l 439 171 l 439 158 l 447 145 z"},"s":{"x_min":0,"x_max":382,"ha":382,"o":"m 345 100 q 337 86 337 53 q 328 42 311 18 q 296 9 266 -11 l 226 -18 q 202 -15 152 3 l 137 0 l 113 18 l 102 45 l 102 74 q 102 108 110 119 l 105 121 l 108 129 q 116 135 129 156 q 140 173 163 182 l 166 187 l 168 187 l 179 195 q 214 200 205 200 q 212 200 224 198 q 234 187 250 163 q 248 127 253 105 q 249 93 250 90 l 242 84 l 237 71 l 216 61 l 210 50 l 200 58 l 179 63 l 163 79 l 152 105 l 152 121 l 166 127 q 172 112 179 108 l 176 95 l 179 90 l 187 87 l 189 92 l 200 92 q 210 105 210 150 q 206 172 203 179 l 187 182 l 168 174 l 166 166 l 145 156 l 145 148 l 134 142 l 129 127 l 131 111 l 142 105 l 142 95 l 137 90 l 139 82 l 137 69 l 134 66 l 139 58 l 137 50 l 145 34 l 145 29 q 163 13 184 11 l 192 16 q 197 14 210 11 q 224 11 250 13 l 274 29 q 297 69 297 95 q 297 112 292 190 q 279 200 274 227 l 268 232 q 268 238 256 284 q 245 325 247 332 q 234 352 234 377 l 237 390 l 224 406 q 211 394 210 385 l 203 377 l 197 359 l 189 359 l 187 351 l 179 348 q 171 329 158 303 l 158 293 l 152 287 l 150 277 l 145 272 l 137 253 q 132 247 123 245 q 112 231 108 216 l 102 211 l 94 192 l 87 187 l 84 179 l 84 171 l 76 169 l 65 145 l 58 142 l 56 131 q 39 114 -11 96 l -6 116 q 4 126 18 134 l 15 134 q 23 143 36 161 l 47 169 q 63 188 63 203 q 85 221 110 279 l 113 279 l 113 290 l 121 290 l 123 308 l 137 324 l 139 337 q 151 349 174 388 l 176 388 q 180 402 187 409 l 189 422 l 197 435 q 197 451 208 467 l 208 477 l 216 488 l 213 514 l 216 519 l 216 535 l 221 540 l 232 538 l 237 540 q 261 522 274 522 l 292 501 q 305 465 305 453 q 305 448 303 438 l 295 432 l 297 414 l 303 406 q 301 391 295 377 l 297 369 l 292 366 q 288 355 292 340 l 287 324 l 292 314 l 308 303 l 308 279 q 317 266 319 253 l 311 240 l 313 214 l 319 208 q 326 184 332 179 q 333 167 340 146 q 346 131 346 114 q 346 107 345 100 z"},">":{"x_min":0,"x_max":451,"ha":451,"o":"m 418 242 q 409 237 387 235 q 374 233 369 231 q 359 228 336 217 q 281 189 230 180 l 236 172 l 222 172 l 226 165 l 198 156 l 198 149 q 188 141 161 134 l 133 126 q 131 126 131 126 q 104 111 40 90 l 22 103 l 31 105 l 40 109 l 40 118 q 71 144 156 176 l 156 182 l 166 185 l 166 197 q 177 202 188 208 l 208 208 l 202 211 l 212 216 l 216 226 l 267 243 l 282 243 l 306 254 l 278 266 q 268 280 188 316 l 192 325 q 178 341 166 355 l 142 360 l 138 355 q 104 398 40 418 l 22 437 l 26 437 l 26 443 l 45 437 l 59 437 q 74 427 118 417 q 159 408 166 400 q 167 399 185 386 q 196 378 202 374 q 212 371 236 360 q 251 348 290 325 l 296 314 q 326 291 342 285 l 362 285 z"},"l":{"x_min":0,"x_max":380,"ha":380,"o":"m 410 119 q 398 104 384 90 l 374 86 l 357 65 q 333 60 315 45 q 288 42 287 42 q 257 42 223 66 l 223 69 q 217 79 209 84 l 209 92 l 207 95 l 204 90 l 204 103 l 199 100 l 184 127 l 174 132 l 174 134 l 163 148 l 160 148 l 160 158 l 152 163 q 142 156 137 140 l 137 134 l 131 129 l 129 116 l 113 95 l 110 95 l 108 84 l 73 34 l 71 26 l 44 -5 l 42 -13 l 31 -21 l 29 -27 l 29 -24 l 18 -30 l 13 -37 l -3 -43 q -23 -38 -45 -40 l -50 -27 q -10 -15 52 53 l 55 53 q 57 58 65 66 l 68 76 l 71 76 q 83 92 109 142 q 136 193 137 206 l 131 208 l 116 248 l 118 266 q 112 271 87 337 l 89 343 q 84 383 84 393 q 84 396 85 404 q 87 411 87 414 q 87 414 87 480 l 97 464 l 105 469 l 102 490 l 84 509 q 84 590 100 651 q 113 699 155 772 l 160 775 l 160 780 l 168 780 l 168 788 q 181 797 189 799 l 192 807 l 195 804 l 210 812 l 218 809 l 221 820 l 239 820 l 253 801 l 261 796 l 268 770 q 277 767 290 754 l 292 746 l 303 738 l 300 728 l 295 722 l 297 696 l 295 691 l 303 680 l 300 654 l 297 654 l 297 635 l 295 635 l 292 625 l 297 612 l 292 604 l 292 577 l 284 562 l 282 533 l 271 509 l 271 501 l 268 501 q 261 484 258 457 q 253 414 253 411 q 249 396 242 364 l 226 345 q 216 320 205 272 l 197 272 l 197 264 l 189 250 q 192 230 195 224 l 189 221 q 198 183 218 140 l 224 137 q 228 113 239 109 q 245 95 259 86 q 273 78 277 75 q 280 72 292 70 q 300 70 311 73 q 325 77 329 78 q 344 93 355 94 l 361 102 l 372 106 q 391 123 402 138 l 408 132 z m 276 709 q 276 714 274 720 l 271 722 l 271 728 l 261 738 l 261 746 l 258 746 l 247 780 l 245 772 l 242 783 l 234 791 l 232 786 l 226 791 l 224 783 l 218 778 l 216 767 l 208 765 q 200 718 189 707 l 189 701 l 168 662 l 168 659 q 159 651 150 628 q 142 605 142 591 q 142 585 144 569 q 146 556 145 548 l 152 538 l 139 546 l 142 522 l 155 504 q 160 491 158 482 l 160 480 l 158 477 l 163 469 l 166 430 l 160 430 l 158 414 l 155 424 l 145 414 q 154 385 150 348 l 155 335 l 150 324 q 153 307 152 293 l 171 261 q 182 277 188 301 q 192 322 197 343 l 200 340 l 203 359 l 200 364 l 203 377 l 216 382 q 214 400 226 419 q 226 434 224 438 l 242 480 l 239 480 l 239 485 l 234 493 l 237 506 l 239 504 l 239 509 l 250 517 q 254 535 261 572 q 260 583 261 604 q 264 612 268 630 q 267 644 268 672 q 269 678 272 690 q 276 702 276 709 z"},"8":{"x_min":0,"x_max":381,"ha":381,"o":"m 383 535 l 357 509 q 355 478 335 440 l 328 435 l 320 409 q 298 392 291 380 l 280 382 l 267 364 l 254 356 q 251 346 239 332 q 230 320 228 317 q 228 316 227 316 l 230 306 q 250 282 277 256 l 281 249 l 289 235 l 297 221 l 301 214 l 317 200 l 333 163 l 328 166 l 335 150 l 330 145 l 322 148 l 335 129 l 341 105 l 338 95 l 330 87 l 328 79 l 325 79 l 320 74 l 317 74 l 312 58 l 304 55 l 299 40 l 293 34 l 293 29 l 288 32 l 285 24 l 277 21 l 270 13 l 256 13 l 225 0 l 212 5 l 188 3 q 177 13 117 21 l 117 32 l 109 40 l 117 40 l 111 45 l 109 45 l 96 61 l 88 58 l 82 61 l 80 55 l 77 55 q 69 65 56 90 l 61 100 l 43 111 l 43 137 l 40 145 q 54 177 64 208 l 103 250 q 125 262 154 274 l 161 287 q 118 365 74 395 q 66 413 66 453 q 66 494 79 520 q 83 527 90 538 l 103 538 l 106 543 l 111 540 l 122 551 l 128 552 q 162 562 172 564 q 183 564 206 562 l 227 548 l 246 551 q 283 526 304 504 l 301 498 l 280 498 l 241 533 q 238 532 236 532 q 229 532 211 538 q 193 543 184 543 q 183 543 177 543 q 164 533 140 519 l 143 506 l 130 488 l 130 461 q 149 435 167 388 l 201 364 l 206 356 l 214 356 l 217 345 q 220 350 238 364 l 246 390 l 256 403 l 256 395 l 264 395 l 288 424 l 288 427 l 299 427 l 312 443 q 318 458 318 469 q 318 473 317 477 q 336 506 343 601 l 354 598 l 370 583 l 367 567 q 373 559 383 535 z m 285 116 l 280 145 l 256 171 l 254 169 l 241 200 l 241 208 l 233 219 l 227 216 l 214 224 l 198 250 l 190 248 l 190 253 q 178 244 169 243 l 167 237 l 161 240 l 164 235 l 154 227 l 151 219 l 146 219 q 137 196 125 185 q 125 171 117 163 l 114 145 l 117 137 l 114 121 l 119 108 l 117 100 l 127 79 l 127 61 l 138 50 l 148 50 l 154 42 l 161 40 l 164 34 l 169 32 l 188 40 l 201 29 l 219 34 l 233 50 l 233 42 l 241 40 l 251 45 l 254 55 l 238 53 l 235 55 l 241 63 l 264 63 l 277 69 l 280 79 l 270 100 l 272 108 z"},"\\":{"x_min":0,"x_max":489,"ha":489,"o":"m 489 -32 l 483 -43 l 469 -50 l 458 -65 l 439 -70 l 409 -27 l 408 -21 q 397 -7 389 21 q 375 62 367 69 q 361 76 330 116 q 312 141 306 153 q 303 159 301 167 q 292 195 288 201 q 285 205 268 236 q 264 243 263 247 q 257 261 242 283 l 225 291 q 201 325 187 354 l 187 366 l 160 417 l 169 417 q 157 448 140 460 l 134 454 q 128 479 99 524 q 77 558 73 576 l 45 602 q 35 641 13 674 l 0 676 q 15 725 47 747 l 59 727 l 59 722 l 69 717 q 79 695 100 650 q 107 641 120 618 q 123 609 132 573 l 135 565 q 145 555 155 533 q 165 513 168 509 q 207 468 217 457 l 225 457 q 263 379 262 334 q 273 318 277 313 q 320 253 326 227 q 326 225 326 222 l 338 213 q 339 204 351 188 q 362 172 363 162 l 379 155 q 430 85 431 34 q 474 -5 489 -32 z"},"e":{"x_min":0,"x_max":387,"ha":387,"o":"m 399 126 l 391 121 l 391 118 q 385 112 383 108 l 372 100 l 372 97 l 361 88 q 337 84 307 66 l 294 74 l 302 63 l 291 63 l 273 47 l 254 47 l 244 42 q 238 42 212 40 l 204 45 l 196 42 q 176 52 159 45 q 148 46 125 66 l 125 71 l 109 84 l 107 84 l 101 92 l 94 95 l 91 100 l 83 105 q 80 113 72 119 l 72 124 l 65 132 l 65 156 l 57 163 l 51 161 q 49 179 38 192 l 36 208 l 41 227 l 51 229 l 46 232 l 46 245 l 41 245 l 38 253 l 25 261 l 33 285 l 49 287 l 65 266 q 69 279 88 303 q 106 327 117 330 l 123 327 l 130 337 l 130 343 q 175 362 194 362 q 197 362 199 361 l 207 364 l 228 364 l 236 359 l 244 361 l 268 356 q 288 345 302 327 l 302 311 l 318 285 l 310 272 l 310 266 l 307 258 l 307 250 l 312 250 l 304 229 l 297 224 l 291 224 q 283 221 278 214 l 270 214 l 265 206 q 241 202 228 203 l 228 206 q 198 209 173 208 l 167 203 l 157 203 l 154 200 l 146 208 l 130 208 l 130 195 q 136 168 138 161 l 130 158 l 144 137 l 144 124 l 159 119 l 173 103 l 181 100 l 183 92 l 202 87 q 227 91 239 90 l 241 95 l 244 90 l 252 92 l 268 90 l 286 100 l 291 98 l 297 103 l 310 105 l 310 111 l 341 108 l 341 113 l 356 116 q 374 126 378 134 q 384 138 394 146 l 399 142 z m 297 290 l 291 301 q 271 319 246 319 l 225 319 q 191 319 175 308 l 170 303 l 175 301 l 152 269 l 149 258 l 141 261 l 141 250 l 136 243 l 136 235 q 162 238 194 229 q 210 230 242 241 q 277 254 281 264 l 283 269 l 291 274 z"},"b":{"x_min":0,"x_max":394,"ha":394,"o":"m 334 211 q 329 205 329 137 l 324 132 l 324 119 q 316 114 305 87 l 300 84 l 302 71 l 295 55 l 295 50 l 287 42 l 287 37 l 284 37 l 281 29 l 276 29 l 273 16 q 256 -1 218 -16 l 205 -16 l 202 -13 l 186 -11 q 138 21 134 21 l 131 32 l 94 76 q 91 93 72 130 q 55 163 55 185 l 55 359 q 55 369 59 387 q 64 409 65 414 q 65 426 68 448 l 102 591 q 107 602 115 617 q 122 636 129 656 q 137 678 150 691 q 153 714 173 738 q 181 746 189 754 q 200 765 208 765 q 211 765 229 759 q 247 753 258 754 l 271 738 l 281 736 l 300 720 l 297 717 l 300 707 l 295 707 q 304 696 302 675 q 298 649 294 623 q 290 590 292 572 q 262 513 247 443 l 223 411 l 221 395 l 210 388 l 205 374 l 197 366 l 184 324 l 181 322 l 171 290 q 166 288 155 269 l 155 258 l 150 256 l 150 248 l 144 243 l 142 224 l 136 227 q 133 207 115 187 q 134 144 134 124 l 128 127 l 126 121 l 134 95 l 144 90 q 154 59 168 37 q 179 30 200 11 l 215 8 l 234 13 l 250 29 q 255 46 257 51 q 263 65 271 71 l 273 79 l 271 95 q 274 98 287 113 l 289 129 l 284 127 l 276 134 q 279 215 279 216 q 279 219 273 261 l 263 266 l 258 272 l 252 269 l 250 272 l 247 269 l 239 269 l 234 264 l 226 261 l 218 240 l 210 232 l 213 229 q 206 216 208 192 l 202 179 l 197 174 l 205 169 l 213 171 l 213 161 l 210 158 l 215 156 l 218 129 l 210 142 l 205 140 l 181 153 q 175 159 168 187 q 169 224 210 285 l 237 303 q 264 306 266 306 q 272 306 287 301 l 295 295 l 300 295 l 300 287 l 305 287 q 334 248 334 219 l 329 219 z m 276 680 l 271 683 l 268 693 l 271 699 l 263 704 l 258 725 l 250 725 l 242 717 l 234 725 l 202 709 l 202 707 l 184 691 q 180 650 173 641 l 176 612 l 171 598 l 173 593 q 164 575 150 538 l 144 533 l 144 522 q 138 504 123 472 l 123 467 l 115 448 l 115 435 l 110 430 l 113 427 q 99 378 99 356 l 99 306 q 99 292 104 268 q 109 234 110 229 q 117 246 134 277 l 136 277 l 150 308 l 147 314 q 158 328 165 356 l 181 374 q 182 380 198 411 q 213 441 218 446 q 223 463 231 498 q 233 520 240 563 q 242 569 250 584 q 258 597 258 606 l 260 606 l 260 617 q 270 633 276 680 z"},"%":{"x_min":0,"x_max":508,"ha":508,"o":"m 216 414 l 211 409 l 208 382 l 198 372 l 195 356 q 181 335 179 327 l 174 327 l 166 306 l 163 303 l 150 308 l 140 322 l 111 327 l 76 353 l 69 369 q 70 374 70 378 q 70 404 55 435 l 61 451 l 69 453 q 71 468 71 479 q 71 482 71 488 l 79 509 l 87 517 l 95 517 l 100 522 l 103 522 l 105 533 l 111 533 l 116 540 l 137 548 l 169 535 q 179 523 190 519 q 196 500 219 467 l 219 438 q 218 426 216 414 z m 192 424 l 187 430 l 185 440 l 182 443 q 176 463 176 476 q 176 479 177 485 l 156 496 l 158 501 l 166 506 l 156 511 l 156 506 l 148 506 q 142 487 142 479 q 142 478 142 475 l 127 453 l 121 424 l 124 417 q 124 414 124 411 q 124 402 128 388 q 133 374 133 367 q 133 364 132 361 l 148 340 l 156 340 l 171 353 l 174 353 l 182 366 z m 453 554 l 446 538 l 446 530 l 422 506 l 422 496 l 411 490 l 411 480 q 392 451 372 438 l 359 440 l 351 430 l 353 422 l 348 419 l 353 411 q 354 396 347 373 q 338 342 337 335 l 324 319 q 312 314 308 308 l 301 306 q 292 285 282 277 l 282 264 l 277 253 l 277 243 l 274 237 l 277 232 l 272 232 q 266 215 266 202 q 266 200 266 195 l 258 195 l 250 187 l 232 192 l 227 190 l 224 182 l 229 179 l 214 177 l 211 169 l 195 161 l 190 153 q 191 140 192 129 q 188 111 185 103 l 177 95 l 177 90 l 156 74 l 145 55 l 148 50 q 134 31 132 21 l 121 11 l 121 3 l 113 -5 l 111 -16 l 103 -13 l 82 16 l 79 16 l 63 34 l 63 47 l 68 54 q 95 86 119 115 q 136 135 148 164 q 163 200 182 211 l 182 214 l 187 214 q 188 228 195 237 l 195 243 l 200 243 q 202 250 208 256 l 219 253 l 227 256 l 240 282 l 235 285 q 242 292 249 307 q 259 329 269 337 l 272 351 l 277 356 l 279 369 l 277 372 l 285 374 l 293 385 l 295 382 l 301 398 l 301 419 l 316 453 l 316 459 q 362 510 372 538 l 377 540 q 378 548 393 559 l 398 572 l 403 564 l 403 572 l 411 567 l 414 562 l 417 564 l 424 554 l 432 551 l 451 562 z m 422 3 q 400 -7 385 -8 q 360 6 340 26 l 327 58 l 327 95 q 327 100 330 110 q 333 118 333 124 q 333 125 332 127 l 356 190 l 369 195 l 377 190 l 388 190 l 409 179 l 417 169 l 435 163 q 442 148 451 121 l 453 121 l 453 87 q 453 72 443 42 q 431 10 422 3 z m 424 127 l 414 134 l 411 134 l 411 137 l 406 137 q 399 137 393 134 l 377 113 l 374 76 q 386 47 388 26 l 395 18 q 406 42 423 123 l 423 125 z"},"m":{"x_min":0,"x_max":638,"ha":638,"o":"m 638 103 l 625 95 l 593 90 l 564 98 l 564 100 l 543 103 l 530 111 q 518 113 512 116 q 506 120 501 131 q 495 142 491 145 l 483 171 q 485 191 485 203 q 485 206 475 256 l 469 261 l 459 258 l 459 253 l 443 235 l 443 229 l 438 227 q 429 206 425 192 l 430 190 l 425 187 l 414 156 l 411 153 q 410 112 393 69 l 377 71 l 375 69 l 359 82 l 351 84 l 343 137 q 348 152 348 158 q 348 212 338 240 l 346 237 l 346 264 q 346 255 338 311 l 330 306 l 324 308 l 319 303 l 317 293 l 314 295 q 310 279 303 269 l 309 264 l 301 258 l 295 245 l 290 240 q 281 223 273 196 q 264 158 261 150 l 266 150 q 264 126 269 103 l 259 95 l 261 79 q 257 68 259 58 l 256 55 l 259 47 l 256 42 l 259 29 l 253 29 l 253 16 q 247 8 245 -3 l 240 -3 l 235 -13 q 223 -13 198 -34 l 187 -24 l 187 -18 l 182 -16 l 182 8 q 182 9 185 24 l 193 29 q 190 50 190 53 q 190 91 198 113 l 190 156 l 195 163 l 198 174 q 178 196 174 227 l 179 229 l 177 248 l 164 261 q 160 271 153 293 l 148 295 q 107 238 103 221 q 78 202 71 174 q 62 169 42 140 l 40 140 l 32 134 l 32 129 l 29 129 l -4 99 l -10 98 l -10 113 l 3 129 l 5 129 q 10 141 27 158 l 27 161 q 34 179 55 211 q 76 243 82 261 l 90 269 l 90 277 l 103 287 l 106 293 q 122 311 151 324 q 183 338 206 335 l 208 332 l 216 332 l 222 324 l 219 308 l 224 293 l 222 282 l 232 269 l 232 200 q 240 228 293 301 l 290 306 l 317 335 q 325 336 341 340 q 356 343 364 345 l 377 335 q 389 307 385 274 l 390 261 q 388 225 388 208 q 388 197 390 179 q 396 200 409 211 l 414 232 l 417 232 l 440 266 l 477 287 q 482 287 514 269 l 517 258 l 525 250 l 533 203 l 543 198 l 546 171 l 562 140 l 562 134 q 569 122 578 119 l 583 111 l 612 111 q 625 115 630 117 l 638 116 z"},"#":{"x_min":0,"x_max":594,"ha":594,"o":"m 596 350 l 575 341 l 569 341 l 567 338 l 564 338 l 560 335 l 556 338 l 548 330 l 514 334 l 512 330 l 485 324 l 477 326 l 456 320 l 449 312 l 449 293 q 422 234 422 229 q 421 226 413 193 l 410 183 l 413 181 l 425 181 q 437 186 450 195 l 454 195 l 455 193 l 457 197 q 468 198 488 205 l 493 200 l 498 205 l 505 202 l 509 206 l 509 210 l 513 212 q 523 204 528 197 l 531 197 l 535 205 l 543 202 l 545 195 l 553 190 q 555 181 516 173 l 501 154 l 499 157 q 488 156 479 156 q 462 156 447 159 q 439 161 436 162 q 424 164 406 166 l 408 162 q 406 161 404 161 q 394 135 386 115 q 384 111 384 104 q 375 94 372 83 l 372 73 l 359 48 q 361 40 361 34 q 361 17 350 -5 l 344 -8 l 347 -12 l 345 -16 l 339 -10 l 336 -15 l 323 -2 l 321 -2 l 314 14 l 311 15 l 311 35 l 306 37 l 314 50 l 320 47 l 320 59 q 320 61 320 61 q 320 62 320 66 q 320 68 320 73 q 320 74 320 80 l 324 86 l 326 91 l 330 89 q 352 123 352 156 q 352 156 350 155 q 345 155 341 154 q 237 153 223 149 q 210 153 169 153 l 165 153 q 155 115 143 99 q 144 97 144 96 q 144 95 139 71 q 139 68 138 63 l 134 63 q 123 11 113 2 q 120 2 126 6 l 121 -11 l 109 -17 l 107 -19 l 106 -16 q 105 -16 105 -17 q 104 -17 100 -18 q 95 -20 94 -20 q 93 -20 93 -20 l 72 -4 l 65 9 l 68 15 l 68 27 l 71 30 q 82 42 89 45 q 102 58 122 152 l 119 153 l 102 153 q 101 153 100 152 q 100 152 99 152 q 98 152 97 152 l 97 152 q 96 152 94 151 q 93 151 90 151 q 82 149 58 145 q 42 153 0 153 l 0 162 l 7 170 l 18 174 l 25 174 l 26 178 l 37 178 l 45 174 l 66 183 l 72 183 l 74 187 l 78 187 l 81 189 l 85 187 l 93 195 l 128 184 q 129 189 130 191 q 137 213 136 215 l 142 228 l 146 229 l 148 233 l 152 233 q 166 252 169 273 l 182 289 l 182 308 q 182 309 183 309 l 183 311 q 183 311 183 312 q 184 313 184 314 q 169 315 157 324 l 153 320 l 148 324 l 143 320 l 136 322 l 133 319 l 133 314 l 128 313 q 116 322 114 328 l 110 328 l 106 320 l 98 322 l 98 330 l 88 334 q 86 341 85 343 q 76 372 76 377 l 81 374 l 85 379 l 92 377 l 97 371 q 113 367 134 367 l 140 370 l 142 367 q 148 368 151 369 q 176 374 178 374 l 178 374 l 178 374 l 178 374 l 178 374 l 178 374 q 188 375 209 372 q 219 409 228 443 q 237 469 252 527 l 259 529 l 256 534 l 258 538 l 263 531 l 267 537 l 279 524 l 281 524 l 288 508 l 292 507 l 292 487 l 296 484 l 288 472 l 283 475 l 281 463 q 284 453 284 446 q 284 444 283 441 l 279 444 l 277 444 l 277 444 l 277 444 q 277 443 279 438 q 280 432 281 424 l 279 421 l 279 412 q 267 407 265 399 l 256 399 l 254 391 l 248 391 l 241 383 l 241 379 l 238 376 q 238 375 238 375 q 237 374 237 372 q 237 371 237 370 l 237 366 q 237 366 237 365 l 236 365 l 241 360 q 266 364 277 364 q 284 364 296 361 q 310 358 312 358 l 311 362 q 326 363 330 364 q 354 367 357 367 q 361 367 374 370 q 377 370 385 370 q 390 370 424 371 l 433 371 l 440 396 l 448 396 l 461 410 l 461 433 l 465 439 q 465 452 490 520 q 484 520 476 516 l 482 533 l 493 538 l 495 541 l 497 538 l 497 538 q 507 541 510 542 l 530 526 l 537 512 l 535 507 l 535 494 q 533 492 528 488 q 523 484 513 476 q 504 466 504 452 q 504 451 504 450 q 505 442 505 436 q 505 423 504 420 q 504 420 498 403 q 495 396 495 390 q 495 388 495 385 l 490 375 q 491 375 492 375 q 493 375 493 375 q 494 376 495 376 q 500 375 501 374 q 513 370 518 370 q 519 370 522 371 l 539 371 q 541 371 544 373 q 546 374 548 374 q 555 374 568 371 q 574 370 581 370 q 583 370 585 370 z m 419 331 l 413 331 l 405 338 l 389 334 l 381 334 l 379 326 q 356 326 343 334 l 339 330 l 331 330 l 326 326 l 305 343 l 294 343 q 275 336 268 330 l 265 330 l 264 331 l 261 328 q 254 327 236 324 l 236 324 l 236 324 l 236 324 l 236 324 l 237 324 q 231 325 223 326 l 221 327 q 216 300 216 293 l 221 285 q 208 267 206 238 l 200 238 l 191 205 l 183 205 l 170 191 l 170 181 l 178 187 l 177 193 l 180 200 l 186 202 l 187 198 q 196 196 205 190 l 206 195 l 233 200 l 241 198 l 263 205 q 280 192 296 192 q 299 192 305 193 l 313 187 l 330 189 l 338 189 l 338 198 q 354 198 362 196 q 366 200 366 202 l 375 202 l 377 210 l 384 210 l 391 218 l 390 222 l 393 225 l 393 226 l 393 226 l 394 229 l 394 230 l 394 231 l 394 235 q 394 235 394 236 l 396 236 q 397 239 398 240 q 399 243 399 244 l 399 251 l 404 252 q 416 301 415 308 l 411 316 q 416 322 419 331 z"},",":{"x_min":0,"x_max":237,"ha":237,"o":"m 168 29 q 164 15 157 8 l 152 11 q 149 -2 139 -24 l 139 -40 l 126 -53 l 118 -50 l 113 -50 l 107 -47 l 107 -42 l 102 -42 l 99 -32 l 105 -32 l 107 -24 l 118 -16 q 127 16 128 27 l 128 28 l 128 29 l 131 37 l 118 42 l 115 29 l 94 26 l 84 34 l 70 58 l 73 90 q 80 95 84 105 l 107 108 q 117 102 126 95 l 139 92 l 149 82 l 152 82 l 155 69 l 165 61 z"},"n":{"x_min":0,"x_max":544,"ha":544,"o":"m 543 102 l 535 95 l 522 90 l 522 85 q 510 90 493 90 q 483 90 475 88 l 459 96 l 456 91 l 427 118 l 422 138 l 425 150 l 417 161 l 393 174 l 388 192 l 380 195 q 347 250 346 269 l 348 272 l 343 274 l 333 269 l 335 266 l 317 248 q 312 237 301 166 l 293 156 l 296 137 l 288 129 l 288 116 l 280 121 l 283 113 l 283 105 l 288 98 l 285 90 l 290 84 l 290 42 l 293 34 l 290 29 l 285 29 q 287 17 280 -11 q 267 0 238 18 q 232 59 232 98 q 232 104 236 126 q 240 149 240 159 q 240 166 238 169 l 240 171 q 239 204 243 269 l 227 303 q 212 303 183 282 q 155 260 148 243 l 145 243 q 109 209 93 171 l 87 171 q 73 158 43 118 q 19 100 4 103 l -10 97 l -22 97 q -14 105 -12 108 l 0 116 q 4 125 16 134 q 31 146 34 150 q 40 160 51 177 q 62 189 85 214 q 93 224 116 256 q 116 256 124 264 l 127 279 l 140 295 q 149 297 160 305 q 172 314 177 316 q 184 319 225 330 l 261 319 l 283 293 q 285 276 285 243 l 288 240 l 301 266 l 309 269 l 309 279 l 327 295 l 356 303 l 377 301 l 406 272 q 403 264 404 261 l 401 261 l 401 240 l 409 232 l 414 235 l 417 240 l 425 240 q 436 227 454 211 l 443 186 l 456 172 q 456 157 476 128 l 496 117 l 501 120 l 509 114 l 530 117 l 543 109 z"},"h":{"x_min":0,"x_max":521,"ha":521,"o":"m 527 105 q 521 92 509 68 q 502 57 473 18 l 476 13 l 452 8 l 439 -3 l 389 11 q 352 29 323 92 l 331 90 l 334 98 l 344 98 l 328 111 l 326 116 l 331 119 l 326 127 l 323 129 l 320 127 l 318 129 l 326 137 l 323 142 l 312 140 q 302 170 305 200 q 282 234 281 261 l 244 192 l 244 179 q 224 164 204 117 q 189 81 175 45 q 176 33 173 21 l 178 13 q 170 -14 173 -34 l 165 -45 l 170 -53 l 152 -53 l 146 -45 l 136 -40 l 131 -29 l 117 -21 l 107 -21 l 96 -11 l 94 0 l 86 8 q 83 18 83 61 q 83 62 84 69 q 86 75 86 76 l 88 76 q 108 136 108 169 q 108 177 107 185 l 112 185 l 120 224 q 106 208 80 177 q 76 168 67 153 q 54 142 30 119 l 26 115 q -4 101 -20 95 l -28 95 l -30 112 q -2 117 17 142 l 22 142 l 22 148 l 30 150 l 41 163 l 41 169 q 74 194 107 240 l 109 240 l 128 258 q 135 284 144 335 q 143 365 144 424 q 150 453 162 511 q 162 524 165 551 q 170 568 181 604 q 184 628 194 675 q 203 693 220 728 q 223 733 233 765 q 244 797 244 801 l 262 820 l 265 828 l 268 828 l 268 836 l 276 830 l 281 841 l 291 836 l 291 841 l 299 841 l 307 820 q 307 816 307 812 q 307 796 319 772 q 332 748 331 736 l 341 720 q 339 702 339 693 q 339 691 340 687 q 341 682 341 680 q 340 669 329 628 q 317 586 312 577 q 313 572 313 566 q 313 539 299 501 l 291 496 q 268 437 254 422 l 254 393 l 247 380 l 241 380 l 233 351 q 223 347 210 332 q 207 326 207 319 q 207 317 210 290 l 199 277 l 196 256 l 186 240 l 178 198 l 170 206 l 165 190 l 170 190 q 166 179 167 171 l 165 166 l 173 156 l 178 158 l 173 103 q 195 133 224 202 q 245 252 265 303 l 283 322 l 302 324 l 305 332 q 314 323 334 314 q 347 299 370 258 l 378 200 l 376 200 l 381 182 l 376 182 l 373 161 q 383 130 392 119 l 394 108 l 392 105 q 394 96 402 82 l 397 76 l 397 66 l 399 66 l 397 42 l 418 24 l 428 24 q 448 36 475 64 q 501 93 513 114 z m 315 656 q 304 686 305 709 l 299 717 l 302 730 q 289 756 289 770 l 273 767 q 249 740 249 688 l 252 688 q 248 671 239 638 q 237 628 234 570 q 230 513 231 498 q 223 486 223 475 l 215 472 q 208 416 210 395 q 232 426 268 493 q 269 503 273 522 q 277 530 283 546 q 291 583 315 656 z"},"z":{"x_min":0,"x_max":384,"ha":384,"o":"m 388 106 l 385 99 l 378 93 q 377 92 347 55 l 331 50 q 324 43 308 32 l 302 24 l 297 21 l 292 24 l 292 16 l 287 16 l 297 -26 l 289 -32 l 281 -29 q 285 -43 284 -45 l 289 -47 q 287 -67 284 -76 l 279 -76 l 281 -82 q 278 -110 279 -116 q 275 -121 271 -134 q 267 -148 268 -153 l 258 -161 l 255 -174 l 250 -174 l 242 -182 l 244 -190 l 239 -187 l 239 -195 l 234 -195 l 229 -187 l 226 -198 l 218 -208 q 199 -212 181 -232 l 173 -232 l 147 -253 l 131 -256 l 120 -253 l 126 -264 l 113 -264 l 97 -272 q 64 -266 60 -266 q 59 -266 44 -269 l 33 -264 q 30 -252 10 -227 q 16 -177 36 -158 l 39 -158 l 47 -142 l 52 -142 l 49 -137 q 102 -62 142 -53 l 139 -47 q 148 -38 163 -32 l 168 -37 q 184 -20 197 -11 l 194 -5 l 223 16 q 220 49 226 61 l 213 98 q 207 91 202 76 l 192 71 l 192 66 l 186 66 l 186 61 l 165 45 l 165 47 l 134 40 q 117 47 102 47 l 99 55 l 89 53 l 78 58 l 76 55 q 68 65 57 71 l 52 82 l 39 92 l 41 95 l 36 121 l 41 121 l 47 140 q 81 177 139 177 q 137 177 192 166 l 202 190 l 205 190 l 221 200 l 221 216 l 226 224 l 215 243 l 221 253 l 221 261 l 226 261 l 226 266 q 226 262 221 282 q 214 312 212 316 q 206 333 192 345 l 152 353 l 144 351 l 134 359 l 120 356 q 115 353 105 335 l 86 324 l 73 308 l 60 269 l 73 250 l 89 253 q 116 273 118 293 l 113 301 l 107 293 l 105 293 l 105 287 l 89 287 l 89 295 l 107 311 l 120 308 l 123 303 l 126 308 l 139 301 l 147 287 l 149 269 q 144 250 134 237 l 126 237 q 124 234 97 219 l 73 221 l 65 232 q 44 242 41 250 l 39 266 l 33 277 l 33 285 l 31 290 q 33 296 33 301 q 33 306 31 314 l 36 327 l 31 335 l 41 345 l 36 356 l 49 359 l 55 364 l 60 361 l 62 366 l 73 374 q 88 380 142 380 l 159 376 q 217 362 255 301 l 252 298 l 258 285 q 258 250 263 240 l 258 229 l 263 227 l 250 156 l 239 142 l 236 129 q 247 115 258 92 l 271 82 l 268 71 l 281 47 q 304 56 332 79 q 375 114 378 116 z m 176 150 l 123 153 l 120 148 l 86 124 l 81 124 l 65 116 l 60 95 l 70 84 l 94 87 l 107 79 l 123 84 l 115 92 l 126 95 l 134 103 l 139 92 l 157 103 l 163 121 l 165 121 l 165 129 l 168 137 l 171 137 z m 221 -58 l 218 -53 l 221 -29 l 215 -29 l 202 -42 l 202 -37 q 183 -52 178 -69 q 149 -82 136 -79 l 118 -100 l 113 -100 l 110 -108 l 99 -116 l 97 -127 l 84 -142 l 73 -148 q 66 -162 57 -163 q 45 -176 39 -203 q 42 -220 41 -235 l 47 -240 l 86 -237 q 116 -223 126 -211 l 128 -200 l 123 -195 l 136 -192 l 157 -169 l 163 -174 l 192 -156 l 189 -145 l 184 -142 q 185 -135 197 -111 l 197 -108 l 202 -108 q 204 -80 210 -66 z"},"B":{"x_min":0,"x_max":697,"ha":697,"o":"m 637 153 l 631 148 l 634 132 l 631 121 l 634 116 l 621 92 l 610 95 l 610 90 q 593 76 552 24 l 531 16 q 517 8 494 -11 l 478 -13 l 476 -16 l 465 -21 l 463 -26 q 439 -23 434 -24 l 426 -16 l 407 -11 l 399 -3 l 397 -5 l 376 13 l 376 29 l 362 37 l 354 34 q 345 63 347 74 l 373 116 l 389 124 l 394 121 l 389 116 l 373 76 l 376 55 l 399 34 l 405 32 l 402 24 l 410 16 l 484 18 q 488 28 504 44 q 523 61 528 71 l 523 74 l 526 76 l 550 124 l 539 137 q 540 147 550 169 q 561 190 563 200 l 560 203 l 565 208 l 565 232 q 565 240 560 258 q 555 276 555 285 q 534 309 514 332 q 498 347 455 359 q 424 368 402 364 l 394 369 l 399 372 l 397 380 l 402 390 l 415 401 l 439 409 l 449 419 l 452 419 l 473 438 l 478 448 l 494 461 q 502 528 502 538 q 502 586 492 609 q 462 632 428 635 q 411 627 376 617 l 373 614 l 354 609 q 352 599 336 583 l 336 575 l 352 556 l 352 554 l 368 517 l 368 469 l 357 461 l 344 461 l 339 456 q 332 438 333 432 l 339 417 l 336 390 l 344 390 l 344 380 l 354 377 l 370 327 q 363 306 365 295 l 354 287 q 354 276 352 224 l 357 214 l 362 211 l 362 195 q 362 184 360 166 l 354 163 l 347 142 l 352 142 l 349 119 l 336 98 l 333 82 l 325 82 l 320 58 l 324 39 l 318 18 q 303 14 296 3 q 270 3 254 8 l 236 32 q 231 46 225 76 l 220 82 l 207 121 l 212 127 l 212 153 q 212 157 210 165 q 209 173 209 177 q 209 182 210 192 q 212 201 212 206 q 212 209 209 227 l 204 232 q 199 277 199 287 q 199 294 208 355 q 218 416 220 424 q 233 456 254 522 q 271 541 281 559 l 267 604 l 260 604 l 241 622 l 233 641 l 204 651 l 199 649 l 186 654 l 186 659 q 158 656 144 662 l 144 656 l 125 651 l 117 654 q 112 645 96 631 q 78 617 72 609 l 75 606 l 59 567 l 59 533 l 70 506 l 107 488 l 133 488 q 139 488 151 490 l 162 498 l 159 519 l 162 533 l 130 543 l 117 525 l 112 522 l 128 511 l 125 504 l 117 498 l 99 509 l 101 517 l 99 535 l 133 562 l 138 559 q 172 559 188 551 l 188 543 l 199 533 q 202 515 202 514 q 202 513 199 498 l 188 496 l 188 490 l 180 485 l 180 482 q 162 476 154 472 q 144 473 128 470 q 111 467 104 467 q 98 467 86 469 q 58 481 54 496 l 49 496 l 30 517 l 20 543 l 20 591 q 30 609 33 627 l 49 627 l 62 643 l 54 646 l 54 651 l 64 659 l 83 664 l 99 678 l 112 675 l 115 685 l 130 685 q 131 685 139 683 q 147 680 149 680 q 160 681 180 680 q 227 675 250 667 q 283 656 310 630 l 315 614 l 323 614 l 323 622 l 333 630 l 333 633 q 384 664 420 664 q 453 664 508 643 q 567 621 584 598 l 597 554 q 590 530 592 519 l 563 498 q 559 484 548 466 q 537 448 534 440 l 531 438 q 519 408 476 374 q 503 371 539 354 q 580 334 589 314 l 594 314 l 602 303 l 610 298 q 618 286 618 256 q 618 251 616 241 q 614 230 615 224 l 610 216 l 618 187 l 631 171 z m 304 216 l 304 395 q 304 456 289 504 l 292 521 l 281 530 l 276 504 l 281 490 q 270 472 252 435 l 254 427 q 250 406 244 382 q 244 297 265 266 l 265 232 q 265 219 252 203 l 252 195 l 244 174 q 244 71 252 58 l 281 34 q 280 38 280 41 q 280 49 285 65 q 290 82 290 90 q 290 94 289 98 l 298 100 q 298 129 302 140 l 294 174 q 304 214 304 216 z"},"K":{"x_min":0,"x_max":782,"ha":782,"o":"m 744 92 q 744 89 742 82 q 740 75 741 71 q 724 55 699 43 q 665 28 654 21 l 646 21 l 638 16 l 620 21 l 604 18 l 599 24 l 565 32 q 556 40 538 50 l 541 53 l 530 61 l 528 66 q 513 77 481 119 q 450 158 438 179 l 409 198 q 405 229 393 248 l 401 250 q 393 262 377 285 l 367 290 l 367 298 l 343 324 l 338 303 l 341 295 q 340 276 343 253 l 333 232 l 333 227 l 327 227 l 327 219 l 322 214 q 313 157 298 90 l 304 84 q 303 58 277 18 l 285 16 l 283 -21 l 272 -16 l 269 -29 l 259 -29 l 256 -21 l 246 -26 l 248 -21 l 230 -13 q 217 -2 214 13 l 206 21 q 206 31 226 87 q 246 142 254 156 l 248 169 q 252 179 259 216 l 264 216 l 261 227 q 288 262 288 279 l 283 282 l 285 298 l 293 298 q 296 316 298 356 q 315 384 317 414 l 309 417 l 306 446 l 312 469 l 309 485 l 317 488 q 319 504 319 514 q 319 530 309 593 l 293 614 l 293 625 l 288 635 q 263 643 225 643 l 190 659 q 166 649 119 638 q 105 625 95 622 q 77 599 74 572 q 74 546 80 540 l 72 530 q 81 489 135 459 q 169 460 201 456 l 214 461 l 246 493 l 256 519 l 256 543 q 253 554 248 569 l 225 598 l 193 598 l 190 601 l 180 596 l 180 591 l 174 593 l 161 585 l 151 567 l 145 567 l 140 546 l 151 538 l 164 514 l 181 503 l 203 519 l 203 556 l 196 575 l 201 577 l 214 567 l 230 540 l 232 517 q 207 487 196 485 l 180 488 l 167 485 l 151 498 l 143 519 l 130 522 l 119 535 l 116 551 l 138 588 l 177 612 q 191 613 222 620 l 225 614 l 222 609 l 238 604 l 238 609 l 248 606 l 256 598 l 267 598 l 272 580 l 283 569 q 285 551 290 519 l 285 519 l 285 509 l 280 506 l 272 477 q 267 468 253 458 q 241 451 230 443 l 198 438 l 182 427 q 162 444 130 446 l 111 443 l 111 440 l 101 448 l 95 459 l 74 467 l 77 459 l 64 464 l 56 477 l 61 485 l 72 482 l 72 498 l 61 501 l 56 506 l 56 498 l 53 498 l 45 506 l 43 522 l 32 543 l 32 556 l 27 554 l 27 562 q 27 577 47 604 q 66 630 80 635 l 93 659 l 114 672 l 132 667 l 193 683 l 201 680 q 208 681 216 681 q 266 681 327 643 q 369 608 388 551 l 385 548 l 396 506 l 385 461 l 380 461 q 376 455 376 431 q 375 401 375 398 q 369 390 362 359 l 356 351 l 362 348 q 377 352 395 368 q 408 381 422 395 q 431 400 446 411 q 532 488 544 527 l 557 538 l 567 556 l 596 569 l 607 580 l 602 585 q 612 597 612 609 q 625 619 628 627 l 633 625 l 649 656 l 670 654 l 675 651 l 681 638 l 691 630 l 696 614 l 691 614 l 689 604 l 667 598 q 659 575 646 564 l 641 548 l 628 546 l 628 533 l 617 509 l 607 514 q 589 504 557 482 q 545 469 520 446 l 520 443 l 475 401 l 470 385 l 449 361 l 446 353 l 435 351 l 433 345 l 420 342 l 428 303 l 441 290 q 446 269 478 237 l 480 227 l 483 227 l 480 240 l 488 243 q 499 219 515 206 l 509 203 q 526 183 536 156 l 549 150 q 554 140 562 132 l 557 129 l 546 134 l 549 119 l 559 103 l 557 100 q 562 92 573 79 q 595 59 606 51 q 626 39 646 37 l 646 40 q 680 46 712 71 q 722 85 728 113 l 718 121 l 707 145 l 694 150 l 665 142 l 644 127 l 641 105 l 652 95 l 665 98 l 667 105 l 678 108 l 675 111 l 686 111 l 691 100 l 678 82 q 659 78 649 79 l 636 95 l 623 100 l 615 129 l 631 158 l 665 177 q 686 170 691 171 q 726 155 744 127 l 741 119 q 744 113 744 92 z"},"R":{"x_min":0,"x_max":658,"ha":658,"o":"m 635 81 q 626 55 577 -11 l 569 -11 l 546 -24 q 542 -24 540 -24 q 490 -24 448 24 q 429 45 419 73 l 424 92 l 422 94 l 430 121 l 438 129 q 433 140 429 189 q 426 219 424 239 l 398 279 l 372 268 l 366 271 l 353 268 l 311 295 q 314 285 314 276 q 314 273 314 268 l 308 263 l 308 242 l 298 221 l 294 218 l 294 201 q 293 198 296 187 q 298 180 298 175 q 298 169 294 143 q 290 119 290 113 l 287 110 l 290 102 l 282 79 l 272 71 l 272 68 l 264 63 l 256 39 l 248 42 l 250 31 l 245 26 l 237 26 l 235 15 q 225 1 211 -11 l 208 -16 l 214 -27 l 208 -29 l 179 -22 l 166 0 l 166 18 q 161 31 148 36 l 145 44 q 147 47 147 108 q 147 160 156 176 l 145 208 l 161 279 l 169 268 q 171 287 171 299 q 171 306 166 321 l 171 342 l 174 345 q 179 378 195 408 l 198 403 q 207 473 232 493 q 224 535 219 548 q 209 573 198 606 q 184 621 174 640 l 113 645 l 82 635 q 69 625 55 598 l 53 582 l 42 574 l 40 564 l 34 558 q 32 537 32 525 q 32 509 36 487 q 40 468 40 461 q 68 448 95 448 q 113 476 118 500 q 121 517 121 556 q 119 567 116 572 l 108 582 l 108 587 l 119 587 l 119 590 l 127 593 l 140 585 q 172 542 177 506 l 174 498 l 169 495 l 169 490 l 156 487 l 150 466 l 156 442 l 153 432 l 137 437 l 124 432 l 113 416 l 105 416 l 103 413 l 92 419 l 87 416 l 53 429 l 47 427 l 42 432 l 40 440 l 24 448 l 18 458 l 21 461 l 8 471 l 5 508 l 8 514 l 0 529 l 5 556 l 11 556 l 13 561 q 13 568 13 572 q 13 586 16 601 q 41 617 69 645 l 113 661 q 148 660 211 651 l 216 643 l 221 643 q 250 626 256 611 l 261 609 l 266 595 l 261 585 l 274 569 q 284 590 306 609 l 308 603 l 316 601 l 372 648 q 376 647 380 646 q 421 638 446 628 q 473 618 506 601 q 521 583 528 557 q 530 549 537 524 l 538 519 q 538 517 538 516 q 536 504 535 503 q 535 503 535 502 q 535 500 537 489 q 538 482 538 477 q 538 449 525 424 l 519 421 l 514 406 l 506 398 l 506 390 l 490 366 l 488 353 l 485 353 l 485 345 l 477 342 l 477 334 l 472 332 l 467 337 l 467 332 l 453 321 l 451 305 l 435 292 l 467 263 q 471 234 493 213 l 498 192 l 496 181 q 522 135 522 65 q 522 55 522 39 l 535 15 l 548 15 q 566 20 569 21 q 605 67 609 92 l 606 102 l 609 110 l 604 118 q 596 110 585 89 l 577 87 l 564 94 l 562 105 l 575 131 l 588 139 l 593 139 l 598 131 l 620 131 q 630 120 635 108 z m 461 519 l 446 529 l 432 595 l 414 616 l 374 616 l 361 611 l 359 614 l 340 595 l 337 595 l 337 587 l 293 561 l 287 545 l 293 529 l 290 524 l 295 514 l 298 514 l 303 479 l 295 461 q 304 424 314 416 l 308 403 l 311 382 l 308 371 l 316 355 l 314 321 l 324 326 q 329 327 355 329 l 361 330 q 379 330 409 316 l 409 324 q 424 336 432 337 q 437 351 461 392 q 460 396 460 400 q 460 412 463 434 q 467 467 467 474 l 467 475 q 463 503 461 519 z m 374 305 l 351 316 l 330 313 l 330 300 l 337 295 l 356 295 l 369 300 z m 253 355 l 240 379 q 241 398 241 411 q 241 447 235 477 q 235 428 216 408 q 216 406 212 388 q 208 371 208 360 l 208 358 l 203 358 l 204 351 q 206 329 206 326 q 204 318 203 313 q 200 298 196 270 q 194 245 185 234 q 186 229 186 227 q 186 214 182 199 q 177 180 177 177 q 177 176 177 176 q 177 172 177 163 q 177 150 173 121 q 171 107 171 97 q 171 88 172 75 q 174 63 174 46 l 174 44 l 179 36 l 185 0 l 192 -6 l 198 2 q 198 39 221 79 q 221 85 221 91 q 221 104 224 113 l 227 113 l 232 126 l 235 123 l 237 152 l 232 163 q 240 223 240 232 q 240 239 239 254 q 237 269 237 275 q 237 282 242 302 q 244 310 244 316 q 244 318 243 321 l 245 321 z"},"T":{"x_min":0,"x_max":557,"ha":557,"o":"m 643 667 l 635 664 l 638 656 l 630 654 l 633 643 l 617 635 l 617 627 l 612 627 l 612 622 l 588 622 l 585 612 l 556 609 l 538 614 l 530 612 l 525 606 l 527 601 l 440 612 l 432 596 l 425 591 l 414 569 l 419 559 q 409 542 409 533 l 401 535 l 411 514 l 406 509 l 398 488 l 401 475 l 396 451 l 406 443 l 406 417 l 398 417 l 396 403 l 401 395 l 396 390 l 396 372 q 396 366 398 356 l 403 348 l 398 340 q 398 305 406 253 l 398 243 l 393 243 l 388 227 l 393 221 l 390 214 l 398 208 l 398 198 l 406 198 l 403 169 l 393 169 l 388 148 l 393 148 l 388 103 l 380 98 l 374 79 l 372 79 l 372 69 l 364 66 q 361 55 351 32 l 351 26 l 345 21 q 338 6 330 0 l 327 3 l 316 -8 l 316 -13 l 311 -13 l 306 -18 l 290 -24 l 256 -24 l 256 -29 l 237 -37 q 204 -26 167 -3 q 127 22 119 42 q 113 56 113 82 l 113 82 q 113 123 140 161 q 196 173 224 174 l 243 169 l 251 163 l 264 161 l 282 140 l 287 100 l 277 63 l 272 66 l 266 50 l 258 42 l 245 40 l 219 50 l 219 58 l 214 66 l 219 76 l 237 74 l 243 76 l 258 108 l 253 129 l 232 150 l 211 150 l 185 140 q 180 128 169 100 l 168 97 q 165 78 161 63 q 159 58 156 55 q 163 27 179 13 l 198 3 l 229 3 l 240 -3 l 287 21 l 303 21 l 319 45 q 324 95 332 129 l 324 145 q 328 156 332 177 l 332 258 q 324 303 322 316 l 338 316 l 338 324 l 330 330 l 319 351 l 324 406 q 324 407 323 410 q 322 413 322 416 q 322 417 323 446 l 323 453 q 324 476 324 480 l 324 489 l 324 493 l 332 509 l 332 517 q 341 529 345 554 l 353 551 l 364 588 l 393 620 q 368 626 342 626 q 332 626 319 625 l 314 630 l 303 627 l 301 633 l 287 630 l 258 635 l 258 627 q 233 634 207 634 q 200 634 190 633 l 187 627 l 179 630 l 145 614 l 145 588 q 136 579 132 564 l 116 575 l 111 575 l 106 551 l 98 546 l 100 519 l 103 517 l 103 504 l 108 493 l 119 493 l 127 480 l 135 477 q 138 465 138 456 q 138 453 137 448 l 164 438 q 170 445 186 451 q 198 456 203 459 l 216 480 l 224 485 l 229 522 l 222 543 l 216 546 l 208 546 l 208 530 l 171 517 l 166 509 l 161 522 l 182 551 q 198 565 219 567 l 248 559 l 256 548 q 255 545 255 543 q 255 536 258 530 l 251 527 q 252 519 252 513 q 252 471 219 438 l 216 424 q 171 417 150 401 l 116 414 l 119 419 l 100 419 l 92 430 l 82 435 l 79 443 l 66 451 q 59 482 37 519 l 45 572 l 50 572 l 55 583 l 63 583 q 64 591 75 607 q 84 622 84 627 l 106 649 l 135 662 l 148 654 l 190 664 l 206 654 l 258 662 l 261 667 l 256 678 l 258 688 l 282 688 l 287 680 l 295 680 l 303 688 q 349 683 372 683 q 375 683 382 683 l 390 678 q 400 679 405 679 q 424 679 438 675 l 438 672 q 457 665 464 654 l 472 654 l 472 651 l 477 646 l 483 646 l 480 654 l 490 651 l 488 664 l 501 664 l 501 664 l 501 664 l 501 664 l 501 664 l 501 664 q 503 664 515 660 q 518 659 523 659 q 530 658 563 655 l 572 654 q 607 668 633 693 z"},"P":{"x_min":0,"x_max":693,"ha":693,"o":"m 689 398 l 687 390 l 679 385 l 671 361 l 668 361 l 665 353 l 665 343 l 663 343 l 658 330 l 636 322 l 631 308 l 626 308 l 626 301 q 622 292 610 282 l 602 279 l 600 274 l 592 277 l 594 272 l 581 266 l 563 240 l 557 240 l 552 227 l 542 224 l 539 219 q 492 208 481 198 l 468 200 l 452 224 l 444 279 l 447 282 q 474 274 497 245 l 505 243 q 544 261 564 293 q 579 318 592 368 q 596 380 600 406 l 615 403 l 621 422 q 606 437 600 438 q 600 444 595 468 q 592 488 592 498 q 592 507 597 540 l 586 538 l 571 546 q 562 559 544 583 q 534 591 515 612 l 515 617 l 497 620 l 497 612 q 472 640 444 643 l 444 625 l 431 601 l 436 575 q 429 504 410 482 q 420 461 420 424 q 420 420 417 411 q 415 402 415 398 q 415 397 418 361 l 397 369 l 399 361 l 394 348 l 402 335 l 423 322 l 423 290 l 415 269 l 407 269 l 404 261 l 404 248 l 394 240 l 386 224 l 399 200 q 397 184 404 171 l 402 142 l 391 124 l 397 92 l 391 79 l 386 76 l 389 69 l 378 45 l 381 21 l 378 8 l 373 5 q 373 -21 356 -40 q 340 -57 325 -74 q 301 -92 275 -90 l 265 -87 l 225 -105 q 188 -100 150 -74 q 110 -46 99 -13 l 99 16 q 112 61 151 103 q 180 114 186 124 l 207 132 l 241 121 l 246 113 l 257 108 l 257 103 q 261 102 275 84 l 281 66 l 291 55 q 289 41 294 29 l 265 -16 q 253 -18 246 -18 q 237 -18 207 -13 l 186 3 l 178 21 l 178 42 l 188 50 q 193 65 204 76 l 217 76 l 223 69 l 217 63 l 215 71 q 209 70 204 66 l 209 63 l 201 61 l 207 55 l 201 42 q 208 24 207 18 l 212 11 l 238 5 l 249 11 l 252 16 l 246 42 l 249 42 l 246 84 l 223 108 l 201 113 l 180 95 l 175 79 l 167 76 l 165 71 l 157 74 q 157 74 157 -11 q 162 -30 165 -40 q 185 -64 212 -76 l 230 -76 l 233 -82 q 254 -77 291 -61 q 292 -59 321 -16 q 336 6 336 37 q 336 46 331 76 l 336 76 q 333 95 330 114 q 326 137 317 150 q 320 169 328 179 l 336 174 q 333 203 341 232 l 323 243 l 325 256 l 331 256 l 333 266 l 339 264 l 346 272 l 349 287 l 346 290 l 336 343 l 341 356 l 339 377 l 346 380 l 341 403 l 331 409 l 336 438 l 344 448 q 345 461 349 488 q 350 493 357 511 q 362 525 362 535 q 362 542 360 548 l 368 548 q 372 575 378 593 l 383 591 l 391 604 l 386 609 l 391 614 l 389 622 l 410 654 q 385 659 378 659 q 367 659 343 655 q 320 650 309 650 q 304 650 299 651 l 304 641 l 294 620 q 260 594 228 596 l 225 601 l 220 596 q 195 590 167 580 l 167 572 l 128 556 l 101 530 l 93 504 l 99 493 l 104 493 q 93 464 93 446 q 93 424 99 411 l 96 406 l 99 398 l 104 393 l 101 393 l 99 388 l 101 380 l 112 377 l 107 374 l 128 361 l 130 353 l 146 353 l 149 356 q 178 345 201 345 q 237 350 270 385 q 269 401 258 426 q 250 447 241 467 l 225 469 q 205 414 207 406 q 215 405 225 395 q 210 389 196 382 l 196 388 l 172 393 q 181 453 204 475 l 225 490 l 246 493 l 273 477 l 286 461 q 287 454 296 425 q 304 402 302 390 l 307 388 l 304 364 l 270 322 q 253 322 212 298 l 207 290 l 191 290 l 188 285 l 180 290 l 167 282 l 157 293 q 134 290 98 315 q 63 339 51 361 l 43 401 q 49 433 67 464 l 64 511 q 73 527 91 556 q 104 567 126 592 q 128 595 133 601 q 192 650 244 667 q 260 672 286 675 q 320 679 328 680 q 338 683 357 688 q 397 698 444 696 q 459 708 481 720 l 489 728 l 515 733 l 515 736 l 560 733 l 573 720 l 571 712 l 573 712 l 581 696 l 568 683 q 558 698 542 707 l 518 707 q 511 707 496 700 q 481 694 476 688 l 494 685 q 521 671 560 643 l 563 643 q 564 640 585 623 q 606 605 610 604 l 613 598 q 634 585 671 496 l 671 467 l 676 464 q 682 446 689 398 z"},"|":{"x_min":0,"x_max":304,"ha":304,"o":"m 197 446 q 193 365 168 322 q 174 259 174 237 q 174 203 167 193 l 173 179 q 169 170 172 151 q 174 132 170 123 l 179 108 q 182 79 182 59 q 182 12 164 -22 q 182 -84 181 -108 l 170 -115 l 155 -114 l 138 -121 l 119 -116 l 115 -64 l 117 -58 q 116 -52 116 -46 q 116 -33 122 -6 q 127 20 127 33 q 127 49 122 79 q 115 113 114 126 q 113 139 118 159 q 124 182 124 189 q 123 207 124 242 q 129 277 124 288 l 114 303 q 109 356 113 376 l 118 387 l 121 445 l 129 440 q 134 472 125 492 l 117 490 q 123 508 123 532 q 123 542 122 560 q 121 578 121 587 q 121 609 125 626 l 114 662 q 125 701 122 741 l 111 749 q 150 784 188 787 l 188 764 l 185 760 l 192 750 q 189 726 185 677 q 187 664 186 639 q 187 628 181 612 q 174 588 173 585 q 176 574 174 553 q 172 530 174 521 q 180 498 190 451 z"},"t":{"x_min":0,"x_max":375,"ha":375,"o":"m 385 100 q 371 76 342 50 q 311 21 287 16 l 282 11 q 267 18 242 18 l 239 26 l 210 47 l 208 55 l 205 55 q 199 74 191 131 q 184 180 173 203 l 163 187 l 163 182 l 155 179 l 142 166 q 142 157 136 141 q 131 125 131 116 q 121 104 119 88 l 97 58 l 86 53 l 84 37 q 72 28 57 3 l 39 -8 l 33 -20 l 19 -24 l 11 -41 l -29 -66 l -58 -72 l -69 -70 l -78 -72 l -82 -67 l -79 -62 q -62 -53 -42 -35 l -18 -27 l -18 -25 l -3 -15 l -3 -5 l 13 0 l 21 20 q 28 24 36 37 q 44 49 50 53 l 50 61 q 58 64 76 92 l 76 98 q 77 104 89 116 l 89 121 l 102 137 l 105 148 l 108 148 q 125 175 146 224 q 171 278 177 304 q 179 325 189 369 l 179 369 l 176 372 l 163 367 l 147 369 l 139 359 q 105 357 87 361 l 81 348 l 63 348 l 47 361 l 39 385 l 29 393 l 34 398 l 34 401 q 48 394 79 396 l 81 393 l 89 398 l 123 401 l 131 406 l 152 401 l 155 398 l 163 401 l 160 406 l 195 404 q 196 417 208 440 q 219 463 221 475 q 221 484 221 501 q 223 539 233 612 q 233 612 238 622 l 277 617 l 291 609 l 277 591 l 285 557 l 280 549 l 271 491 l 274 483 l 274 469 l 268 462 l 268 448 l 266 443 l 263 443 q 260 423 261 406 l 276 406 l 271 398 l 305 390 l 303 404 l 355 404 l 377 390 l 369 380 l 337 377 l 329 369 q 302 363 292 364 q 283 358 268 356 l 266 348 l 258 348 q 249 338 247 330 l 250 327 l 247 317 l 258 309 q 250 285 250 250 l 253 240 l 247 235 l 247 214 q 234 196 234 163 l 229 158 l 237 108 l 234 103 l 239 100 q 236 79 247 53 l 260 37 l 284 34 q 328 54 381 115 z"},"M":{"x_min":0,"x_max":971,"ha":971,"o":"m 923 21 l 902 5 l 899 -3 q 885 -10 870 -8 q 863 -3 813 15 q 787 25 762 58 q 749 84 747 110 q 745 137 744 163 q 741 175 736 200 q 737 217 736 250 q 735 256 730 273 q 725 289 725 298 q 725 309 728 334 q 731 360 731 374 q 731 376 728 424 l 736 443 q 733 459 733 490 q 733 494 734 502 q 736 510 736 514 q 736 518 733 527 q 731 536 731 540 q 731 546 734 563 q 737 579 736 588 l 733 591 l 725 588 l 720 583 l 720 575 l 717 575 l 715 551 q 708 542 693 508 q 678 473 678 464 l 681 459 q 668 451 665 438 l 667 430 l 649 409 l 649 401 l 638 380 l 644 361 l 641 359 l 628 327 l 628 319 l 623 308 l 617 306 q 611 294 596 277 l 596 269 l 583 235 l 580 235 q 578 220 572 200 l 578 190 l 578 182 l 572 182 l 570 171 l 575 174 l 572 158 l 578 153 q 551 104 551 92 l 543 95 l 543 34 q 548 20 554 3 l 562 -5 l 562 -13 l 543 -11 l 538 -8 q 512 -8 491 5 l 491 8 l 478 34 l 483 34 l 485 58 l 478 71 l 475 69 l 467 103 l 472 129 q 469 135 459 219 l 454 219 q 445 255 435 266 l 433 282 l 435 290 l 433 298 l 441 298 l 438 332 l 422 348 l 414 390 l 404 393 l 404 422 l 398 432 l 409 432 l 414 424 q 412 449 396 467 l 398 453 l 404 443 l 388 451 l 385 456 l 380 451 q 377 471 367 509 l 372 509 l 364 543 l 362 543 l 359 551 l 348 556 l 354 562 l 354 567 l 346 572 l 343 551 l 348 533 l 343 525 q 355 476 359 435 l 351 411 q 364 330 364 327 q 364 316 360 295 q 355 273 355 262 q 355 257 356 253 l 348 237 q 350 212 345 197 q 342 189 343 187 l 333 171 l 333 158 l 327 153 l 327 140 q 310 125 305 108 q 300 89 296 71 q 292 64 285 50 q 283 38 272 16 q 255 6 229 -4 q 202 -14 190 -21 q 169 -17 127 -11 l 111 0 l 95 0 l 72 26 l 58 32 q 49 40 43 58 l 37 61 l 43 66 l 45 61 l 48 66 l 37 90 l 32 95 l 32 113 l 27 113 l 32 129 l 29 134 q 35 164 61 192 q 85 209 111 214 l 161 200 l 182 182 l 185 171 l 193 163 l 201 142 l 198 134 l 201 113 l 198 113 l 190 87 l 174 69 l 148 58 l 132 58 l 111 69 l 98 69 l 98 82 l 87 82 l 85 95 l 87 103 l 82 105 l 82 108 l 87 111 l 87 116 l 93 121 l 93 124 q 113 134 122 134 l 124 137 l 143 134 l 140 124 l 124 116 l 116 98 l 119 79 l 124 76 l 143 82 l 153 90 l 159 124 q 158 144 137 169 l 116 174 q 95 165 77 161 l 69 134 l 61 127 l 53 103 l 66 71 l 74 66 l 90 66 l 90 47 l 103 34 l 114 42 l 127 29 q 162 18 185 21 l 214 34 q 242 67 246 92 l 240 95 l 251 98 q 260 128 269 159 q 279 195 280 221 l 285 214 l 301 250 l 296 266 l 301 277 l 306 279 l 306 287 l 301 282 l 296 282 q 297 295 303 326 q 310 361 314 364 l 314 388 l 311 395 l 314 398 q 313 411 308 447 q 304 478 304 496 l 301 501 q 309 533 309 554 q 309 564 306 583 q 302 607 301 612 l 264 649 l 246 654 l 267 659 l 267 662 l 288 654 q 298 659 327 659 q 327 659 377 649 l 380 641 l 396 627 l 401 614 q 421 606 427 591 q 423 583 425 575 l 417 569 l 422 569 q 424 556 438 533 q 437 522 443 487 q 449 451 454 439 q 463 424 478 393 l 480 340 l 475 340 l 496 293 q 493 274 504 248 l 514 237 l 520 221 l 514 179 l 525 150 l 525 124 q 530 136 532 155 q 534 178 536 185 q 541 204 565 269 q 592 343 601 353 l 609 359 l 615 377 l 609 380 q 616 396 628 427 q 629 434 633 446 q 646 468 665 514 l 670 514 l 675 533 l 683 533 l 688 548 l 683 559 q 685 573 700 594 q 715 614 717 625 l 736 627 l 736 649 l 746 643 l 746 649 l 757 651 l 757 656 q 768 652 778 654 l 815 635 l 820 627 l 812 622 l 807 622 l 810 606 l 804 606 l 804 583 l 799 580 l 797 554 l 789 556 l 786 527 l 781 527 l 778 535 l 768 541 l 773 506 l 794 467 l 797 424 q 778 386 778 372 l 781 361 l 778 361 l 783 340 l 775 335 l 770 322 l 770 308 q 770 305 773 287 l 768 264 l 775 256 q 775 245 780 227 q 785 207 786 198 l 783 187 l 794 163 l 791 163 l 804 137 l 812 132 l 815 121 l 826 111 l 828 100 l 823 98 l 826 90 l 820 82 l 831 45 l 865 16 l 876 18 l 889 40 q 891 80 891 100 q 888 115 886 119 l 881 116 l 873 71 l 878 58 l 876 42 l 868 45 l 857 76 l 852 74 q 845 79 841 90 l 841 98 q 851 131 862 142 l 902 142 l 902 132 l 907 132 l 905 121 l 920 90 q 917 69 923 58 l 920 47 l 923 45 l 920 40 l 923 40 z"},"g":{"x_min":0,"x_max":360,"ha":360,"o":"m 365 -190 l 357 -198 q 358 -228 339 -266 l 339 -279 l 305 -322 l 299 -319 l 299 -311 q 289 -333 257 -353 l 244 -345 l 244 -356 l 226 -364 l 228 -366 l 207 -374 l 202 -372 l 202 -369 l 205 -366 l 197 -364 q 183 -380 165 -388 q 151 -388 125 -385 q 123 -385 117 -383 q 112 -380 110 -380 q 95 -378 80 -377 q 62 -375 52 -366 l 36 -366 l 38 -359 q 10 -353 -17 -324 l -25 -301 q -22 -283 -22 -282 q -22 -274 -23 -259 q -25 -243 -25 -235 q -25 -226 -11 -194 q 1 -164 7 -156 q 25 -129 62 -105 q 80 -99 96 -95 l 154 -95 q 182 -104 207 -129 q 215 -139 221 -160 q 228 -185 231 -192 l 231 -214 q 231 -223 199 -274 l 194 -272 l 194 -277 q 193 -277 187 -278 q 181 -280 180 -280 q 178 -280 154 -277 l 147 -282 l 112 -274 l 110 -269 l 99 -261 l 91 -266 l 65 -253 l 54 -240 q 52 -224 52 -214 q 52 -206 54 -190 q 66 -163 83 -158 l 83 -150 l 89 -142 q 103 -146 118 -145 l 131 -156 l 136 -166 l 128 -171 l 112 -174 l 96 -216 l 107 -243 l 128 -258 l 162 -243 l 173 -221 l 178 -221 l 189 -211 l 205 -214 l 210 -206 l 199 -190 l 186 -185 l 181 -156 q 165 -142 160 -132 l 170 -124 l 168 -119 l 154 -111 l 141 -113 l 141 -116 q 114 -119 112 -119 q 109 -119 91 -116 q 74 -121 52 -140 q 31 -160 25 -177 l 17 -182 q 17 -185 18 -192 q 18 -198 18 -201 q 18 -202 15 -220 l 19 -232 l 12 -235 l 15 -243 l 7 -243 q 17 -258 17 -269 l 7 -266 l 2 -277 l 12 -285 l 20 -285 l 28 -290 l 31 -298 l 46 -308 l 49 -327 l 62 -327 l 70 -322 l 96 -335 l 128 -335 l 141 -330 l 144 -340 l 152 -343 l 160 -332 l 168 -335 l 168 -330 q 180 -332 186 -332 q 191 -332 197 -330 l 197 -322 l 215 -330 l 231 -319 l 231 -314 l 236 -316 l 263 -293 l 265 -282 l 272 -279 l 270 -272 q 297 -250 307 -195 l 313 -195 l 315 -192 l 323 -203 l 323 -169 l 318 -169 l 315 -174 l 310 -169 l 299 -169 q 292 -141 294 -129 l 278 -111 l 284 -100 l 273 -100 l 278 -92 q 264 -78 252 -76 l 249 -69 q 239 -60 231 -58 l 228 -63 l 210 -58 l 191 -61 l 183 -58 l 181 -53 l 173 -55 l 165 -50 q 154 -52 144 -47 l 139 -50 l 99 -8 l 99 3 l 89 13 l 91 24 l 102 40 l 110 42 q 118 51 133 55 l 144 69 q 133 80 115 100 q 107 112 91 137 q 97 167 78 211 q 91 304 110 359 l 112 359 q 120 371 133 395 l 139 395 l 144 406 l 168 409 l 197 401 l 210 388 l 207 374 l 210 369 l 202 364 l 191 337 l 186 332 l 181 319 l 170 314 l 168 306 l 154 314 l 152 301 l 157 290 l 149 266 l 136 256 l 136 187 q 136 182 139 170 q 141 159 141 153 q 141 148 139 142 l 133 132 l 147 98 l 165 82 l 173 90 l 183 92 l 189 87 l 207 113 l 207 119 l 218 116 l 234 121 l 244 145 l 236 163 l 244 174 l 249 177 q 246 196 255 216 l 247 237 q 248 240 248 244 q 248 256 241 281 q 235 303 236 308 l 231 316 l 210 332 l 210 351 l 220 351 q 230 351 244 343 l 255 345 l 263 340 l 260 345 l 299 388 l 294 390 q 302 403 302 432 l 297 451 l 292 435 l 273 422 q 270 430 270 456 q 274 471 276 475 l 273 482 l 305 482 l 331 469 q 358 439 360 411 l 352 409 l 347 398 l 334 388 l 323 366 l 307 359 q 300 350 284 335 l 273 332 l 263 319 l 268 319 l 268 316 l 276 311 l 268 308 l 273 293 l 268 272 l 276 258 l 278 232 l 276 232 l 281 221 l 278 203 l 286 187 l 284 171 l 252 111 l 247 116 l 241 103 l 234 98 l 220 98 l 218 90 l 215 90 l 215 84 l 205 79 l 210 71 l 191 51 l 149 40 l 139 26 l 139 16 l 136 16 l 131 -5 l 133 -11 l 131 -16 l 165 -29 q 214 -22 244 -40 l 252 -47 q 270 -50 286 -63 l 289 -61 l 302 -69 l 339 -116 l 344 -111 l 350 -116 z"},"j":{"x_min":0,"x_max":285,"ha":285,"o":"m 238 525 l 230 517 l 230 514 l 225 514 l 217 490 l 193 496 l 185 514 l 185 527 q 179 538 177 551 l 180 551 l 188 559 l 214 562 l 219 548 l 235 538 z m 222 380 l 219 374 l 214 372 l 219 356 l 214 293 l 219 293 q 217 283 217 277 q 217 272 219 264 l 217 258 l 211 264 q 207 256 207 240 q 207 225 204 219 l 209 211 l 206 187 l 209 174 l 198 161 l 201 132 q 185 100 185 82 q 185 76 187 62 q 188 48 188 42 q 188 42 185 -21 l 182 -24 l 185 -29 l 180 -37 l 180 -55 l 172 -69 l 172 -95 l 167 -105 q 167 -120 168 -150 q 169 -180 169 -195 l 167 -198 l 148 -277 q 148 -288 143 -311 q 137 -321 127 -343 q 95 -369 74 -398 l 64 -398 l 59 -403 l 48 -406 l 43 -411 l 22 -411 l -35 -394 q -37 -393 -42 -389 q -57 -383 -81 -369 l -84 -369 l -84 -366 q -96 -357 -121 -343 l -126 -337 l -134 -335 q -140 -329 -144 -327 l -150 -319 q -155 -284 -155 -293 q -155 -285 -152 -268 q -150 -251 -150 -243 q -139 -218 -128 -194 q -111 -157 -102 -150 q -61 -118 -18 -118 q -11 -118 -5 -119 q 16 -128 30 -132 l 45 -145 q 65 -207 65 -222 q 65 -228 64 -232 l 66 -243 l 61 -253 l 61 -258 l 56 -258 l 56 -264 l 48 -266 l 40 -279 l 40 -293 l 30 -303 l 14 -303 l -42 -279 l -47 -272 l -44 -245 l -52 -219 q -40 -188 -21 -174 l -10 -187 l -23 -219 l -21 -221 l -21 -253 l -18 -258 l -15 -258 l -13 -266 l -5 -272 l 8 -266 l 14 -256 q 11 -229 11 -227 q 11 -223 14 -213 q 16 -203 16 -198 q 16 -175 3 -145 l -13 -140 q -22 -144 -31 -142 l -60 -156 q -61 -168 -76 -195 l -73 -200 l -79 -200 l -76 -211 l -81 -216 l -79 -237 q -87 -255 -84 -269 l -76 -279 l -76 -293 l -65 -308 l -71 -330 l -60 -348 l -47 -351 l -28 -372 l 3 -385 l 43 -380 l 64 -364 l 66 -348 l 82 -330 l 90 -298 l 101 -295 l 101 -282 l 111 -285 l 117 -282 q 106 -269 106 -256 q 119 -214 122 -179 l 119 -171 l 135 -171 l 130 -148 l 132 -140 l 138 -140 l 140 -127 l 130 -116 q 122 -57 122 -45 q 122 -28 143 45 l 146 45 l 148 40 l 156 45 l 146 71 l 146 82 l 151 87 q 148 108 148 111 q 148 133 155 173 q 163 219 164 235 q 163 250 167 277 q 167 294 161 324 q 151 312 151 303 l 148 303 l 143 290 l 138 287 l 138 279 q 128 267 107 220 q 85 174 81 159 q 60 136 11 97 l 3 114 q 14 123 25 142 q 42 170 44 172 q 53 181 69 200 q 75 212 88 237 q 95 246 106 264 q 143 336 159 403 l 169 403 l 169 406 l 201 401 z"},"i":{"x_min":0,"x_max":423,"ha":423,"o":"m 265 501 q 265 492 260 464 l 250 451 l 207 448 l 194 464 q 194 504 210 533 l 247 530 l 257 522 l 260 509 l 263 511 q 263 510 264 506 q 265 502 265 501 z m 462 122 q 460 116 429 69 l 423 67 l 422 61 l 413 51 l 400 45 l 387 24 l 374 16 l 374 11 q 344 0 318 3 l 313 5 l 305 3 q 287 5 252 16 q 216 48 207 113 l 213 113 l 213 121 l 205 132 l 210 137 l 205 145 l 199 145 q 194 163 194 216 q 194 245 192 261 q 191 264 188 275 q 185 284 186 290 l 184 293 q 179 276 174 260 q 167 232 168 229 l 160 219 l 157 206 l 160 195 l 144 158 l 128 148 q 122 132 110 113 l 110 103 l 102 98 l 102 87 l 81 76 l 81 63 l 78 61 l 81 45 q 66 34 60 10 l 47 -1 l 44 -17 l 29 -30 l 18 -54 l 13 -56 l -8 -54 l -29 -43 l -35 -30 l -19 -22 l -16 -14 q 3 -6 30 31 q 55 66 62 90 l 76 100 l 73 103 q 84 119 86 127 l 89 127 q 93 139 110 156 q 113 171 124 192 q 139 223 141 227 q 142 233 144 245 q 149 258 168 301 l 168 311 q 180 323 186 359 l 181 380 l 184 380 l 186 398 l 192 403 l 197 401 l 202 403 l 223 395 l 234 385 l 226 377 l 242 366 l 250 332 l 242 314 l 236 308 q 246 290 250 259 q 254 233 257 208 q 259 201 263 185 q 262 177 265 163 l 263 163 q 269 119 263 98 q 277 74 300 45 l 300 40 l 297 40 l 302 29 l 318 26 q 349 29 402 71 q 414 81 441 121 z"},"y":{"x_min":0,"x_max":581,"ha":581,"o":"m 583 113 l 577 104 l 577 101 q 560 88 559 83 q 525 55 458 34 l 450 13 l 440 11 l 435 0 q 435 -29 442 -86 q 446 -100 445 -108 l 437 -119 l 435 -145 l 432 -148 l 440 -153 l 437 -158 q 438 -168 429 -231 q 419 -292 416 -303 q 414 -310 395 -353 l 382 -361 l 374 -372 l 350 -385 l 342 -382 l 342 -374 l 340 -380 l 321 -372 q 315 -354 303 -345 q 298 -326 287 -306 q 289 -273 284 -243 l 295 -219 l 295 -198 q 298 -194 305 -171 q 307 -166 332 -113 q 334 -105 340 -92 q 348 -82 361 -63 l 361 -55 l 363 -55 l 374 -32 l 387 -29 l 387 -26 l 403 0 q 397 30 395 74 l 398 74 l 398 84 q 367 63 358 47 l 353 47 l 329 32 l 311 34 l 300 29 l 263 29 l 253 34 l 247 34 l 247 40 l 234 45 q 220 73 210 108 l 213 140 l 216 145 l 213 161 l 218 158 q 218 177 229 192 q 230 217 234 266 q 237 276 242 298 q 242 298 242 335 q 242 359 234 369 l 221 364 l 216 372 l 208 366 l 200 369 l 187 366 q 175 352 166 348 l 166 337 l 150 330 l 150 327 q 126 313 113 266 l 92 253 q 90 247 58 182 q 55 173 47 156 l 42 158 l 39 153 l 34 150 l 34 145 l 20 119 l -2 101 l -6 117 q 3 129 10 132 l 7 137 q 18 163 26 174 l 26 179 l 34 187 l 36 198 q 54 221 58 237 q 73 248 92 286 q 109 321 129 332 l 134 348 q 146 359 150 374 q 181 403 226 403 q 233 403 254 398 q 278 394 284 390 l 295 380 l 297 380 q 301 369 308 364 l 311 356 l 313 356 q 312 345 316 324 q 313 318 311 306 l 308 306 l 308 295 l 305 293 l 308 282 l 305 272 l 297 274 l 297 253 l 305 248 l 305 232 q 305 228 303 218 q 300 207 300 203 l 295 195 l 284 195 l 279 177 l 284 177 q 282 165 282 158 q 282 157 283 153 q 284 149 284 148 q 280 128 276 124 l 279 103 l 290 84 l 282 74 l 287 63 l 311 53 l 321 53 l 324 61 l 334 58 q 350 72 379 100 q 389 116 413 142 q 416 157 411 166 q 412 167 416 179 l 413 208 q 429 240 427 250 l 429 250 q 430 270 441 292 q 451 311 461 330 q 496 359 516 356 l 527 351 l 522 345 l 529 343 l 529 324 l 532 319 l 524 308 q 523 290 510 260 q 496 227 482 224 q 478 215 471 198 l 466 192 l 469 190 l 464 187 q 439 128 440 121 l 437 116 l 437 105 l 432 95 l 432 79 l 437 79 l 437 71 l 442 58 l 432 42 l 437 37 q 444 39 495 69 q 542 97 556 106 q 562 111 577 120 z m 493 285 l 487 287 l 477 282 q 462 252 461 229 l 466 232 q 472 240 493 285 z m 411 -105 l 400 -45 l 398 -53 l 384 -66 l 377 -82 l 369 -84 l 353 -137 l 350 -140 l 353 -153 q 344 -186 345 -190 l 342 -190 q 339 -207 329 -237 l 337 -237 l 334 -250 l 337 -250 q 341 -279 353 -319 l 366 -314 l 371 -314 l 377 -306 l 382 -303 q 394 -273 392 -243 l 398 -235 l 395 -227 q 400 -216 398 -195 l 400 -190 q 402 -168 403 -124 z"},"@":{"x_min":0,"x_max":565,"ha":565,"o":"m 521 278 l 521 269 q 513 264 501 252 q 495 242 486 223 q 462 205 452 191 q 425 156 401 143 l 399 136 l 383 136 l 377 133 l 365 136 l 363 140 l 356 140 q 328 188 318 218 l 298 194 l 280 185 l 276 176 l 265 174 l 262 169 l 254 165 l 244 144 l 226 138 l 226 120 l 208 122 l 173 156 q 165 175 161 205 l 170 245 q 169 243 168 243 q 167 243 167 246 q 167 251 170 266 q 183 275 202 300 q 221 325 233 333 q 252 342 261 349 q 284 367 338 396 l 343 393 l 347 396 l 363 371 l 365 362 l 356 337 l 352 340 l 350 337 l 338 335 l 336 330 l 327 330 l 325 326 l 318 326 l 314 330 l 307 330 l 311 319 l 293 313 q 283 303 280 297 l 273 297 l 266 284 q 261 274 247 267 l 244 263 l 244 259 l 226 217 l 220 212 l 220 207 q 201 179 202 163 l 206 160 q 246 179 265 194 l 265 199 q 285 212 291 228 q 300 231 310 250 l 312 253 q 320 269 325 277 q 324 281 324 284 q 324 295 332 313 l 336 308 l 340 311 l 345 306 l 347 301 l 352 301 l 354 297 l 358 297 q 367 275 367 245 l 367 214 l 367 214 q 367 215 367 215 l 367 215 l 367 215 l 367 215 q 361 215 361 208 l 363 184 l 363 173 l 363 167 l 363 163 q 363 163 364 160 l 365 158 l 365 157 q 367 153 367 151 l 388 158 l 389 163 l 417 183 l 418 183 q 427 190 455 218 l 458 220 q 458 221 458 222 q 456 227 455 228 q 455 236 464 243 q 472 251 472 260 q 472 265 469 268 q 466 271 466 276 q 466 286 476 286 q 477 286 480 283 q 481 282 484 282 q 492 282 492 285 q 492 286 487 293 q 480 303 480 310 q 480 314 490 325 q 495 331 495 334 l 495 333 l 495 333 l 495 333 l 495 333 q 491 343 490 346 q 488 366 484 366 l 484 366 l 482 366 q 482 366 479 368 l 467 379 q 464 380 464 390 l 464 392 q 464 401 460 402 q 457 405 457 414 q 456 420 456 422 q 455 422 455 423 q 455 429 447 440 q 434 444 413 453 q 411 456 405 461 q 389 468 367 468 q 346 468 339 462 l 325 462 q 325 483 302 483 q 294 483 289 478 q 286 472 279 472 l 272 472 q 271 472 263 471 q 251 470 248 470 l 246 470 q 244 471 237 461 q 208 461 203 458 q 198 456 188 441 q 187 440 182 437 q 179 436 172 431 l 171 431 q 171 430 166 424 l 165 422 l 164 420 q 159 414 153 414 q 144 414 137 416 q 132 406 124 399 q 116 393 110 384 q 108 380 103 370 q 80 343 80 328 q 80 320 70 304 q 79 299 86 292 q 86 289 74 275 q 56 255 56 244 q 56 233 80 217 l 80 186 l 84 186 l 84 140 q 85 133 91 120 q 108 112 117 96 q 121 89 137 73 l 139 71 q 144 71 176 61 q 196 55 202 55 q 234 36 248 36 q 255 36 264 40 q 272 44 275 44 q 281 44 286 39 q 289 35 291 35 q 295 35 303 47 q 308 55 312 55 q 316 55 327 51 q 333 48 337 48 q 338 48 339 49 q 371 50 390 57 q 413 75 447 97 q 454 97 463 99 q 467 102 467 109 q 467 113 466 119 q 465 124 465 129 q 465 139 477 139 l 482 156 l 494 173 q 504 187 510 187 q 513 187 513 179 q 513 162 506 130 q 502 116 499 112 q 489 101 470 86 q 462 75 444 59 q 421 45 388 29 q 387 29 380 26 q 375 25 372 25 q 367 27 365 29 q 356 34 349 34 q 319 34 304 27 q 300 25 290 19 q 278 12 271 12 q 250 12 233 24 q 232 24 232 26 l 232 26 q 232 29 230 29 q 224 29 213 23 q 207 19 203 19 q 196 19 173 30 l 170 31 q 150 41 145 43 q 132 45 108 50 l 102 52 q 97 52 91 54 l 91 55 q 90 58 87 62 q 77 72 66 101 q 62 112 61 115 q 60 126 57 137 q 56 140 48 146 q 39 153 39 159 q 39 162 48 176 q 42 180 28 193 l 28 223 q 29 227 33 237 q 34 240 37 251 l 37 287 q 41 290 49 298 q 59 306 59 339 l 59 349 q 60 364 71 375 q 87 392 90 397 q 110 437 125 449 q 128 451 130 453 l 132 456 q 137 460 152 476 q 154 477 157 478 q 194 487 212 496 l 258 496 q 262 498 283 508 l 288 510 l 330 510 q 340 504 347 504 q 356 504 371 512 q 380 517 391 517 q 404 517 411 506 q 417 496 429 494 q 438 492 447 481 q 455 472 458 471 q 489 469 495 462 q 499 458 507 435 q 510 433 515 427 q 518 397 526 387 q 530 383 530 377 l 530 376 q 529 373 528 367 q 526 361 526 357 l 526 356 q 526 349 523 345 q 520 341 520 333 q 520 326 524 316 q 526 311 526 307 q 526 305 523 291 q 521 281 521 278 z"},".":{"x_min":0,"x_max":237,"ha":237,"o":"m 162 55 l 160 16 l 154 13 q 133 14 115 3 l 86 24 l 75 42 l 81 71 l 88 79 l 91 92 l 110 95 q 115 91 128 84 q 142 79 146 74 l 149 74 l 146 63 z"},"p":{"x_min":0,"x_max":495,"ha":495,"o":"m 455 198 q 452 189 452 137 q 452 124 443 97 q 434 71 426 58 l 426 55 l 421 58 l 415 42 l 381 16 l 381 13 l 376 13 l 376 5 l 344 3 l 302 21 l 289 84 l 310 90 q 319 70 328 42 l 342 32 l 349 32 l 347 34 l 355 37 l 355 42 l 371 50 l 381 61 l 400 111 q 398 168 407 198 l 405 208 l 400 214 l 400 221 l 386 245 q 387 248 387 251 q 387 265 374 288 q 359 313 357 322 l 349 324 l 342 340 l 334 330 l 331 337 l 326 332 l 315 332 q 315 315 299 301 l 297 301 l 286 287 l 284 290 q 269 280 255 261 l 249 232 l 239 216 l 241 182 l 249 171 q 239 149 239 103 q 239 97 240 82 q 242 69 241 61 l 247 55 q 247 47 243 28 q 239 9 239 0 q 239 -26 244 -34 l 241 -42 l 247 -50 l 247 -61 l 249 -66 q 249 -92 241 -108 q 244 -132 244 -134 q 244 -138 241 -145 q 239 -152 239 -156 q 239 -262 252 -287 l 249 -295 l 257 -295 q 258 -310 255 -327 l 262 -340 l 262 -359 l 265 -364 l 273 -369 l 276 -374 l 273 -374 l 273 -385 l 260 -377 l 252 -385 l 241 -380 l 231 -366 l 210 -366 l 189 -351 l 178 -356 l 173 -351 l 149 -351 l 146 -343 q 153 -342 165 -332 q 175 -298 173 -293 l 181 -293 q 173 -277 173 -256 q 179 -239 186 -219 l 181 -219 q 183 -209 183 -203 q 183 -184 181 -174 l 183 -169 q 179 -164 181 -134 q 183 -87 183 -95 q 183 -86 181 -68 q 178 -50 178 -42 q 178 -33 182 -13 q 186 6 186 16 q 186 20 184 28 q 182 37 181 40 q 178 66 178 95 q 178 111 183 139 q 188 176 189 182 l 194 190 q 189 257 189 272 q 189 282 194 322 l 186 316 l 168 279 l 165 282 q 161 269 144 246 q 127 223 115 214 l 115 198 l 96 174 l 94 177 l 78 169 l 67 171 l 65 161 l 59 156 l 65 153 l 59 150 l 49 132 q 32 122 25 113 l 12 111 l 8 105 l 0 100 q -6 104 -20 108 l -17 114 l -6 119 q 16 150 33 156 l 57 187 q 68 191 106 243 q 141 290 149 308 l 160 317 l 162 330 l 170 332 l 181 359 l 178 382 l 186 398 l 189 398 q 194 414 194 480 q 194 487 191 493 l 199 496 l 199 511 l 204 514 l 210 511 q 235 529 247 530 q 249 535 262 548 l 268 548 l 270 538 q 265 523 263 496 q 261 466 257 453 q 262 438 262 430 q 262 415 258 390 q 253 361 252 351 l 255 345 l 249 306 l 257 303 l 265 303 l 273 316 l 276 316 l 273 322 l 278 322 q 283 332 305 351 q 333 363 378 359 l 397 348 l 405 348 l 410 340 l 418 340 l 418 332 l 429 319 l 429 311 l 436 298 l 436 290 l 442 282 q 448 269 449 236 q 451 205 455 198 z"},"X":{"x_min":0,"x_max":814,"ha":814,"o":"m 766 108 l 763 105 q 764 97 764 93 q 764 71 755 55 l 748 53 l 748 42 l 740 40 l 736 33 q 726 11 717 4 q 706 -5 678 -10 q 673 -11 668 -11 q 654 -4 634 -4 q 633 -4 624 -5 l 563 18 l 571 21 l 555 26 l 550 32 l 550 37 l 537 42 l 526 61 l 516 66 l 510 113 l 497 121 q 495 145 479 165 l 479 181 l 471 189 l 473 210 l 458 226 l 458 231 l 450 252 l 450 258 l 439 263 l 423 297 l 402 303 q 387 295 376 274 l 376 266 q 363 259 351 246 q 336 229 336 219 l 313 203 q 309 192 297 177 q 284 161 281 153 l 276 153 l 265 140 l 260 142 l 255 121 l 220 79 q 207 48 204 16 q 212 -16 220 -29 l 212 -34 q 171 -13 157 18 l 152 65 q 155 92 181 129 l 197 134 l 202 148 l 207 150 q 208 159 252 197 q 258 203 264 208 q 272 215 276 219 q 319 256 320 266 l 328 272 l 326 274 l 331 274 l 342 285 l 339 290 l 352 301 l 360 322 l 371 316 l 378 359 l 384 359 l 384 374 q 371 389 365 424 l 352 442 l 350 469 l 344 477 l 357 484 q 357 494 347 511 l 339 511 l 334 519 l 326 519 q 300 593 252 634 l 233 643 l 233 648 l 194 671 l 199 675 l 194 680 l 181 680 l 178 688 l 149 696 q 122 683 102 680 l 78 648 l 52 632 l 49 613 q 54 575 65 556 q 93 529 125 529 q 128 529 131 530 l 146 538 q 145 543 145 546 q 145 562 157 590 l 154 604 l 139 611 l 123 593 l 120 572 l 112 567 l 102 577 l 107 620 l 136 641 l 168 626 q 180 615 197 584 l 194 572 l 199 567 l 194 551 l 199 530 q 192 526 189 525 q 155 508 152 501 l 133 501 q 126 501 120 504 l 115 496 l 107 501 l 96 493 q 63 531 41 540 q 16 590 15 611 l 20 632 l 17 632 l 17 646 l 25 650 l 28 667 q 39 677 49 696 q 91 728 159 728 q 196 728 254 709 q 273 703 286 696 l 331 650 q 339 646 352 634 l 355 638 q 361 602 393 551 l 385 548 l 385 540 l 398 511 l 414 501 l 419 493 l 414 490 l 414 469 l 424 459 l 424 469 q 430 461 432 451 l 435 448 l 443 422 l 463 422 l 471 432 l 479 459 q 487 474 502 482 l 510 496 l 510 506 q 517 518 541 536 q 565 556 574 572 l 574 575 q 592 589 609 627 q 623 656 632 667 l 639 667 l 634 678 l 642 693 l 639 707 l 642 709 l 653 701 l 653 709 l 682 667 l 690 622 l 684 613 l 666 605 l 661 605 q 637 553 603 535 l 600 527 l 581 506 l 579 498 q 558 484 547 461 l 542 464 l 534 459 l 531 467 l 521 456 l 516 438 q 471 398 472 382 l 490 335 l 482 332 l 466 335 l 472 322 l 466 316 l 509 277 q 508 253 535 224 q 541 201 545 161 l 561 151 l 576 103 q 584 99 592 76 l 603 66 l 603 55 l 608 50 l 616 29 l 624 32 l 629 24 l 658 21 l 676 26 q 693 36 705 58 l 703 47 l 716 55 l 726 79 l 716 79 l 708 66 l 719 98 l 721 84 q 730 102 737 108 l 737 129 q 720 137 700 179 l 690 169 l 676 163 l 674 177 l 668 179 l 655 163 l 637 166 l 624 161 l 618 153 l 624 145 l 624 134 l 634 129 l 634 108 l 650 105 q 669 118 676 134 l 682 134 l 682 142 q 690 136 697 121 l 682 108 l 676 92 l 647 92 q 633 95 621 99 l 618 100 l 595 142 l 603 171 l 626 203 l 650 219 l 663 221 l 692 237 l 692 229 l 697 232 l 711 227 l 724 214 l 732 211 l 740 195 l 750 190 l 748 200 l 755 198 q 757 191 763 169 l 763 167 l 764 153 q 766 121 766 119 l 766 114 l 766 110 z"},"*":{"x_min":0,"x_max":509,"ha":509,"o":"m 454 477 l 451 473 l 424 473 l 414 478 l 414 480 l 397 484 l 392 474 l 374 464 q 363 468 349 468 q 344 468 335 467 l 329 471 l 291 468 l 305 452 q 351 434 389 371 l 382 367 l 376 369 q 361 379 334 401 q 318 419 281 446 l 284 427 l 282 423 q 289 401 298 387 l 296 364 l 285 356 l 295 307 l 309 294 l 301 288 l 295 293 l 286 293 l 279 297 l 271 294 q 250 314 236 318 q 241 359 241 369 q 241 377 235 398 q 231 411 231 420 l 231 420 q 231 421 232 426 l 232 427 l 233 428 q 234 433 234 434 l 223 428 l 216 418 l 214 420 q 201 408 182 382 l 174 379 l 171 372 l 167 375 l 161 364 l 161 356 l 157 356 l 144 366 l 136 392 l 146 401 l 153 415 q 182 430 215 477 l 203 484 l 194 480 l 192 475 l 186 480 l 175 474 l 171 474 l 166 465 l 162 465 l 160 461 l 147 461 q 140 461 124 466 l 116 456 l 107 462 l 90 466 l 84 477 l 78 479 q 72 502 58 513 l 55 524 l 62 520 l 75 518 l 78 515 l 81 519 l 91 515 l 125 519 q 150 509 212 509 l 210 516 q 190 529 168 571 l 158 575 q 154 584 144 592 l 137 592 l 123 627 l 123 633 l 129 637 l 129 631 l 133 633 q 146 613 167 600 l 171 590 l 194 579 l 217 547 l 217 540 l 231 523 l 231 553 q 231 564 226 583 q 220 606 219 614 q 219 613 219 612 q 219 612 220 612 l 220 612 l 220 612 q 222 614 222 620 q 222 631 218 663 q 215 693 211 701 q 209 703 207 707 l 219 703 l 215 709 q 267 689 280 670 l 280 664 l 267 654 l 269 645 l 273 643 l 277 628 l 275 619 l 272 619 q 272 615 272 611 q 272 602 270 590 l 276 575 l 274 565 l 267 565 l 269 548 l 265 539 l 269 531 q 339 601 355 639 l 370 618 l 373 593 l 367 588 l 363 578 l 354 578 l 346 574 l 339 561 q 327 556 303 520 l 294 516 l 286 516 l 287 514 l 313 511 l 336 519 q 400 519 426 509 l 444 513 q 446 489 454 477 z"},"Y":{"x_min":0,"x_max":703,"ha":703,"o":"m 652 442 l 647 434 l 650 424 q 631 386 631 371 q 631 365 632 350 q 632 348 633 336 l 634 329 l 618 273 l 610 273 q 594 251 594 236 l 597 226 q 581 215 565 184 q 569 164 570 160 q 575 139 576 135 q 578 127 579 122 q 579 109 584 78 q 588 70 594 57 q 602 12 602 -29 q 602 -38 600 -46 q 597 -55 597 -61 q 597 -62 597 -64 l 594 -64 q 589 -80 589 -88 l 586 -88 l 586 -114 q 586 -116 586 -116 q 588 -125 589 -125 l 589 -125 l 589 -125 l 589 -125 l 589 -125 q 589 -154 576 -193 l 568 -193 l 568 -199 l 563 -196 l 557 -217 l 539 -241 l 531 -246 l 526 -254 l 512 -259 l 497 -278 l 465 -291 l 465 -299 l 460 -299 l 452 -309 l 423 -317 l 423 -309 q 408 -323 360 -323 l 323 -307 q 313 -295 296 -286 q 266 -234 254 -228 l 246 -201 q 246 -161 267 -122 l 288 -101 l 288 -91 l 302 -75 l 317 -72 l 320 -67 q 350 -45 404 -46 q 410 -48 415 -48 q 417 -48 420 -48 l 423 -64 l 433 -75 l 441 -101 l 452 -109 l 462 -138 q 455 -155 449 -159 l 447 -167 l 441 -167 q 440 -173 423 -204 l 412 -209 l 407 -217 l 375 -214 l 354 -196 l 341 -172 q 345 -151 357 -141 l 357 -135 l 370 -130 l 378 -130 l 378 -133 l 383 -133 l 386 -138 q 381 -145 375 -146 l 375 -175 l 383 -180 l 383 -191 l 389 -185 l 399 -196 q 417 -162 417 -127 q 417 -119 415 -112 l 410 -114 l 407 -106 l 391 -101 l 389 -106 l 381 -101 l 336 -101 l 325 -106 l 325 -109 l 320 -109 l 299 -117 l 286 -149 l 286 -185 l 315 -262 l 338 -288 l 365 -294 l 372 -287 l 420 -278 l 424 -274 l 443 -261 l 467 -243 l 476 -236 l 481 -225 l 486 -225 l 491 -209 l 497 -212 q 508 -194 517 -163 q 531 -109 531 -65 q 531 -41 526 -9 l 539 -19 l 539 -9 l 526 10 l 526 25 q 534 50 536 54 l 534 91 l 523 86 l 520 81 l 510 107 l 502 94 l 505 83 l 491 62 l 478 57 l 476 47 l 478 44 l 449 31 l 447 28 l 436 20 l 433 15 l 418 4 l 418 -4 l 391 -9 q 370 0 354 0 q 352 0 346 -1 l 346 2 l 338 2 q 317 21 296 31 q 275 62 270 81 l 270 94 l 249 120 q 248 132 246 148 l 246 149 q 246 157 251 184 l 246 194 l 246 202 l 251 202 q 250 215 250 222 q 250 234 265 363 l 265 371 l 270 379 l 270 373 l 278 381 l 280 413 l 291 434 l 283 447 l 283 460 l 299 458 l 296 489 l 288 503 l 288 534 l 296 553 l 288 579 l 283 584 l 273 576 l 265 584 q 267 590 267 596 q 267 604 265 619 l 257 627 l 265 634 l 217 671 l 159 682 l 135 677 l 133 671 l 114 671 q 96 655 93 645 l 93 640 l 91 640 l 91 621 l 85 613 l 88 608 q 82 587 77 567 l 75 561 q 75 522 83 508 l 80 492 q 86 466 99 442 l 114 429 l 128 431 l 135 447 l 159 460 l 167 479 l 167 487 l 164 487 q 164 505 170 511 l 172 558 l 157 592 l 151 590 l 146 598 q 142 589 133 582 l 130 574 l 122 574 l 125 566 l 122 561 q 120 545 120 540 q 120 536 122 524 l 133 516 l 138 500 l 146 500 l 149 489 l 138 479 l 125 487 l 112 508 l 112 516 l 106 526 l 109 532 l 101 534 l 104 545 l 101 566 l 109 566 l 112 584 l 109 587 l 114 595 l 120 598 l 130 613 l 133 613 l 138 621 l 159 629 l 167 629 l 180 621 l 180 613 l 191 605 q 209 572 209 539 q 209 535 209 526 l 207 521 l 212 511 l 207 489 l 191 482 l 193 468 l 180 458 l 178 450 l 172 447 l 175 439 q 167 420 143 402 l 135 405 l 135 397 l 130 392 l 106 392 l 101 397 l 96 395 l 88 402 l 80 402 l 72 408 l 70 418 l 64 421 q 56 444 43 495 l 38 503 l 30 545 l 33 555 l 30 582 q 32 594 43 619 q 57 646 64 650 l 64 658 l 77 674 l 85 671 q 94 682 102 688 q 116 697 148 703 q 177 708 209 708 q 218 708 225 708 l 236 700 l 233 692 l 262 677 l 262 674 q 301 660 313 639 l 326 621 q 344 595 346 592 q 363 562 363 542 q 363 536 362 532 l 378 497 q 369 476 367 450 l 373 439 q 366 426 366 404 q 366 398 367 392 l 373 387 l 365 373 l 365 363 l 362 360 l 357 342 l 352 337 l 349 337 l 336 318 l 341 315 l 333 271 l 328 271 l 328 284 l 317 271 l 320 252 l 328 255 l 331 247 l 328 247 l 320 215 l 325 215 q 326 211 326 208 q 326 200 323 189 l 325 181 l 317 170 l 312 168 l 309 157 l 317 152 q 316 139 316 130 q 316 104 323 81 l 320 76 l 320 68 l 315 65 l 320 52 l 341 36 l 367 31 l 396 41 l 396 44 q 414 52 425 68 l 428 68 l 433 62 l 452 70 q 464 84 470 99 l 476 102 l 476 120 l 507 152 l 507 244 l 502 247 l 497 257 l 489 247 q 489 259 493 274 l 494 280 q 499 299 499 300 q 500 300 500 304 q 500 309 501 322 q 502 325 505 352 l 494 360 q 496 389 507 431 l 499 468 q 512 511 512 541 q 512 547 510 553 q 518 590 541 634 l 555 634 l 563 648 l 576 658 q 587 664 594 664 q 595 664 597 663 l 602 653 l 607 656 l 621 656 l 634 645 q 641 627 650 592 l 657 587 q 663 567 663 558 q 663 541 657 502 q 652 469 652 442 z m 631 463 l 631 529 l 626 542 q 626 550 626 555 q 626 586 610 616 l 613 629 l 594 629 l 594 624 l 584 616 q 583 600 573 579 l 576 574 l 570 555 l 568 558 q 560 538 559 509 q 559 489 557 482 q 557 478 548 457 q 547 453 539 431 q 539 405 544 395 l 555 387 l 555 381 l 536 358 l 541 323 l 549 315 l 557 313 l 555 247 q 555 240 557 231 q 570 257 578 289 l 592 302 q 602 311 604 360 q 607 412 607 414 q 607 417 607 426 l 621 439 z"},"c":{"x_min":0,"x_max":407,"ha":407,"o":"m 412 107 l 407 99 l 394 92 l 394 82 l 381 79 l 378 74 q 348 60 333 31 l 307 18 l 307 13 l 304 13 l 299 3 l 276 -7 q 268 -7 250 -7 q 233 -8 225 -8 q 232 -8 180 0 l 175 3 l 175 0 l 151 5 l 99 50 q 96 56 91 63 q 86 66 78 74 q 60 96 46 148 q 43 157 40 165 q 36 175 38 182 l 35 190 q 44 237 41 274 l 43 274 l 67 319 l 70 319 q 126 391 212 424 l 246 427 l 262 417 l 265 409 l 289 398 q 311 379 315 359 l 315 353 l 320 343 l 320 319 l 325 314 q 327 288 315 266 l 307 261 l 310 258 q 303 253 294 237 l 286 232 l 281 221 l 265 214 l 262 216 l 252 203 l 244 203 q 238 203 223 208 l 212 219 q 209 258 196 272 l 199 285 q 194 300 194 308 q 194 316 196 330 l 207 345 l 215 348 l 228 343 l 231 332 l 217 303 l 220 277 q 229 254 244 243 l 254 258 l 260 261 q 269 277 283 311 l 281 319 l 273 322 q 274 346 270 369 l 265 374 l 265 388 l 257 395 l 246 398 l 246 401 l 225 403 q 177 395 154 348 l 157 337 l 130 290 l 128 290 l 125 279 l 122 279 q 121 267 112 240 l 115 240 l 104 232 q 104 213 109 179 l 104 166 q 104 159 111 125 q 118 94 117 90 q 126 81 133 58 l 162 40 l 162 34 l 217 18 q 246 29 262 26 l 265 29 l 265 32 l 281 45 l 294 47 l 310 58 l 312 63 l 325 66 l 328 76 l 357 84 l 370 95 l 372 95 l 401 119 l 402 119 l 410 116 z"},"!":{"x_min":0,"x_max":305,"ha":305,"o":"m 205 604 l 200 604 l 197 596 q 203 581 203 556 q 203 549 201 544 q 201 543 201 542 l 200 539 l 200 538 l 200 538 l 187 527 l 179 467 l 187 446 l 187 427 l 192 422 l 195 409 l 176 390 q 179 367 189 337 q 189 321 176 295 l 181 279 l 176 277 q 169 253 164 214 q 158 173 152 153 l 142 145 l 137 153 l 126 156 l 110 169 l 105 182 q 113 219 113 239 q 113 243 113 250 l 115 250 l 110 272 q 111 280 119 310 l 118 316 l 118 317 l 118 317 q 118 317 118 316 q 118 323 114 347 l 113 355 l 111 362 q 108 385 108 390 l 105 393 l 108 398 l 102 406 l 102 411 l 110 414 l 110 424 l 118 424 q 120 436 121 453 l 121 453 q 121 459 120 477 q 118 494 118 502 l 118 508 l 118 511 l 110 527 l 115 535 l 113 535 l 108 577 l 115 601 l 100 638 l 110 635 q 113 656 113 670 q 113 673 113 678 l 108 691 q 147 682 166 662 q 172 651 189 635 l 197 633 z m 173 -13 l 137 -3 q 130 6 110 26 q 105 42 105 50 l 105 63 l 115 71 q 116 81 123 100 l 126 98 l 139 98 l 152 87 l 158 87 l 163 69 l 158 63 l 150 63 l 144 53 l 163 50 l 171 45 z"},"/":{"x_min":0,"x_max":489,"ha":489,"o":"m 489 692 l 484 664 l 488 659 l 475 644 l 469 649 l 463 635 q 463 609 460 604 l 452 598 l 449 591 l 443 596 q 404 548 397 507 l 395 508 q 395 507 396 504 l 396 503 l 396 502 q 396 499 396 498 q 396 497 396 496 l 396 490 q 396 489 396 487 q 395 480 395 479 l 392 475 l 392 465 q 385 462 381 459 q 370 452 367 451 l 355 451 l 350 441 l 341 441 l 330 433 l 330 428 l 325 423 q 321 415 321 409 l 319 409 q 315 403 311 399 l 311 390 l 304 390 q 292 365 275 316 l 278 303 q 255 280 249 244 l 240 244 l 218 202 l 207 202 l 187 187 l 181 156 l 176 150 q 175 142 156 108 q 137 77 129 68 q 119 38 112 21 l 107 22 q 105 19 93 -11 q 78 -46 64 -57 q 68 -58 70 -58 q 76 -58 82 -55 l 71 -78 l 54 -82 l 51 -85 l 48 -79 q 42 -83 31 -83 l 6 -56 l 0 -36 l 5 -29 l 9 -12 q 22 1 41 8 q 65 27 126 183 q 136 195 147 229 l 158 244 l 164 244 l 167 250 l 174 250 q 195 271 205 299 l 227 320 q 229 328 232 344 q 268 399 287 431 q 290 440 318 497 q 324 509 327 515 q 335 528 339 536 q 352 558 355 563 q 360 571 361 574 q 362 576 367 587 q 379 597 389 613 l 391 627 l 413 658 q 412 691 439 728 l 448 731 l 446 737 l 449 742 l 455 732 l 461 738 l 475 718 l 477 718 l 484 693 z"},"[":{"x_min":0,"x_max":450,"ha":450,"o":"m 386 -49 l 380 -63 l 372 -69 q 352 -74 313 -72 l 308 -74 l 238 -72 l 238 -78 l 195 -78 q 181 -73 163 -67 l 161 -46 l 172 -46 l 178 -28 l 172 18 q 181 29 193 201 l 175 220 l 175 288 l 172 647 q 172 648 169 657 q 166 665 166 667 q 165 684 164 701 q 163 719 155 734 l 166 734 l 163 740 l 172 740 l 175 748 q 182 747 262 744 q 320 742 340 729 l 338 711 q 320 717 313 717 l 250 717 l 258 682 l 265 674 l 265 662 l 258 665 l 258 659 l 250 659 l 244 651 l 253 635 l 235 615 l 250 557 l 244 528 l 262 500 l 256 470 q 265 448 262 433 l 256 430 l 262 389 l 253 387 l 253 380 l 247 380 l 230 340 q 235 317 242 244 l 258 238 l 256 220 l 265 213 q 262 186 262 186 q 262 180 264 167 q 265 155 265 149 q 265 134 258 92 q 250 50 250 29 q 257 2 265 -30 q 288 -31 311 -31 q 347 -33 354 -39 l 363 -37 l 372 -39 z"},"6":{"x_min":0,"x_max":431,"ha":431,"o":"m 396 171 q 393 140 372 103 l 364 95 q 364 76 346 53 q 319 32 301 29 l 280 11 l 261 13 l 245 5 l 245 -3 q 237 1 226 1 q 222 1 214 0 l 174 21 l 166 18 l 161 24 l 151 29 l 148 37 l 137 34 l 129 40 l 124 55 l 103 69 l 95 82 l 100 87 l 93 108 l 82 121 l 87 124 l 79 134 l 85 137 l 71 166 l 66 166 l 61 182 l 50 185 l 48 200 l 50 206 l 45 211 q 45 227 40 253 l 48 253 q 45 261 42 279 q 42 333 64 393 q 68 399 77 417 q 82 433 93 459 l 122 496 q 142 521 153 525 l 172 525 l 185 530 l 185 533 l 190 538 q 228 552 254 552 q 272 552 295 537 q 322 521 335 496 l 327 488 l 314 488 l 301 482 l 290 485 l 288 490 l 272 501 l 269 511 l 272 527 l 222 511 q 210 504 182 482 l 182 469 l 177 456 l 169 453 l 169 432 l 164 419 l 164 406 l 153 401 l 143 406 l 135 337 l 132 335 q 130 317 126 279 l 126 279 q 126 273 129 258 l 124 256 q 119 227 119 215 q 119 203 124 156 l 126 151 l 134 136 q 153 94 172 82 l 174 63 l 190 53 l 193 63 l 206 45 l 209 45 l 209 40 l 216 40 l 224 32 l 240 32 l 240 45 l 248 42 q 268 43 296 55 l 298 53 l 298 47 l 303 45 l 317 63 l 314 71 q 377 126 377 180 q 377 183 376 189 q 375 195 375 198 q 375 205 377 214 l 346 250 l 346 258 l 338 269 q 312 273 298 285 l 290 277 q 271 279 265 279 q 260 279 253 277 l 248 274 l 251 266 l 248 261 l 245 266 l 240 258 l 240 253 l 238 248 l 227 240 l 222 243 l 216 237 q 210 222 210 211 q 210 208 211 203 l 209 203 l 216 185 q 215 178 215 175 q 215 153 227 134 l 243 119 l 251 127 l 253 119 l 269 116 l 288 127 l 282 153 l 285 163 l 269 187 l 267 208 l 277 224 l 285 224 l 296 219 l 298 214 l 301 211 l 309 185 l 317 179 l 314 171 l 317 158 l 314 153 l 317 137 q 298 117 280 98 l 280 92 l 274 90 l 269 82 q 254 88 238 90 l 235 84 l 230 87 l 227 84 l 219 87 q 217 91 215 95 q 211 103 206 112 q 194 136 188 144 q 166 174 166 217 q 166 254 188 281 q 195 290 209 303 l 235 311 l 251 303 q 263 304 269 304 q 322 304 369 277 l 369 269 l 390 240 q 390 215 396 171 z"},"r":{"x_min":0,"x_max":350,"ha":350,"o":"m 365 102 q 364 86 329 43 q 296 3 281 -6 q 273 -9 255 -12 q 252 -12 247 -12 q 242 -11 239 -11 q 233 -4 219 8 q 205 19 199 26 q 191 94 191 82 q 191 86 192 95 q 194 104 194 108 q 194 110 191 137 l 204 163 l 202 177 l 204 179 q 191 190 196 229 l 207 248 l 212 248 l 216 279 q 196 298 175 314 l 173 322 l 167 327 l 157 316 l 152 298 l 144 287 l 141 272 l 136 266 l 136 253 q 125 244 119 226 q 107 195 107 195 q 103 187 65 145 l 54 140 l 54 134 l 46 129 l 46 120 l 37 115 l 34 106 l 29 109 l 26 99 l 14 90 l 5 89 l -4 95 l -5 100 l 0 105 l 5 105 l 3 116 l 13 119 q 15 132 37 159 q 59 185 70 190 l 83 214 l 75 219 q 84 239 101 279 l 115 293 l 128 337 q 125 342 123 356 l 128 372 q 89 421 91 493 l 86 496 l 94 514 l 104 511 l 109 527 l 115 525 l 149 527 l 178 496 l 188 472 l 181 451 l 188 409 l 183 403 q 186 383 178 356 q 187 342 199 332 q 215 327 233 314 l 241 327 l 254 327 q 257 327 275 324 l 289 311 l 281 295 l 281 272 l 275 266 l 273 272 l 254 245 l 257 237 l 249 227 l 252 219 l 241 206 q 244 186 233 158 l 241 137 l 223 95 q 227 48 233 11 l 250 7 q 275 11 298 36 q 299 36 334 81 l 336 92 l 347 105 l 348 108 l 352 113 l 358 108 l 363 107 z"},"2":{"x_min":0,"x_max":462,"ha":462,"o":"m 450 108 q 449 98 439 84 q 439 79 439 76 q 439 66 434 55 l 439 50 l 434 42 l 439 24 l 423 18 l 415 11 l 413 5 l 389 3 l 376 18 l 357 21 l 357 26 l 347 34 l 340 34 q 312 34 310 32 l 262 40 l 223 29 l 207 34 l 204 29 l 178 11 l 162 8 l 157 -3 l 144 -16 l 133 -18 q 110 -3 67 18 l 75 26 l 78 24 l 81 40 l 70 40 l 67 45 q 67 62 81 94 q 93 124 94 127 l 102 127 l 131 166 l 133 174 l 128 171 l 125 177 l 139 182 l 136 169 l 141 166 l 162 211 l 165 200 q 171 207 186 219 l 218 272 q 243 290 265 298 q 278 329 320 388 l 313 385 l 310 393 q 319 415 319 437 q 319 443 318 453 l 307 472 l 291 477 l 270 509 l 252 514 l 239 525 q 235 524 231 524 q 223 524 202 530 q 182 535 173 535 q 167 535 152 530 l 154 527 l 112 517 l 104 509 q 102 496 83 472 q 81 456 81 446 q 81 435 83 417 l 107 398 l 128 403 l 128 390 l 136 393 l 146 406 l 146 417 l 141 430 l 152 440 l 152 459 l 146 459 l 144 451 l 133 448 l 133 446 l 125 446 l 115 459 l 117 464 l 128 469 l 133 477 l 139 480 l 146 475 l 165 472 q 176 464 186 438 q 186 410 175 388 l 152 388 l 149 369 l 131 361 q 117 371 91 385 l 83 382 l 81 388 l 75 388 q 62 410 38 422 l 36 451 l 25 475 l 33 504 l 41 498 l 57 519 l 73 527 q 81 536 86 556 q 98 555 104 555 q 127 555 144 569 l 157 569 l 165 575 l 162 580 q 174 579 193 577 l 194 577 q 200 577 218 583 l 220 577 l 223 580 l 236 577 l 247 580 l 257 572 l 278 569 l 278 564 l 297 562 l 297 554 l 307 556 l 318 554 l 326 556 q 338 540 347 533 l 331 527 q 357 514 373 490 l 386 453 l 402 438 l 397 435 l 392 424 l 394 419 q 389 417 386 406 l 392 393 l 389 385 l 389 366 l 376 351 l 363 345 l 339 314 l 336 316 l 334 311 l 328 314 q 273 278 260 243 l 239 227 l 239 221 l 231 219 l 218 195 l 207 192 l 204 185 l 202 187 l 194 179 l 191 156 l 194 148 l 186 121 l 181 116 l 173 116 l 168 103 l 165 100 l 168 98 l 160 84 l 186 84 q 248 84 270 95 l 289 84 q 301 83 305 82 q 351 74 355 74 l 355 74 l 355 74 l 355 74 q 355 74 355 74 l 357 66 l 368 63 l 365 58 l 365 55 l 373 53 l 389 55 q 397 65 421 92 q 431 98 444 111 z m 186 132 l 186 145 l 181 145 l 181 142 l 175 137 l 181 129 z"},"{":{"x_min":0,"x_max":405,"ha":405,"o":"m 403 -38 l 395 -63 l 362 -71 l 354 -67 q 291 -39 278 -31 q 246 -11 236 13 q 233 23 231 37 q 229 59 225 70 l 202 91 l 214 111 l 177 159 q 163 178 163 207 q 163 213 165 227 q 166 241 166 250 q 166 268 160 288 q 160 301 127 316 q 101 329 91 336 q 76 347 65 363 q 63 367 63 370 l 63 370 l 63 370 l 90 377 l 98 379 q 131 386 132 389 l 155 422 l 153 451 l 147 465 l 142 463 q 142 473 163 494 q 181 512 183 518 q 202 546 212 564 q 220 574 227 597 q 233 620 241 628 q 242 630 242 633 q 242 637 239 646 q 236 656 236 660 q 236 663 237 665 q 258 684 283 709 q 292 723 316 727 q 336 731 345 738 l 390 736 l 400 720 l 368 706 l 336 699 l 333 676 q 313 657 296 641 l 296 631 l 287 601 l 284 599 l 290 592 l 264 546 l 259 553 l 254 544 q 255 515 241 495 l 245 466 l 224 450 q 224 446 216 437 q 207 426 208 424 l 191 404 q 146 364 118 357 q 118 357 117 356 q 117 356 117 356 q 117 356 117 356 q 118 354 133 352 q 159 347 161 339 l 201 330 l 230 305 l 241 298 l 244 280 l 251 266 l 251 236 l 249 236 q 251 205 251 186 l 251 181 l 254 176 q 254 172 254 168 q 254 151 269 123 q 285 95 285 84 q 288 78 288 65 q 288 57 287 44 q 285 32 285 24 q 285 7 293 -1 q 301 -8 314 -15 q 330 -23 337 -36 l 366 -40 l 380 -38 z"},"9":{"x_min":0,"x_max":441,"ha":441,"o":"m 394 261 q 391 248 379 227 q 367 204 365 195 l 352 206 l 352 200 l 341 192 l 344 190 q 341 181 341 171 l 336 171 l 331 166 l 339 156 l 336 145 l 344 134 l 333 124 l 331 108 l 323 108 l 307 84 l 302 82 l 297 84 l 289 71 l 281 79 l 268 63 l 268 58 l 260 45 l 254 47 l 249 45 l 252 40 l 239 40 l 233 32 l 228 32 q 210 23 204 16 l 186 16 l 178 13 l 173 5 l 165 5 l 162 0 l 146 5 l 141 0 l 141 -5 l 117 -8 l 109 -3 l 101 -3 l 94 3 l 86 21 l 96 29 l 101 29 l 109 21 l 125 29 l 133 24 l 181 32 l 175 37 l 175 40 l 186 40 l 217 53 l 228 76 l 220 74 l 223 79 l 236 82 l 239 90 l 265 111 l 273 132 l 260 127 q 287 168 301 208 q 320 267 326 324 q 326 328 326 335 l 331 340 l 339 366 l 331 393 l 323 401 l 310 475 l 304 472 l 299 482 l 297 477 l 273 511 l 289 509 q 257 537 225 543 l 217 538 l 217 540 l 199 535 l 188 540 l 175 533 l 173 527 l 157 522 l 152 514 l 144 522 l 138 522 l 115 504 l 99 469 l 101 453 q 91 437 88 402 q 86 389 86 385 l 88 377 l 86 366 l 80 359 l 80 324 l 88 303 l 104 290 q 128 285 178 269 l 183 279 l 194 282 l 212 308 l 217 332 l 231 324 l 236 332 l 231 345 l 236 366 l 220 372 l 223 395 l 215 411 l 202 411 l 188 401 l 178 356 l 173 356 l 173 364 l 157 380 l 167 406 l 186 424 l 212 432 q 240 426 249 417 l 265 393 q 274 357 274 334 q 274 328 273 319 l 265 308 l 257 306 l 254 298 l 249 295 l 246 287 q 238 277 217 272 l 207 256 l 183 253 l 117 269 l 109 266 l 107 274 q 78 280 43 332 l 43 335 l 41 337 l 28 372 l 28 401 q 29 444 41 459 l 41 460 l 41 461 q 42 473 54 504 q 69 522 96 546 q 136 565 208 565 q 234 565 252 561 q 269 556 298 542 q 314 534 349 514 l 381 480 q 392 458 392 447 q 392 446 391 443 l 381 443 q 387 418 387 398 q 387 394 386 388 l 391 377 l 391 375 q 391 373 390 363 q 390 360 390 358 q 389 353 389 348 l 389 344 l 389 343 l 394 340 l 391 311 l 394 301 q 388 284 386 272 z"}," ":{"x_min":0,"x_max":210,"ha":210,"o":""},"I":{"x_min":0,"x_max":438,"ha":438,"o":"m 428 712 l 426 702 q 419 696 411 656 q 403 615 405 602 l 397 586 l 392 586 l 384 546 l 381 546 q 378 522 378 520 l 378 428 l 381 420 l 378 420 l 378 415 l 386 415 l 397 407 q 391 394 376 375 q 372 352 360 338 l 368 328 q 360 296 360 270 q 360 270 363 243 l 357 219 l 352 217 l 357 212 l 349 169 l 373 173 l 370 181 l 386 202 l 373 231 l 373 234 l 384 236 l 389 228 l 399 226 l 405 213 l 392 178 l 397 173 q 378 154 347 147 l 344 56 l 336 59 l 318 6 l 286 -26 l 281 -28 l 286 -36 q 258 -38 241 -52 l 239 -63 l 228 -63 l 228 -52 l 223 -47 l 225 -39 q 203 -52 186 -70 l 181 -68 l 186 -57 l 160 -65 q 120 -54 117 -53 q 84 -42 80 -36 l 73 -23 l 65 -20 l 51 -7 l 49 11 l 30 30 l 33 32 q 27 42 23 64 q 19 86 20 98 q 38 118 41 138 l 46 140 l 49 138 q 81 156 86 156 l 86 159 l 104 162 l 120 159 l 133 164 l 138 159 l 154 156 l 160 148 l 181 143 l 202 111 l 204 90 l 210 88 q 201 67 204 48 l 178 17 l 162 11 l 146 11 l 138 14 l 133 9 l 131 14 l 115 14 l 109 27 l 109 38 l 104 30 l 99 35 l 96 43 l 102 46 l 96 48 l 94 77 l 107 101 l 120 106 l 117 98 l 128 98 l 133 93 l 138 96 l 133 77 l 128 72 l 131 59 l 128 43 l 136 32 l 144 30 l 146 27 l 152 30 l 160 27 l 162 32 l 173 40 q 186 68 183 82 l 181 75 l 175 75 l 178 101 l 175 111 l 152 133 l 131 140 q 144 132 149 125 l 133 133 l 109 133 l 88 119 l 80 122 l 78 114 l 73 111 l 67 101 l 65 104 q 54 78 57 48 l 65 46 q 75 28 75 19 l 91 11 l 102 -5 l 112 -5 l 123 -15 l 133 -7 q 147 -18 173 -18 q 206 -7 249 -5 l 260 9 l 265 1 l 276 9 l 278 38 l 286 27 l 297 43 q 304 92 304 128 q 304 137 299 162 l 278 162 q 267 164 248 180 q 229 196 225 207 l 215 213 l 207 228 l 199 226 l 194 236 l 189 236 l 183 268 q 152 299 146 331 l 146 354 l 138 364 l 144 396 l 154 399 l 157 388 l 162 404 l 175 412 q 173 476 241 544 l 244 544 l 254 557 l 262 557 l 268 565 l 273 565 l 273 570 q 290 592 320 620 l 328 641 l 334 641 q 342 659 360 680 q 380 703 397 707 l 407 705 z m 363 628 l 352 631 l 341 607 l 336 615 q 321 598 298 553 q 276 511 260 494 q 260 479 247 462 l 249 449 q 245 436 231 412 l 233 393 l 215 370 q 211 346 212 333 l 207 325 q 209 296 220 278 l 241 265 q 245 243 254 231 l 254 218 q 277 193 301 187 l 299 209 q 309 229 308 269 q 307 312 312 330 l 307 335 l 299 335 q 302 350 302 351 q 302 351 299 378 q 305 386 310 403 q 315 424 318 430 l 315 454 q 320 463 328 507 q 337 517 347 551 q 357 586 357 605 q 357 609 357 612 z"},"H":{"x_min":0,"x_max":756,"ha":756,"o":"m 728 366 l 725 353 l 715 340 l 715 332 l 710 332 l 707 327 l 649 316 l 641 303 l 633 303 l 625 293 l 612 290 l 609 277 l 607 277 l 612 269 q 608 242 599 221 l 607 216 q 601 204 600 178 q 598 152 594 142 q 594 142 594 55 q 599 39 601 34 l 612 21 q 625 15 641 15 l 649 16 l 667 26 l 678 45 l 667 40 l 646 45 l 636 63 l 636 69 l 633 71 q 629 91 629 89 q 629 96 631 108 l 637 117 q 657 128 681 128 q 688 128 691 127 l 702 113 l 707 113 l 704 103 l 717 90 l 715 87 l 720 74 q 702 47 699 26 l 678 3 q 630 0 630 0 q 613 5 591 11 l 570 29 l 549 69 l 543 121 l 541 121 q 537 153 537 144 q 537 163 543 174 l 541 185 l 536 190 q 546 230 546 269 l 546 274 l 538 274 l 533 279 l 525 274 l 488 282 l 462 303 l 441 301 l 438 298 l 435 287 l 430 282 q 425 280 412 277 q 401 277 377 279 l 359 290 l 348 290 l 348 285 l 354 282 l 348 245 l 340 245 q 337 231 325 219 q 325 187 317 169 l 322 163 q 322 150 316 122 q 311 94 311 81 q 311 76 311 71 l 306 66 q 300 45 300 21 q 300 18 300 12 q 301 6 301 3 l 309 -5 l 309 -11 l 301 -13 l 309 -21 l 301 -26 l 301 -32 l 288 -40 l 277 -26 l 277 -34 l 267 -37 q 238 -18 230 -3 q 234 26 232 66 q 241 85 256 124 q 257 135 259 156 q 271 246 290 295 l 280 306 l 259 306 l 253 311 l 203 327 q 192 331 174 316 q 132 318 111 298 l 103 277 l 103 266 l 106 266 l 108 261 l 124 258 l 132 272 l 117 279 l 119 290 l 145 287 l 166 272 l 172 261 l 164 248 l 153 245 l 148 232 q 135 226 124 227 l 114 221 l 111 229 l 98 235 l 90 245 l 87 264 l 77 274 q 82 286 93 308 q 97 314 115 326 q 134 338 143 340 l 148 340 q 154 340 164 343 q 176 347 180 348 q 225 349 311 361 q 315 391 330 424 l 322 424 l 322 428 q 323 434 321 445 q 319 455 319 460 q 319 459 322 504 l 330 522 q 330 556 320 575 q 312 591 285 617 l 232 638 q 209 632 203 633 l 201 625 l 148 609 l 95 562 q 95 513 82 496 q 90 475 127 427 l 137 435 l 169 432 l 195 440 l 206 453 l 224 511 l 219 530 l 203 548 l 174 554 l 161 546 l 159 533 q 167 535 172 535 q 178 535 190 533 l 206 511 l 203 493 l 182 467 l 156 453 l 140 467 l 130 469 l 111 501 l 111 508 q 112 518 108 538 l 124 556 l 164 575 q 180 577 188 577 q 245 577 272 551 q 272 549 275 541 q 277 533 277 530 q 277 523 275 511 l 269 504 l 272 482 q 266 468 251 459 l 248 440 l 222 419 l 211 419 l 211 430 l 195 414 l 177 409 q 157 413 127 411 q 110 422 95 422 q 82 435 79 451 l 61 456 l 50 475 l 56 477 l 40 522 l 43 548 l 53 562 l 58 564 l 69 594 l 116 633 l 143 638 q 158 645 185 659 l 193 659 l 198 654 l 217 656 l 222 651 q 238 655 246 654 l 251 654 l 253 651 l 266 651 q 304 651 333 643 l 340 635 l 362 625 l 362 620 l 377 601 l 388 562 l 385 548 l 383 546 q 386 528 386 510 q 386 472 383 461 l 375 464 l 377 432 l 375 427 l 369 430 l 364 419 l 372 414 q 364 376 364 372 q 364 371 367 353 l 391 353 q 406 356 414 359 q 427 353 470 353 q 486 353 518 348 q 550 343 567 343 q 570 393 580 409 q 575 446 575 453 q 575 465 583 475 l 591 475 q 591 493 599 533 q 605 569 604 591 l 609 591 l 604 635 l 612 635 l 612 667 l 629 685 l 652 664 l 654 670 q 687 655 702 627 q 699 609 688 575 l 683 572 l 681 559 l 675 556 l 675 538 l 681 530 l 683 509 l 678 504 l 667 504 q 636 473 636 452 q 636 439 638 432 l 636 430 l 641 398 l 633 377 l 620 377 l 625 372 l 615 340 l 652 340 q 666 340 699 364 z m 686 71 l 683 82 l 675 90 l 657 74 l 662 50 l 681 53 z m 174 509 l 174 522 l 148 519 l 124 533 q 126 518 135 488 l 151 477 l 169 488 q 169 490 172 499 q 174 506 174 509 z"},"4":{"x_min":0,"x_max":513,"ha":513,"o":"m 498 303 l 496 301 l 496 290 q 471 226 438 201 l 411 193 l 393 195 l 388 190 l 377 187 l 380 182 l 348 174 q 317 182 308 190 l 285 185 l 282 172 l 285 156 l 282 156 l 287 137 l 274 132 l 277 127 l 277 119 l 287 106 l 293 106 q 295 96 295 88 q 295 81 293 74 l 301 64 l 293 61 l 285 66 l 279 48 l 290 29 l 285 21 l 295 16 l 298 3 l 295 -16 q 284 -15 269 -2 l 258 0 l 253 13 q 212 48 215 91 q 214 117 212 123 q 211 129 211 133 q 211 141 216 185 l 224 195 l 203 206 l 171 206 q 166 206 150 203 l 150 209 l 145 208 q 130 206 127 206 l 76 206 q 71 206 61 208 q 48 211 41 211 q 39 211 37 211 l 32 219 l 18 214 l 16 227 q 6 239 5 251 l 11 248 l 8 264 l 29 269 q 39 284 58 290 l 58 296 q 63 298 76 311 l 82 325 q 83 329 100 338 l 100 343 l 108 346 l 116 361 l 116 372 l 111 372 l 113 377 l 113 383 q 120 389 141 400 q 164 411 177 435 l 166 441 q 175 459 192 483 l 198 477 q 212 496 258 588 l 272 588 q 286 576 294 560 q 301 544 308 530 q 319 515 337 488 q 329 468 329 451 q 329 446 330 438 l 311 427 l 311 398 l 316 385 l 311 359 l 298 351 l 298 351 q 294 295 287 280 l 293 274 l 295 238 l 308 232 l 324 232 l 330 238 l 343 238 l 348 232 l 359 232 l 353 240 q 356 239 362 239 q 374 239 397 248 q 422 257 428 257 q 430 257 432 256 l 440 264 l 440 269 l 453 277 l 453 280 q 461 283 473 293 q 485 304 490 306 z m 258 454 l 253 483 l 245 488 l 248 493 l 237 499 l 232 485 l 235 472 l 219 454 l 211 425 l 195 409 l 190 398 q 175 387 152 358 q 127 325 127 311 l 121 311 l 121 306 l 98 288 l 92 296 q 82 286 63 259 l 100 259 l 103 251 l 116 251 l 119 245 l 124 243 l 132 243 l 132 240 l 142 240 l 145 248 l 153 253 l 161 251 l 158 248 l 158 243 l 174 243 l 187 251 l 227 251 q 229 295 243 327 l 243 332 l 242 341 q 240 352 240 355 q 240 364 248 433 l 250 430 l 253 451 z"},"~":{"x_min":0,"x_max":451,"ha":451,"o":"m 406 416 l 402 387 l 400 383 l 390 376 l 390 364 l 386 364 l 383 352 l 387 345 l 376 340 l 381 331 l 376 323 l 367 322 l 357 326 l 360 310 l 348 302 l 345 290 l 338 293 l 322 290 l 300 282 l 288 290 q 275 291 245 301 l 226 321 q 221 320 210 327 l 198 342 l 193 335 q 184 342 172 342 l 159 352 q 156 351 150 354 q 143 357 141 357 l 125 345 l 125 340 l 113 331 l 113 326 l 99 322 q 90 309 82 264 q 79 267 72 264 q 63 261 60 262 l 56 293 q 61 344 84 367 l 91 382 l 107 382 l 127 402 l 161 404 l 167 402 l 183 405 q 212 391 222 393 q 229 386 255 371 q 262 367 274 359 l 281 359 l 281 350 l 293 342 l 304 328 l 307 342 l 319 340 l 322 352 l 317 359 q 349 359 363 366 q 364 374 378 390 l 383 406 z"},"D":{"x_min":0,"x_max":796,"ha":796,"o":"m 766 372 l 760 359 l 763 349 l 755 335 l 755 325 l 739 338 l 739 309 l 742 304 l 742 288 l 724 280 l 724 248 l 734 241 l 742 262 l 750 259 l 747 227 l 742 225 l 737 235 l 734 225 l 742 206 l 737 193 l 739 188 q 735 179 737 169 l 731 159 l 734 154 l 697 93 l 687 90 q 681 85 667 66 q 656 49 644 43 l 639 45 l 631 30 l 608 22 l 568 24 l 560 14 l 557 3 l 523 -7 l 507 1 l 505 -2 q 436 24 415 53 q 402 80 402 122 q 402 129 405 135 l 415 146 q 421 148 426 148 q 436 148 463 143 l 463 138 l 481 125 l 489 106 q 487 91 478 82 l 463 88 l 460 96 l 463 122 l 455 127 l 452 125 l 449 111 l 441 119 l 434 109 l 431 80 q 439 73 444 64 l 441 64 l 457 51 l 521 35 l 526 30 l 544 27 q 581 53 586 53 l 589 59 l 586 67 q 592 70 594 72 q 609 84 634 109 q 656 138 669 191 q 681 239 681 280 q 681 285 680 295 q 679 304 679 309 q 679 313 680 321 q 681 329 681 333 q 681 346 680 381 q 678 412 679 430 q 665 443 658 470 q 658 492 663 517 q 638 553 639 570 l 613 602 q 551 635 486 652 q 462 648 428 639 l 426 644 l 418 633 l 399 623 l 394 623 l 389 610 l 378 607 l 365 596 l 365 586 q 377 561 389 507 l 397 496 q 396 493 396 489 q 396 481 401 468 q 405 454 405 446 q 405 437 403 418 q 402 400 402 391 q 402 380 407 360 q 412 339 412 330 q 412 315 410 283 l 394 264 q 391 231 391 230 q 391 228 394 201 q 387 181 378 175 l 386 140 q 379 117 381 106 q 366 86 362 67 l 354 61 q 348 44 336 9 l 310 -7 l 283 -2 l 278 1 l 262 1 l 249 38 l 225 48 l 220 48 l 212 53 l 207 61 l 202 64 l 202 67 l 196 67 l 194 80 l 188 85 q 183 103 183 148 q 183 158 188 175 q 193 194 194 201 q 196 217 196 248 q 196 252 193 262 q 191 272 191 277 q 191 320 217 372 l 204 380 q 213 419 247 477 q 274 522 302 567 l 294 591 q 286 598 262 624 q 243 644 225 652 q 197 659 183 657 l 180 660 l 178 654 l 159 654 l 157 649 l 125 647 l 120 633 l 99 625 l 86 612 l 88 594 l 93 589 l 88 578 l 96 531 l 99 531 l 104 523 l 130 512 l 136 517 q 142 555 146 573 l 138 586 l 136 575 l 130 570 l 125 575 l 128 554 l 117 557 l 115 573 l 120 591 l 133 596 l 128 599 l 130 604 l 154 596 l 180 575 l 183 562 q 177 554 170 523 l 154 502 l 136 491 l 117 491 q 103 496 86 502 l 78 499 l 59 525 l 54 525 q 53 544 41 565 l 28 575 l 28 591 l 20 596 q 20 620 41 641 q 104 678 157 691 q 186 687 241 676 q 255 672 277 658 q 301 643 312 639 l 331 615 l 344 625 l 362 628 q 384 649 406 657 q 417 661 455 668 q 483 673 476 673 q 481 673 491 672 q 500 670 505 670 q 552 668 569 665 q 603 659 626 639 q 631 631 644 618 q 666 600 688 583 q 704 567 718 531 l 713 517 l 758 407 q 756 398 766 372 z m 339 277 q 333 319 333 362 q 333 368 334 379 q 336 391 336 396 q 336 389 325 444 q 331 471 331 475 q 331 475 328 520 l 323 528 l 310 520 l 302 523 q 287 497 283 475 l 278 473 l 278 459 l 270 444 l 273 436 l 273 425 l 267 412 q 271 388 278 380 q 267 355 249 346 q 233 307 233 267 q 233 275 241 243 q 241 243 241 217 q 241 208 236 193 l 241 185 l 236 180 l 236 164 l 233 161 l 244 148 l 246 122 q 269 88 281 30 l 291 22 l 310 24 q 310 44 328 119 l 320 127 q 320 171 333 190 q 331 210 331 251 q 334 262 339 277 z"},"^":{"x_min":0,"x_max":451,"ha":451,"o":"m 402 167 l 389 151 l 387 159 l 383 167 l 374 167 q 350 192 316 265 l 310 265 l 307 274 l 295 274 q 293 278 284 292 l 284 309 l 281 304 l 276 313 l 266 316 l 250 360 l 250 372 l 238 393 l 226 369 q 212 360 176 292 l 167 296 q 147 281 137 274 l 132 253 l 137 250 q 93 221 74 167 l 55 151 l 55 155 l 49 155 l 55 171 l 55 183 q 64 195 73 226 q 83 261 89 270 q 103 285 118 304 q 122 313 132 333 q 145 347 167 379 l 178 384 q 188 395 207 423 l 207 440 l 250 488 q 255 479 256 465 q 259 449 265 438 l 275 419 q 301 373 312 328 l 320 333 l 320 321 l 327 325 l 336 301 l 343 301 q 350 292 357 269 q 366 245 370 238 q 383 215 402 167 z"},"0":{"x_min":0,"x_max":441,"ha":441,"o":"m 390 214 q 386 207 382 199 l 381 197 q 373 164 372 158 l 377 156 q 371 113 345 40 l 337 40 l 335 34 l 332 37 l 332 47 l 311 24 l 314 18 q 306 0 279 -16 l 285 -5 l 266 -11 l 245 -8 l 240 -5 l 232 -8 l 221 -3 l 211 -5 l 211 0 l 206 5 l 200 3 q 193 9 174 11 q 125 39 92 82 l 92 87 l 87 87 l 90 95 l 82 100 q 61 165 54 189 q 42 235 40 279 l 45 285 q 45 328 58 343 l 58 364 l 69 390 l 76 390 l 82 398 l 66 409 l 71 430 l 82 446 l 84 446 q 99 472 127 488 l 137 504 l 142 501 l 150 509 l 145 511 l 148 514 l 150 514 l 161 519 l 163 533 q 171 538 179 551 l 187 551 q 208 551 229 538 l 235 538 l 243 533 l 253 533 l 256 525 q 308 513 359 472 l 361 461 q 378 444 391 402 q 401 368 401 337 l 398 337 q 398 333 401 314 q 401 312 401 310 q 401 250 390 214 z m 380 279 l 372 293 q 374 305 374 311 q 374 317 372 327 q 370 341 368 350 q 364 384 358 396 q 352 410 340 424 l 335 448 q 316 473 282 485 l 272 501 l 253 509 l 256 504 l 237 509 l 235 501 l 232 504 l 229 496 l 214 496 l 200 477 l 206 467 l 203 453 l 195 453 l 190 451 q 175 435 171 417 l 161 406 l 158 411 l 148 406 l 145 388 q 128 367 128 349 q 128 347 129 343 l 127 343 l 116 314 l 116 306 l 121 295 l 119 285 l 111 285 l 111 266 q 115 250 116 248 l 111 243 l 113 235 l 111 229 l 116 214 l 132 219 l 127 208 l 134 174 l 127 169 l 129 158 l 121 161 l 116 156 l 127 137 l 134 132 l 137 134 l 158 105 l 169 100 l 179 111 l 187 79 l 182 63 l 187 47 l 237 32 l 253 34 l 274 45 l 290 69 l 290 58 l 311 71 l 332 105 l 330 150 q 354 202 361 261 l 369 250 q 370 255 380 279 z"},"F":{"x_min":0,"x_max":760,"ha":760,"o":"m 812 602 l 801 600 l 809 584 l 804 571 l 807 568 l 801 565 q 789 547 780 539 l 767 544 l 741 539 l 728 542 l 717 534 q 690 534 683 539 l 648 531 l 648 528 l 625 528 l 596 547 l 567 539 l 554 542 l 551 536 q 540 536 518 552 q 496 569 483 569 q 480 569 477 568 l 461 547 q 461 559 453 484 q 454 477 453 463 q 450 454 445 434 q 444 420 440 394 q 437 388 432 376 q 431 365 427 344 l 430 328 l 438 323 l 435 318 l 469 299 l 488 296 q 539 303 561 320 l 572 336 l 561 347 l 543 347 l 540 352 l 556 370 l 569 365 l 580 365 l 580 373 l 588 376 q 592 369 590 362 l 598 354 l 614 349 q 607 337 596 331 l 596 307 l 593 299 l 583 289 q 548 287 522 267 l 522 254 l 511 257 l 511 252 l 472 257 q 450 279 419 286 l 416 267 l 403 249 l 406 231 q 401 218 403 209 l 395 207 l 393 202 l 385 194 l 393 191 l 382 146 l 377 144 l 385 130 q 378 103 380 91 l 372 93 l 366 75 l 356 80 q 347 63 345 41 l 329 20 q 311 10 282 -1 l 285 -7 l 269 -9 l 264 -17 l 245 -17 l 235 -9 q 182 0 137 30 l 116 72 q 113 99 113 99 q 113 122 132 154 q 151 186 169 194 l 198 202 q 211 198 219 199 l 229 191 l 248 186 l 261 173 l 256 162 l 266 138 l 258 112 l 237 91 l 229 96 q 226 95 211 99 l 208 96 l 200 101 q 202 111 198 120 l 206 120 l 203 128 l 192 138 l 190 149 l 203 144 q 221 130 221 112 q 230 114 235 120 l 240 117 l 245 130 l 240 149 l 219 173 l 187 178 q 177 171 168 147 q 161 126 161 112 l 166 99 l 166 93 l 169 93 l 169 88 l 177 75 l 166 70 l 166 59 l 179 51 l 179 43 l 192 33 l 195 22 l 237 9 l 250 12 l 256 9 l 271 14 q 295 42 308 86 q 310 106 316 146 l 329 154 l 337 165 q 335 183 335 194 q 335 185 340 220 q 335 255 335 246 q 335 260 348 312 l 290 318 l 264 307 l 245 286 l 245 278 l 253 267 l 261 262 l 264 252 l 248 252 l 245 262 l 224 281 l 227 299 l 245 315 l 242 318 l 245 325 l 258 333 l 261 341 l 271 341 l 289 348 l 353 336 q 367 365 366 383 l 361 399 l 369 415 l 369 426 l 377 426 q 380 445 390 476 l 385 484 q 402 535 432 565 l 438 581 l 430 592 l 395 608 l 390 615 q 376 620 366 629 l 358 631 l 353 637 l 322 637 l 319 626 l 327 618 l 306 600 q 290 602 271 611 q 243 624 237 626 q 218 629 182 637 l 148 629 l 140 621 l 129 618 l 121 600 l 111 594 l 103 573 l 108 555 q 104 531 105 518 q 108 515 113 492 l 129 484 l 124 481 l 124 465 l 158 426 l 203 420 l 216 428 l 235 460 q 240 487 240 497 q 240 498 237 534 l 221 565 l 250 552 q 274 527 282 510 q 285 482 295 470 l 293 455 l 256 447 l 245 436 l 253 434 l 235 415 q 210 409 195 394 l 169 405 l 163 399 l 155 405 l 148 397 q 138 404 121 420 l 116 444 l 103 455 l 100 465 l 87 478 l 74 484 q 67 537 50 555 l 55 594 q 71 624 84 637 q 107 649 153 668 q 214 685 262 685 q 267 685 269 684 l 474 629 q 516 666 543 668 l 556 655 l 554 652 l 551 634 l 540 629 q 530 631 525 631 q 518 631 506 629 l 498 621 q 517 618 546 606 q 579 593 593 589 q 614 587 656 581 q 665 578 683 573 q 703 571 741 568 l 780 581 l 786 600 l 770 605 l 770 608 l 764 610 l 780 618 q 791 613 804 615 z"},"`":{"x_min":0,"x_max":343,"ha":343,"o":"m 251 470 l 249 463 l 232 468 q 221 479 204 496 q 188 506 161 529 q 152 543 135 567 q 118 580 90 606 l 93 615 l 100 619 l 97 629 l 107 639 l 139 639 l 166 627 q 175 612 175 603 l 171 601 l 175 593 l 190 582 l 194 567 q 207 559 216 547 l 213 532 q 230 523 242 506 l 242 494 l 247 483 l 247 477 z"},"k":{"x_min":0,"x_max":436,"ha":436,"o":"m 461 108 q 444 81 400 47 q 363 27 332 29 l 284 47 l 279 47 l 269 55 l 269 47 l 253 55 l 242 69 l 224 74 l 219 82 l 219 87 l 203 92 l 203 111 l 226 108 q 229 121 242 132 l 253 137 l 255 145 l 263 150 q 264 158 277 171 q 278 182 284 195 l 295 206 l 295 229 l 287 235 l 282 229 l 274 227 l 271 216 l 263 214 l 266 200 l 255 198 l 242 182 l 232 179 l 232 174 l 226 171 l 226 163 l 219 161 l 219 156 l 213 156 l 211 153 l 219 140 l 203 134 l 195 124 l 190 127 q 184 117 176 95 l 171 90 q 163 63 155 37 q 146 8 145 -18 l 126 -24 l 100 3 q 102 43 97 82 q 103 91 100 111 l 87 92 l 81 90 l 74 79 l 66 74 l 66 69 l 63 66 l 58 66 q 48 44 21 29 l 10 55 l 18 58 l 18 63 q 43 80 84 129 l 84 132 l 97 145 q 99 169 105 216 l 110 219 l 108 227 l 118 250 l 113 264 l 105 272 l 105 301 q 105 307 107 320 q 108 333 108 340 l 118 353 l 108 359 l 110 366 q 103 376 103 395 l 108 409 l 110 406 l 118 409 l 121 427 l 118 432 l 116 453 l 110 453 q 119 557 137 601 l 139 601 l 139 612 l 142 612 q 140 644 158 670 l 158 675 l 166 678 q 187 702 211 743 l 219 751 l 224 762 l 232 762 l 242 778 l 253 783 l 261 791 l 271 791 l 271 801 l 274 804 l 282 801 l 284 788 l 327 738 q 327 720 328 690 q 329 656 329 643 q 329 637 326 620 q 323 604 324 596 l 321 593 l 324 591 q 322 580 316 572 l 316 556 l 311 554 q 307 527 295 496 l 300 490 q 299 476 292 448 l 287 443 l 284 417 l 274 398 l 277 393 q 270 376 253 343 q 246 334 234 311 l 226 303 l 224 295 l 216 287 l 208 264 l 168 221 l 166 203 l 158 195 l 158 153 q 166 160 172 171 q 180 188 182 190 q 192 203 213 229 l 221 232 l 229 240 q 242 242 250 250 l 261 250 l 277 264 l 300 264 l 319 245 q 326 214 327 187 l 324 177 l 316 169 l 311 148 l 303 145 l 300 140 l 303 137 l 300 132 l 292 132 l 290 124 l 284 119 l 284 116 l 269 105 l 269 100 q 287 90 324 74 l 340 58 l 361 50 l 369 53 l 371 63 l 379 66 l 385 63 q 404 77 423 91 q 448 110 456 123 l 461 113 z m 303 635 l 300 678 l 295 680 l 295 707 l 300 720 q 294 735 295 743 l 284 759 l 263 762 l 263 757 l 255 751 l 258 746 l 255 743 l 258 730 l 253 730 l 250 725 l 250 714 l 245 712 l 237 696 l 232 693 l 224 672 l 221 672 l 213 654 l 219 654 q 211 638 211 620 l 197 620 q 190 582 190 583 q 190 573 195 538 l 187 538 l 184 525 l 176 517 l 171 475 l 174 467 l 174 382 l 166 377 q 169 367 168 356 l 163 353 l 163 337 l 158 327 l 158 301 q 158 300 160 296 q 161 294 166 253 l 163 248 l 163 243 l 184 269 l 184 272 q 215 307 244 389 q 264 452 284 514 q 282 530 282 540 q 282 542 284 546 q 284 558 287 580 q 288 582 295 604 q 302 620 300 627 z"},"u":{"x_min":0,"x_max":503,"ha":503,"o":"m 505 103 q 483 77 455 61 l 428 59 q 415 67 400 69 q 391 81 384 82 l 377 92 l 371 95 q 334 128 319 182 l 319 187 l 313 198 l 313 214 l 311 219 q 303 203 287 171 q 276 155 258 121 l 250 116 q 246 107 239 90 l 224 76 l 218 63 l 200 45 l 160 47 l 152 58 l 134 66 q 114 90 110 105 l 105 108 q 102 124 92 137 q 88 156 89 166 l 87 169 q 77 160 60 137 l 42 124 l 39 119 q 16 104 -10 96 l -7 117 q 11 134 36 153 l 39 150 l 63 185 l 58 182 l 60 192 l 63 195 l 71 195 l 81 221 l 94 232 l 97 243 l 84 235 l 100 261 l 100 256 q 109 276 110 287 l 105 298 l 113 316 l 118 319 l 118 327 l 121 330 l 121 343 l 139 377 l 152 377 l 160 366 l 160 359 l 168 353 l 166 351 l 171 348 l 168 345 l 179 330 l 184 327 l 187 322 l 189 322 l 189 308 q 182 292 166 261 l 163 261 q 147 183 147 142 q 147 104 155 90 l 155 84 l 166 69 l 187 76 q 213 106 242 150 l 247 153 l 247 156 l 261 169 l 276 203 l 274 208 l 297 269 l 303 266 q 306 282 305 285 l 316 301 l 353 295 q 357 282 363 256 l 361 250 q 373 230 369 203 l 395 153 l 395 132 q 399 119 411 95 l 419 92 l 424 87 q 430 88 443 82 q 472 91 496 117 z"},"]":{"x_min":0,"x_max":450,"ha":450,"o":"m 279 665 l 270 651 l 265 621 l 251 601 l 251 575 l 256 564 l 251 560 l 261 537 l 251 523 l 247 502 l 238 491 l 244 450 l 238 427 l 233 421 l 230 406 q 231 396 243 358 q 253 327 251 314 l 247 314 q 250 308 261 172 q 261 163 259 149 l 253 149 l 242 119 l 247 105 l 256 99 l 256 70 q 256 63 252 31 q 250 7 253 -8 l 244 -26 l 244 -49 l 210 -51 l 195 -60 q 179 -59 163 -63 l 154 -58 l 143 -66 l 134 -63 l 131 -58 l 126 -60 l 85 -55 l 94 -51 l 85 -49 l 106 -46 l 120 -37 q 155 -29 166 -31 l 166 -19 q 166 -9 161 18 l 172 6 l 172 41 l 181 30 l 181 44 q 180 46 179 48 q 179 51 178 53 l 186 62 l 184 76 l 181 79 l 189 99 l 184 140 l 181 137 l 178 154 l 172 154 l 178 172 q 177 201 175 259 q 174 270 172 291 q 169 298 166 311 q 166 311 166 389 l 181 429 l 207 453 l 184 450 l 181 456 l 184 459 q 181 480 181 482 l 181 587 l 189 583 l 189 589 l 198 592 l 195 610 l 198 615 l 195 630 l 184 636 l 181 619 l 175 720 l 154 720 l 149 723 l 120 723 l 108 732 q 113 732 139 737 q 159 740 170 740 l 219 740 q 237 735 259 729 l 276 705 q 274 684 279 665 z"},"U":{"x_min":0,"x_max":689,"ha":689,"o":"m 672 58 l 667 32 q 659 13 627 -8 l 590 -16 q 498 7 466 69 l 461 95 q 451 77 451 63 l 435 55 l 427 61 q 413 38 390 21 l 393 18 l 350 -11 q 344 -12 342 -12 q 322 -14 322 -16 l 322 -16 l 323 -16 q 323 -16 324 -16 q 314 -16 287 -11 q 250 4 222 47 q 198 83 186 127 q 176 160 176 187 q 176 205 188 247 q 195 272 195 284 q 195 291 193 306 q 192 322 192 329 q 192 333 198 361 l 203 353 l 208 353 q 214 368 214 383 q 214 388 213 395 l 203 406 q 204 414 205 470 l 206 480 q 206 485 201 497 q 198 503 194 537 q 186 604 169 627 l 147 641 l 132 643 q 93 637 68 617 l 55 588 l 53 554 l 74 522 l 84 517 l 95 522 l 108 519 q 112 550 121 569 l 116 583 l 140 575 l 150 562 l 150 525 q 142 518 132 504 l 121 501 l 118 496 q 93 494 60 488 l 60 504 l 45 504 q 8 547 5 569 l 10 609 l 26 627 q 34 636 80 646 q 116 654 138 654 q 182 654 223 629 q 243 618 256 601 q 262 562 277 540 q 277 525 292 482 l 290 475 l 292 464 l 285 446 l 271 432 q 272 413 282 374 l 279 353 l 282 340 l 279 335 q 279 333 282 304 l 282 303 q 282 296 279 290 l 274 285 l 274 274 l 263 272 q 263 257 255 220 q 250 195 250 185 q 250 181 250 177 l 245 171 l 248 140 l 245 140 l 237 121 l 242 105 l 240 100 q 252 52 266 26 l 287 5 q 308 3 315 3 q 338 3 356 16 l 374 18 l 379 26 l 379 32 q 396 43 428 90 q 457 134 464 158 q 451 207 451 257 q 451 303 464 327 l 474 337 l 469 348 l 477 356 q 471 369 469 385 l 464 388 l 461 406 l 469 409 q 471 420 472 435 l 472 435 q 472 441 466 469 l 477 480 l 477 501 l 485 511 l 493 509 l 498 527 l 488 556 l 482 556 q 486 591 501 612 l 548 654 l 575 662 l 593 649 l 598 638 l 614 627 l 609 620 l 604 598 q 609 580 609 506 q 606 494 604 488 l 606 482 q 600 417 588 377 q 571 346 561 303 q 559 294 553 264 q 540 242 527 219 q 523 206 506 177 l 503 166 q 508 128 517 47 l 530 24 q 549 8 575 3 l 601 5 l 627 18 l 646 45 l 638 82 l 609 82 l 575 53 l 567 58 l 567 71 q 578 96 604 116 l 619 121 l 640 119 z m 585 606 l 564 606 l 553 596 q 545 581 545 535 q 545 517 546 493 l 540 482 l 540 467 l 527 456 l 527 451 l 519 451 q 519 442 514 438 q 515 435 515 430 q 515 418 509 390 q 506 371 506 361 l 506 360 q 508 343 509 332 l 506 324 l 509 316 q 507 304 506 295 l 506 295 q 506 288 514 256 l 546 330 q 545 332 555 367 l 558 376 q 567 410 567 411 l 572 411 l 577 438 l 575 446 l 572 443 l 573 455 q 577 491 577 501 l 580 501 q 585 527 585 533 z"},"o":{"x_min":0,"x_max":391,"ha":391,"o":"m 351 166 l 340 129 l 338 129 l 338 124 l 330 119 l 324 98 l 319 95 q 310 81 298 53 l 290 53 l 280 37 l 274 34 l 274 32 q 250 24 211 24 q 197 27 193 29 l 187 26 l 177 26 l 156 37 l 150 34 l 148 40 l 140 37 l 135 42 l 127 42 l 129 45 l 124 47 q 108 65 98 69 q 64 112 52 150 q 40 188 40 245 q 46 272 48 279 l 56 282 l 58 293 l 74 308 l 77 308 q 88 354 106 369 l 119 366 l 127 380 l 140 390 l 140 393 l 179 409 l 195 403 l 195 406 l 208 403 l 214 395 l 227 388 q 234 370 251 351 l 240 322 l 235 324 l 227 322 l 227 316 l 219 316 l 206 327 l 201 322 l 172 311 l 166 316 l 161 311 l 156 311 l 145 301 l 145 287 l 124 269 l 116 253 l 103 250 l 98 245 l 95 232 l 98 216 l 92 203 q 90 183 90 171 q 90 152 95 132 l 103 121 l 108 103 q 115 101 145 66 q 171 60 198 53 q 246 53 261 63 l 261 69 l 266 71 l 266 74 q 311 122 311 153 q 311 181 298 216 q 280 226 256 224 l 253 232 l 248 232 l 243 227 l 240 227 l 240 214 l 235 216 l 216 211 l 216 208 l 203 206 l 193 192 l 193 158 l 198 145 l 211 137 l 214 140 l 227 137 l 232 142 l 237 142 q 248 149 256 150 l 272 185 l 280 182 l 274 150 l 264 134 l 261 119 l 248 113 l 248 108 l 232 103 l 211 105 l 206 111 l 193 116 q 188 124 177 137 l 174 145 l 158 161 l 161 195 l 156 198 q 156 228 164 248 l 169 250 l 177 269 q 184 276 206 279 l 214 274 q 229 280 237 279 l 243 285 l 256 290 l 269 287 l 314 256 l 317 250 l 324 245 q 326 227 335 195 l 340 192 l 343 185 l 343 177 z"},"N":{"x_min":0,"x_max":774,"ha":774,"o":"m 864 659 l 853 664 l 856 633 l 853 633 l 848 625 l 845 625 l 840 617 l 840 612 l 837 606 l 829 606 l 827 596 l 806 591 l 798 575 l 774 577 l 766 583 l 756 583 q 750 589 740 593 l 732 591 l 729 601 l 703 620 l 703 649 q 703 652 706 670 l 727 696 l 758 704 l 766 699 l 777 683 l 782 649 l 777 643 l 756 662 l 745 685 l 732 678 l 729 635 l 740 612 l 793 612 q 812 633 822 654 l 819 699 l 787 741 l 742 743 q 727 733 703 722 q 692 703 663 678 q 663 676 660 671 q 658 666 658 664 q 657 649 653 622 q 649 616 645 601 l 640 598 l 655 575 q 650 562 637 538 q 637 503 619 482 q 623 443 613 432 l 611 403 l 608 398 l 611 382 l 605 377 q 607 358 613 322 l 605 303 q 606 246 584 206 q 585 182 587 132 q 587 121 593 81 q 597 52 595 24 l 592 24 l 592 16 l 603 0 l 582 -8 l 576 -5 l 553 -5 q 541 7 521 11 q 503 50 480 141 q 457 238 460 272 l 452 287 l 437 295 l 429 295 l 418 311 l 410 316 q 400 343 397 382 q 374 411 371 440 l 355 451 l 342 472 l 342 475 q 324 490 321 504 l 315 498 l 315 477 q 319 462 334 435 l 329 417 l 331 409 q 327 398 329 388 l 326 385 l 334 369 l 334 343 l 321 311 l 321 301 l 315 293 q 315 287 302 248 q 292 220 286 190 q 286 174 278 145 l 271 137 l 265 121 l 268 95 l 265 98 l 268 79 q 262 40 247 26 l 244 3 l 231 -11 l 207 -18 l 197 -32 l 197 -37 l 184 -42 l 181 -50 l 184 -74 q 151 -82 128 -79 q 120 -74 104 -66 q 80 -56 57 -46 q 20 -30 15 -18 q 3 6 -17 55 q -16 70 -25 98 l -6 166 q 18 179 62 227 l 91 229 l 104 221 l 120 221 q 136 206 146 174 q 162 126 165 121 q 157 108 157 82 q 149 75 139 54 q 129 34 120 26 q 112 24 107 24 q 96 24 78 26 l 70 40 q 61 50 46 55 l 44 66 q 54 92 57 127 q 62 135 73 148 l 86 153 l 97 148 l 99 142 l 94 132 l 83 127 l 73 100 l 78 71 l 89 58 l 99 58 l 110 76 q 120 143 120 142 q 120 157 110 192 l 104 198 l 70 187 q 38 155 31 140 l 23 63 q 36 38 39 8 l 89 -24 q 117 -24 136 -32 q 155 -28 176 -5 l 178 0 q 185 11 197 24 l 199 40 q 224 67 255 156 q 256 165 260 182 q 266 199 276 232 l 268 243 q 272 262 278 298 q 277 308 278 327 q 284 371 292 388 q 289 407 289 464 q 292 476 292 475 l 289 475 q 276 509 276 564 q 276 569 278 575 q 271 578 265 588 q 264 596 263 609 l 268 659 l 297 670 l 297 664 l 321 656 l 336 641 q 333 626 342 604 l 368 577 l 368 572 l 371 572 q 404 536 408 480 q 469 435 474 388 l 466 361 q 476 332 474 327 l 471 319 q 487 290 508 266 q 511 237 510 214 l 526 174 q 540 162 550 145 l 558 166 q 556 200 550 221 q 561 252 561 279 q 561 285 558 297 q 554 312 553 316 q 553 316 553 340 q 553 347 556 365 q 559 380 558 390 l 574 424 q 574 450 582 500 q 589 553 597 572 q 609 598 621 624 q 637 660 637 678 l 684 736 q 710 749 748 767 l 806 762 l 814 746 l 829 743 l 837 736 l 837 728 l 856 707 z"},"+":{"x_min":0,"x_max":466,"ha":466,"o":"m 411 276 l 408 242 l 403 247 l 397 244 l 387 244 l 350 255 q 347 246 335 239 l 327 242 l 327 236 l 314 236 l 308 242 l 298 239 l 282 244 l 271 239 l 261 242 q 260 230 260 218 q 260 206 261 183 l 263 177 l 268 154 l 274 124 l 277 113 l 284 108 q 282 74 259 74 q 256 74 252 74 l 221 89 l 216 102 q 217 115 217 123 q 217 140 212 154 l 204 152 q 208 168 208 208 q 208 218 208 242 q 195 237 184 236 l 163 249 l 116 226 l 108 234 l 97 229 q 86 234 78 234 q 77 234 73 234 l 61 263 l 95 278 l 98 281 q 129 276 145 276 q 150 276 211 284 q 211 284 211 285 q 212 286 212 288 l 201 324 q 204 328 205 332 q 216 356 216 363 q 216 371 213 382 q 213 384 212 386 l 209 402 q 209 402 209 403 l 198 411 l 201 414 q 221 434 228 438 q 237 444 247 445 l 275 426 l 272 422 l 279 412 q 276 389 272 339 q 273 330 273 313 q 273 293 270 284 l 277 284 q 284 284 301 289 q 312 292 320 292 q 329 292 357 288 q 374 286 387 286 q 390 286 395 286 z"},"G":{"x_min":0,"x_max":613,"ha":613,"o":"m 610 539 q 613 480 578 449 l 576 434 l 565 418 l 539 407 l 528 394 l 515 391 l 518 386 l 497 384 l 491 378 q 481 377 455 367 q 433 359 418 360 l 381 373 l 338 415 l 336 449 l 341 460 l 336 468 q 338 498 338 513 q 338 518 336 526 q 343 559 354 584 l 370 592 l 381 610 l 402 621 l 415 621 l 423 618 l 476 629 l 489 626 l 497 613 l 510 605 l 515 597 l 528 587 q 524 532 534 515 l 523 497 l 520 478 l 515 473 l 515 457 l 510 452 l 499 449 l 491 439 q 473 433 444 418 l 433 418 l 423 423 l 407 460 l 410 494 l 423 513 l 444 515 l 454 507 q 448 486 436 455 l 444 449 l 460 449 q 485 468 491 497 q 499 536 499 536 q 496 551 494 555 q 487 566 460 576 l 454 587 l 447 592 l 420 592 q 416 592 406 590 q 395 587 391 587 q 375 551 369 537 q 359 512 354 484 l 365 460 l 360 447 l 362 426 l 407 386 l 428 389 l 468 413 l 473 410 l 476 413 l 497 418 l 515 413 l 528 415 l 570 510 l 568 526 l 576 534 l 570 558 l 565 563 l 565 571 q 540 601 523 610 l 523 616 l 507 626 q 494 647 483 655 l 476 652 l 476 655 l 465 650 q 451 652 444 652 q 439 652 433 650 q 429 650 419 653 q 408 655 404 655 q 414 655 354 647 l 341 639 q 336 639 328 637 q 320 634 305 627 q 291 621 283 618 q 270 617 244 610 q 239 600 205 571 q 170 542 157 539 l 141 507 l 143 484 q 123 453 120 436 l 114 431 l 117 420 l 112 405 l 117 402 l 117 394 l 106 381 l 104 336 q 127 305 122 268 l 125 268 l 135 236 q 145 224 170 202 l 183 199 l 188 202 l 199 196 l 204 183 l 230 173 l 238 175 l 238 186 l 246 186 l 262 175 l 278 173 l 291 178 l 341 159 l 352 159 q 370 164 375 167 l 383 175 l 394 175 l 396 181 q 414 196 428 196 l 439 204 l 441 212 l 449 215 l 454 268 l 478 281 l 499 283 l 505 291 l 512 291 l 515 286 l 526 291 l 534 286 q 525 277 523 262 q 526 244 526 241 q 526 239 523 215 l 528 210 q 521 178 523 154 l 518 141 q 518 141 518 107 q 518 106 519 103 q 520 100 520 99 q 512 70 512 33 q 512 30 515 9 l 510 -7 l 515 -20 l 515 -30 l 510 -41 l 512 -46 l 507 -57 l 502 -62 l 502 -75 l 494 -94 l 481 -107 l 481 -112 l 473 -115 l 460 -141 l 454 -144 l 449 -162 l 441 -167 q 441 -175 425 -191 q 404 -202 396 -212 q 379 -219 346 -231 q 342 -230 288 -241 l 233 -231 l 228 -239 l 201 -236 l 193 -228 l 157 -212 l 141 -196 l 141 -191 l 117 -162 l 114 -141 l 106 -128 q 99 -89 101 -73 l 112 -57 l 109 -46 q 123 -21 146 7 l 157 12 l 162 22 l 199 43 l 204 49 q 239 54 230 54 q 233 54 251 51 l 254 54 l 278 57 q 297 49 307 38 l 325 38 l 336 30 l 349 -15 l 346 -20 l 346 -44 q 343 -54 333 -62 l 336 -70 l 315 -88 l 312 -88 l 299 -102 q 287 -109 265 -109 l 259 -115 l 249 -117 l 244 -107 l 233 -109 q 224 -107 215 -102 l 209 -91 l 201 -86 l 204 -62 l 220 -38 l 233 -30 l 238 -20 l 249 -17 l 262 -25 l 262 -36 l 251 -44 l 244 -46 l 241 -59 l 246 -67 l 246 -80 l 275 -83 l 288 -59 l 288 -41 q 288 -15 280 9 l 275 9 l 275 17 l 267 20 l 254 33 l 230 33 l 220 22 l 204 14 l 201 9 l 191 7 l 178 -25 l 167 -25 l 159 -36 l 159 -65 l 167 -83 l 164 -94 l 157 -99 l 151 -117 l 154 -128 l 162 -138 l 162 -152 l 157 -162 l 167 -178 l 186 -191 l 212 -189 l 209 -194 l 228 -207 q 245 -198 265 -202 l 275 -194 l 280 -196 l 283 -189 l 296 -183 l 328 -186 l 338 -194 l 357 -189 l 365 -199 l 391 -194 l 418 -173 q 423 -166 431 -152 q 444 -124 444 -91 l 431 -86 l 433 -78 l 447 -73 l 465 -15 l 457 30 q 457 27 460 41 l 457 91 q 450 120 441 175 l 433 173 l 391 141 l 381 138 l 365 141 l 357 136 l 320 144 l 317 133 l 294 123 l 275 130 l 270 128 l 241 136 q 229 143 209 159 l 196 162 l 186 159 l 167 162 q 153 174 133 181 q 122 192 117 207 q 111 207 80 233 q 74 261 62 270 l 59 286 l 46 291 l 35 307 l 33 318 l 35 326 l 30 336 q 31 348 33 373 q 37 381 41 399 q 41 407 41 423 q 43 438 59 471 q 59 471 64 476 q 76 513 91 529 l 88 531 q 98 538 119 568 q 140 597 157 608 l 159 605 l 167 623 l 186 631 l 204 631 l 204 642 l 228 655 l 246 652 l 246 658 l 273 658 l 299 676 l 394 689 q 416 683 423 684 l 428 679 l 454 676 q 465 681 478 679 l 483 684 l 510 674 q 518 664 535 650 q 558 633 563 629 l 565 623 q 589 608 610 539 z"},"q":{"x_min":0,"x_max":371,"ha":371,"o":"m 396 -229 l 391 -279 q 375 -308 364 -316 l 364 -324 l 356 -345 l 341 -345 l 312 -374 l 298 -380 l 288 -374 l 262 -372 l 238 -361 q 205 -322 190 -272 l 193 -245 q 188 -234 188 -195 q 188 -185 190 -169 l 198 -158 q 200 -113 214 -90 l 211 -74 l 219 -55 l 219 -32 q 219 -26 217 -18 l 214 -13 l 219 8 l 225 8 l 230 21 l 227 45 l 230 58 l 227 74 l 225 76 l 219 76 q 203 62 198 42 l 175 32 l 172 21 l 167 16 l 167 8 l 159 -3 l 122 -5 l 106 0 l 101 -3 l 90 3 l 85 11 l 74 13 l 48 50 q 40 73 40 111 q 40 156 61 220 l 77 269 q 83 281 124 319 q 129 326 140 337 q 160 349 201 380 q 216 380 256 398 l 283 388 l 301 369 l 309 345 l 306 340 l 293 340 l 288 348 l 277 348 l 267 343 l 262 337 l 251 337 l 251 332 l 243 330 l 240 319 l 230 314 l 225 301 l 209 287 l 190 290 q 186 278 175 258 l 167 264 l 153 248 q 145 223 146 219 l 127 198 q 125 184 119 177 l 109 174 l 109 169 l 106 166 q 105 161 100 128 q 96 104 98 90 l 93 84 l 93 55 l 101 34 l 101 21 l 119 13 l 127 13 q 140 21 169 56 q 195 87 206 105 l 209 105 l 211 111 l 219 113 q 224 129 230 137 l 235 163 l 256 192 l 248 198 q 255 223 254 232 l 259 243 l 254 248 l 259 269 l 256 274 l 259 311 l 251 327 q 266 323 269 324 l 275 316 l 280 316 l 291 308 l 301 308 q 304 307 311 303 q 317 299 320 298 q 319 272 314 221 l 312 221 l 309 211 l 298 206 q 296 199 296 158 l 288 153 q 287 141 280 119 l 285 116 l 280 84 l 272 74 l 280 58 l 280 40 l 275 40 l 269 -3 l 262 -11 l 264 -13 l 259 -40 l 262 -50 q 250 -83 254 -127 q 234 -163 238 -190 l 227 -216 q 226 -224 225 -237 l 230 -314 l 256 -356 l 264 -345 l 280 -348 l 317 -327 q 334 -298 354 -261 l 356 -261 l 359 -256 q 357 -245 362 -235 l 341 -163 l 325 -169 l 306 -187 q 302 -233 283 -264 l 283 -285 q 297 -268 312 -258 q 312 -232 322 -192 l 330 -192 l 333 -195 l 338 -192 l 338 -198 l 341 -200 l 341 -219 q 341 -234 333 -250 l 335 -253 q 329 -259 317 -272 l 322 -274 l 317 -279 l 317 -282 l 293 -298 l 277 -298 l 256 -282 q 251 -247 251 -256 q 251 -247 256 -214 l 264 -208 l 272 -179 l 291 -161 l 312 -153 q 319 -144 335 -129 l 354 -132 l 372 -156 l 375 -171 l 391 -195 q 388 -209 396 -229 z"},"d":{"x_min":0,"x_max":403,"ha":403,"o":"m 423 -58 l 378 -40 l 373 -42 q 322 -12 254 111 q 249 106 224 68 q 203 37 193 34 l 191 29 l 178 21 l 178 13 l 167 11 l 164 5 l 146 3 q 140 -3 133 -5 l 130 0 l 112 3 l 93 18 q 90 27 62 59 q 40 84 40 132 q 40 189 59 219 l 67 227 l 72 243 l 80 250 q 82 258 98 277 l 138 298 q 157 336 201 348 l 201 377 q 201 404 193 456 q 199 470 200 489 q 201 521 201 522 q 212 617 228 641 l 228 651 q 244 685 270 754 q 296 770 307 788 l 328 783 l 328 786 q 347 771 359 746 q 359 732 364 712 q 372 687 373 680 l 381 680 l 381 678 l 370 649 l 378 622 q 370 566 370 556 q 370 498 375 490 q 371 484 362 475 l 362 459 q 362 458 365 443 l 359 438 q 357 413 356 404 q 354 394 346 374 q 347 370 347 365 q 347 353 339 333 q 328 301 328 301 q 326 290 320 266 l 296 182 l 301 150 l 294 153 l 288 132 q 302 114 304 92 q 317 83 325 53 q 339 42 354 19 q 366 -1 391 -16 q 400 -34 420 -47 z m 349 522 l 336 554 l 336 567 l 341 564 q 352 591 349 606 l 338 630 l 344 643 l 344 678 q 343 696 325 741 l 323 741 l 317 757 l 304 759 l 299 746 l 301 733 l 296 714 l 299 707 q 298 697 288 680 l 291 678 l 283 635 l 272 620 l 270 609 l 262 604 l 262 583 l 259 577 l 259 530 q 259 535 270 469 l 262 459 l 257 459 q 253 435 254 422 l 262 414 l 270 424 l 272 401 l 270 395 l 275 393 l 267 380 l 272 374 l 272 366 l 270 364 l 275 361 l 278 351 l 262 356 l 259 345 l 272 322 q 275 283 275 282 q 275 279 272 258 q 276 250 283 211 l 288 214 l 294 245 l 299 243 q 300 254 305 269 q 314 292 315 293 q 318 306 323 330 q 338 396 338 422 q 338 435 336 448 l 346 461 q 351 491 349 522 z m 241 192 l 233 206 l 220 216 l 214 264 l 204 258 l 175 258 q 159 238 133 214 l 135 206 l 130 198 l 122 198 l 98 177 q 89 152 80 127 l 80 82 q 84 67 88 55 l 117 24 q 131 35 149 40 l 162 55 l 164 63 l 183 71 l 193 87 l 204 92 l 207 105 l 204 108 q 226 133 238 153 l 228 179 z"},"1":{"x_min":0,"x_max":357,"ha":357,"o":"m 322 8 l 287 -13 l 272 -13 q 248 -13 219 -8 l 216 -13 l 190 -11 l 185 -8 q 174 -14 163 -14 q 161 -14 156 -13 l 145 -18 l 140 -16 l 134 -24 l 129 -18 l 127 -21 l 116 -13 l 111 3 l 98 11 l 100 16 l 105 18 l 105 24 l 119 24 l 124 21 l 127 29 l 132 24 l 137 24 l 142 21 l 148 32 l 145 47 l 153 50 l 153 55 l 158 55 q 158 61 158 66 q 158 77 161 84 q 158 89 156 100 q 156 111 156 118 l 156 127 l 155 178 q 155 216 161 229 l 171 237 l 174 250 l 171 258 l 174 264 l 171 277 l 163 269 l 153 279 l 153 285 l 145 298 l 145 306 l 153 306 l 148 335 l 158 372 l 169 364 l 174 366 q 166 394 156 403 l 158 482 l 121 451 l 103 446 q 78 420 18 398 l 0 406 q 30 414 40 422 l 42 432 q 71 463 98 475 l 108 488 l 105 475 l 113 477 l 113 490 l 132 506 q 135 515 153 539 q 168 559 171 572 l 219 567 l 219 543 q 223 536 235 522 q 241 508 241 501 q 241 500 240 498 l 237 498 l 235 453 q 250 429 253 417 l 248 414 l 248 409 l 240 403 l 232 388 q 231 382 229 366 l 229 366 l 229 366 q 230 354 232 343 l 243 322 l 235 311 l 240 314 l 240 285 q 240 284 238 278 q 235 270 235 250 l 235 247 l 235 243 q 235 218 231 192 q 229 176 229 164 l 229 161 l 227 158 q 231 126 245 66 l 244 61 l 237 61 l 232 53 l 232 18 l 319 21 z"},"5":{"x_min":0,"x_max":414,"ha":414,"o":"m 379 229 l 371 227 l 368 229 l 371 192 l 368 185 q 369 180 369 176 q 369 164 366 145 l 368 140 q 351 116 334 69 q 317 56 310 55 q 300 42 300 34 l 294 32 l 281 21 l 265 16 l 260 11 q 225 -3 174 -3 q 156 -3 136 3 l 134 -3 q 110 17 89 24 l 76 40 l 62 42 l 57 53 l 39 55 l 33 63 l 33 79 l 25 87 q 27 142 44 185 l 62 206 l 94 224 l 120 224 q 146 224 201 194 l 239 174 l 239 174 q 252 154 252 145 l 247 145 l 242 121 l 234 111 l 234 103 l 207 90 l 207 87 l 199 87 l 194 79 l 186 79 l 184 74 l 170 69 q 163 71 134 71 l 120 87 l 105 95 l 102 111 l 97 111 l 94 121 l 97 124 l 91 132 l 97 129 l 102 142 l 112 148 l 128 148 l 141 134 l 141 121 q 127 112 123 105 l 147 92 l 155 92 l 173 113 l 173 132 l 172 134 q 170 142 163 163 l 170 163 q 169 165 169 167 q 168 169 168 172 q 168 177 170 192 l 149 195 l 141 200 l 136 195 l 136 200 q 124 198 115 198 q 106 198 97 200 l 76 187 l 54 156 l 54 121 q 54 122 54 122 l 54 122 l 54 122 l 54 122 l 54 122 q 60 122 60 88 q 60 84 62 76 l 83 71 l 97 58 l 97 53 l 105 53 q 129 37 136 26 l 152 34 l 168 26 l 176 16 l 202 37 l 202 47 l 207 45 l 247 55 q 289 107 301 146 q 305 159 308 163 l 305 169 l 310 174 q 311 180 311 182 q 315 195 315 195 q 314 200 314 202 q 314 202 315 202 l 315 202 l 315 202 q 315 201 315 200 q 314 209 313 219 q 306 228 300 250 l 308 258 l 292 285 q 275 294 257 322 q 246 329 225 330 q 201 332 192 335 q 174 332 163 332 q 161 332 157 332 l 163 322 q 144 322 105 303 l 102 308 l 97 306 q 91 325 73 340 l 71 360 q 65 427 65 445 q 65 455 66 479 q 68 504 68 515 q 68 524 60 556 l 68 559 l 70 567 l 89 567 l 91 564 q 101 561 123 554 q 141 552 155 550 q 161 548 188 542 l 194 540 q 219 539 263 533 l 273 538 q 295 538 318 551 l 326 548 l 329 543 l 331 562 l 342 556 l 344 543 l 329 533 l 331 511 l 326 506 l 318 506 l 313 488 q 285 480 263 469 l 242 472 l 231 469 l 228 461 l 192 469 l 184 467 l 178 472 q 174 472 170 472 q 159 472 149 477 l 131 475 l 128 477 l 118 477 l 102 488 l 102 482 l 110 432 l 105 424 l 102 424 q 103 421 103 419 q 103 412 99 398 q 103 390 112 369 l 110 359 l 118 351 l 134 348 l 147 359 l 170 359 l 178 366 q 203 360 223 360 q 229 360 239 361 q 291 338 350 287 l 358 287 z"}}}
